<svg width="206" height="60" viewBox="0 0 206 60" fill="none" xmlns="http://www.w3.org/2000/svg">
<path d="M204.633 52.9166C204.633 53.6718 204.482 54.4195 204.188 55.1171C203.893 55.8147 203.462 56.4485 202.918 56.9822C202.375 57.5159 201.729 57.9391 201.019 58.2275C200.309 58.5159 199.548 58.664 198.78 58.6632H7.21925C5.66664 58.6648 4.17696 58.0603 3.07781 56.9827C1.97866 55.905 1.36006 54.4425 1.35803 52.9166V7.08953C1.36005 5.56302 1.97842 4.0997 3.07735 3.02085C4.17627 1.94201 5.66594 1.33585 7.21925 1.33545H198.778C199.547 1.33545 200.308 1.48429 201.019 1.77348C201.729 2.06267 202.374 2.48654 202.918 3.02087C203.461 3.55521 203.893 4.18954 204.187 4.88765C204.481 5.58576 204.632 6.33397 204.632 7.08953L204.633 52.9166Z" fill="white"/>
<path d="M198.78 60H7.22003C5.30739 59.9996 3.47303 59.2536 2.11946 57.9256C0.765876 56.5976 0.00363922 54.7962 0 52.9166L0 7.09095C0.00282946 5.21039 0.764563 3.40771 2.1181 2.07837C3.47163 0.749034 5.30644 0.00158727 7.22003 0L198.779 0C200.692 0.00237927 202.527 0.75008 203.88 2.07925C205.233 3.40841 205.995 5.21063 205.999 7.09095V52.9166C206.002 56.8236 202.758 60 198.78 60Z" fill="#A6A6A6"/>
<path d="M204.633 52.9166C204.633 53.6718 204.482 54.4195 204.188 55.1171C203.893 55.8147 203.462 56.4485 202.918 56.9822C202.375 57.5159 201.729 57.9391 201.019 58.2275C200.309 58.5159 199.548 58.664 198.78 58.6632H7.21925C5.66664 58.6648 4.17696 58.0603 3.07781 56.9827C1.97866 55.905 1.36006 54.4425 1.35803 52.9166V7.08953C1.36005 5.56302 1.97842 4.0997 3.07735 3.02085C4.17627 1.94201 5.66594 1.33585 7.21925 1.33545H198.778C199.547 1.33545 200.308 1.48429 201.019 1.77348C201.729 2.06267 202.374 2.48654 202.918 3.02087C203.461 3.55521 203.893 4.18954 204.187 4.88765C204.481 5.58576 204.632 6.33397 204.632 7.08953L204.633 52.9166Z" fill="black"/>
<path d="M45.9981 29.6842C45.9538 24.8484 50.0272 22.4957 50.2135 22.3862C47.9065 19.0808 44.3309 18.6292 43.0744 18.5932C40.0712 18.2826 37.1582 20.3592 35.6284 20.3592C34.068 20.3592 31.7122 18.6232 29.1733 18.6742C25.906 18.7237 22.8494 20.5827 21.1731 23.4695C17.7134 29.3556 20.2936 38.0055 23.6082 42.7633C25.2663 45.095 27.2037 47.6952 29.7397 47.6036C32.2207 47.5046 33.1474 46.0507 36.1414 46.0507C39.1078 46.0507 39.9781 47.6037 42.5644 47.5451C45.2271 47.5046 46.9035 45.2045 48.5035 42.8533C50.4196 40.1841 51.1891 37.5524 51.2196 37.4174C51.1585 37.3963 46.05 35.4788 45.9981 29.6842ZM41.1125 15.4633C42.4469 13.8234 43.3599 11.5922 43.1064 9.32812C41.1751 9.41215 38.7597 10.641 37.3689 12.2449C36.1383 13.6583 35.039 15.975 35.323 18.1536C37.4925 18.3126 39.7201 17.0778 41.1125 15.4633Z" fill="white"/>
<path d="M198.78 0H96.1744L136.363 60H198.78C200.693 59.9984 202.527 59.2514 203.881 57.9227C205.234 56.594 205.996 54.7921 206 52.9121V7.09095C205.997 5.21051 205.235 3.40806 203.881 2.07881C202.528 0.749557 200.693 0.00198342 198.78 0Z" fill="url(#paint0_linear_2372_21989)"/>
<path d="M81.9339 47.2689H78.4667L76.5674 41.4038H69.9657L68.1565 47.2689H64.7808L71.323 27.3014H75.3628L81.9339 47.2689ZM75.9948 38.9431L74.2772 33.7292C74.0956 33.1966 73.7536 31.9422 73.2528 29.9677H73.1917C72.9902 30.8169 72.668 32.0713 72.2268 33.7292L70.5382 38.9431H75.9948ZM98.7252 39.8929C98.7252 42.3416 98.0488 44.2771 96.6946 45.698C95.4823 46.9628 93.9754 47.5945 92.1784 47.5945C90.2379 47.5945 88.8425 46.9148 87.9951 45.5525V53.107H84.7401V37.6033C84.7401 36.0654 84.6989 34.4884 84.6195 32.871H87.4821L87.6638 35.1531H87.7249C88.8104 33.4336 90.4578 32.5739 92.6685 32.5739C94.3968 32.5739 95.8396 33.2446 96.9938 34.5874C98.1465 35.9333 98.7252 37.7008 98.7252 39.8929ZM95.4091 40.0099C95.4091 38.6085 95.0884 37.4532 94.4442 36.5425C93.7403 35.5957 92.7953 35.1216 91.6105 35.1216C90.8074 35.1216 90.0776 35.3857 89.4257 35.9063C88.7723 36.4314 88.3448 37.1171 88.1448 37.9664C88.0555 38.284 88.0047 38.6108 87.9936 38.9401V41.3423C87.9936 42.3881 88.3203 43.2718 88.9738 43.995C89.6272 44.7152 90.4761 45.0768 91.5204 45.0768C92.7464 45.0768 93.7006 44.6102 94.3831 43.6844C95.0671 42.7557 95.4091 41.5314 95.4091 40.0099ZM115.576 39.8929C115.576 42.3416 114.9 44.2771 113.545 45.698C112.332 46.9628 110.826 47.5945 109.028 47.5945C107.087 47.5945 105.692 46.9148 104.844 45.5525V53.107H101.589V37.6033C101.589 36.0654 101.548 34.4884 101.469 32.871H104.331L104.513 35.1531H104.574C105.658 33.4336 107.306 32.5739 109.518 32.5739C111.245 32.5739 112.687 33.2446 113.845 34.5874C114.996 35.9333 115.576 37.7008 115.576 39.8929ZM112.258 40.0099C112.258 38.6085 111.936 37.4532 111.292 36.5425C110.588 35.5957 109.646 35.1216 108.461 35.1216C107.658 35.1216 106.928 35.3857 106.273 35.9063C105.62 36.4314 105.194 37.1171 104.994 37.9664C104.895 38.3625 104.841 38.6851 104.841 38.9401V41.3423C104.841 42.3881 105.17 43.2718 105.82 43.995C106.473 44.7137 107.322 45.0768 108.37 45.0768C109.597 45.0768 110.551 44.6102 111.232 43.6844C111.916 42.7557 112.258 41.5314 112.258 40.0099ZM134.416 41.6679C134.416 43.3679 133.812 44.7497 132.61 45.8165C131.288 46.9809 129.442 47.5645 127.075 47.5645C124.889 47.5645 123.136 47.1504 121.814 46.3207L122.567 43.6544C123.994 44.4857 125.562 44.8998 127.269 44.8998C128.497 44.8998 129.451 44.6267 130.132 44.0851C130.815 43.5419 131.16 42.8157 131.16 41.9095C131.16 41.0977 130.874 40.418 130.314 39.8644C129.75 39.3122 128.819 38.7976 127.511 38.325C123.953 37.0211 122.173 35.1141 122.173 32.6054C122.173 30.9669 122.802 29.6256 124.057 28.5768C125.312 27.5295 126.976 27.0059 129.047 27.0059C130.895 27.0059 132.436 27.3224 133.659 27.9541L132.842 30.5618C131.691 29.9497 130.392 29.6436 128.938 29.6436C127.79 29.6436 126.889 29.9212 126.245 30.4733C125.703 30.9669 125.428 31.5686 125.428 32.2828C125.428 33.0705 125.741 33.7247 126.364 34.2378C126.904 34.7105 127.891 35.2251 129.317 35.7773C131.066 36.4705 132.352 37.2777 133.175 38.2049C134.004 39.1322 134.416 40.289 134.416 41.6679ZM145.206 35.2716H141.618V42.2621C141.618 44.04 142.25 44.9268 143.517 44.9268C144.099 44.9268 144.581 44.8788 144.963 44.7782L145.053 47.2074C144.412 47.443 143.567 47.5615 142.522 47.5615C141.236 47.5615 140.232 47.1759 139.506 46.4047C138.784 45.6335 138.421 44.3416 138.421 42.5231V35.2656H136.283V32.865H138.421V30.2287L141.618 29.2805V32.865H145.206V35.2716ZM161.362 39.9514C161.362 42.1645 160.718 43.9815 159.432 45.4024C158.087 46.8653 156.298 47.5945 154.067 47.5945C151.914 47.5945 150.203 46.8938 148.926 45.4939C147.65 44.0911 147.012 42.3236 147.012 40.1915C147.012 37.9604 147.671 36.1329 148.986 34.712C150.304 33.2896 152.078 32.5784 154.308 32.5784C156.458 32.5784 158.185 33.2806 159.492 34.682C160.74 36.0413 161.362 37.7968 161.362 39.9514ZM157.988 40.0249C157.988 38.7061 157.698 37.5748 157.116 36.628C156.433 35.4847 155.456 34.913 154.191 34.913C152.887 34.913 151.887 35.4847 151.206 36.628C150.623 37.5748 150.333 38.7256 150.333 40.085C150.333 41.4053 150.623 42.5396 151.206 43.4834C151.91 44.6267 152.891 45.1984 154.163 45.1984C155.407 45.1984 156.383 44.6147 157.088 43.4549C157.687 42.4856 157.988 41.3468 157.988 40.0249ZM171.947 35.6842C171.608 35.6242 171.265 35.5946 170.921 35.5957C169.776 35.5957 168.89 36.0188 168.267 36.8711C167.727 37.6213 167.455 38.5695 167.455 39.7144V47.2689H164.2V37.4052C164.203 35.8938 164.171 34.3825 164.105 32.8725H166.941L167.06 35.6272H167.15C167.495 34.6805 168.035 33.9168 168.777 33.3451C169.456 32.8456 170.282 32.5751 171.13 32.5739C171.431 32.5739 171.703 32.5949 171.944 32.6324L171.947 35.6842ZM186.504 39.3888C186.513 39.875 186.473 40.361 186.385 40.8397H176.62C176.657 42.2621 177.13 43.3514 178.037 44.1016C178.86 44.7707 179.924 45.1068 181.231 45.1068C182.677 45.1068 183.996 44.8818 185.182 44.4272L185.692 46.6463C184.306 47.2404 182.669 47.536 180.781 47.536C178.509 47.536 176.726 46.8788 175.428 45.5675C174.133 44.2546 173.484 42.4901 173.484 40.28C173.484 38.1104 174.087 36.3024 175.295 34.8605C176.559 33.3211 178.268 32.5514 180.417 32.5514C182.529 32.5514 184.127 33.3211 185.213 34.8605C186.072 36.0804 186.504 37.5928 186.504 39.3888ZM183.401 38.559C183.423 37.6093 183.21 36.7915 182.768 36.0999C182.205 35.2086 181.338 34.7645 180.176 34.7645C179.112 34.7645 178.245 35.1981 177.585 36.0683C177.043 36.76 176.721 37.5913 176.622 38.556L183.401 38.559Z" fill="white"/>
<path d="M69.0269 20.2419C68.1215 20.2419 67.3383 20.1984 66.6864 20.1249V10.4712C67.5982 10.3328 68.5196 10.2646 69.4422 10.2672C73.1751 10.2672 74.8942 12.0721 74.8942 15.0145C74.8942 18.4084 72.8636 20.2419 69.0269 20.2419ZM69.5735 11.505C69.0697 11.505 68.6406 11.535 68.2849 11.607V18.9455C68.4773 18.9755 68.8468 18.989 69.3659 18.989C71.8117 18.989 73.2041 17.6207 73.2041 15.058C73.2041 12.7728 71.9445 11.505 69.5735 11.505ZM80.2516 20.3154C78.1477 20.3154 76.7844 18.7715 76.7844 16.6754C76.7844 14.4908 78.1768 12.9334 80.3707 12.9334C82.444 12.9334 83.838 14.4038 83.838 16.5599C83.838 18.7715 82.4013 20.3154 80.2516 20.3154ZM80.3127 14.0827C79.1569 14.0827 78.4165 15.145 78.4165 16.6304C78.4165 18.0873 79.1722 19.1496 80.2974 19.1496C81.4226 19.1496 82.1784 18.0138 82.1784 16.6004C82.1784 15.16 81.4379 14.0827 80.3127 14.0827ZM95.8352 13.0789L93.5832 20.1549H92.116L91.1832 17.082C90.9512 16.3304 90.7581 15.5677 90.6045 14.7969H90.574C90.4564 15.5681 90.2335 16.3408 89.9969 17.082L89.0045 20.1549H87.522L85.4029 13.0789H87.0472L87.8625 16.4428C88.0549 17.2441 88.2167 18.0003 88.3511 18.7145H88.3816C88.4991 18.1188 88.6915 17.3746 88.974 16.4579L89.9969 13.0804H91.3007L92.2794 16.3858C92.516 17.1871 92.7084 17.9733 92.858 18.716H92.9008C93.0046 17.9883 93.168 17.2156 93.3893 16.3858L94.2642 13.0804L95.8352 13.0789ZM104.125 20.1549H102.525V16.0918C102.525 14.8404 102.037 14.2132 101.073 14.2132C100.125 14.2132 99.4735 15.0145 99.4735 15.9462V20.1549H97.8734V15.1015C97.8734 14.4758 97.8582 13.8051 97.8139 13.0774H99.2215L99.2964 14.1697H99.3406C99.7712 13.4135 100.644 12.9334 101.623 12.9334C103.135 12.9334 104.127 14.0692 104.127 15.9177L104.125 20.1549ZM108.538 20.1549H106.936V9.83203H108.538V20.1549ZM114.372 20.3154C112.269 20.3154 110.904 18.7715 110.904 16.6754C110.904 14.4908 112.297 12.9334 114.489 12.9334C116.564 12.9334 117.956 14.4038 117.956 16.5599C117.958 18.7715 116.52 20.3154 114.372 20.3154ZM114.431 14.0827C113.275 14.0827 112.535 15.145 112.535 16.6304C112.535 18.0873 113.292 19.1496 114.414 19.1496C115.541 19.1496 116.295 18.0138 116.295 16.6004C116.297 15.16 115.558 14.0827 114.431 14.0827ZM124.265 20.1549L124.149 19.3401H124.106C123.618 19.9958 122.905 20.3154 122.001 20.3154C120.711 20.3154 119.795 19.4272 119.795 18.2328C119.795 16.4864 121.335 15.5831 124.002 15.5831V15.4526C124.002 14.5208 123.5 14.0542 122.508 14.0542C121.798 14.0542 121.175 14.2297 120.627 14.5793L120.301 13.5456C120.967 13.1374 121.798 12.9334 122.773 12.9334C124.654 12.9334 125.604 13.9087 125.604 15.8607V18.4669C125.604 19.1811 125.636 19.7348 125.708 20.1564L124.265 20.1549ZM124.045 16.6304C122.268 16.6304 121.376 17.0535 121.376 18.0573C121.376 18.8 121.836 19.1631 122.474 19.1631C123.288 19.1631 124.045 18.5524 124.045 17.7227V16.6304ZM133.374 20.1549L133.299 19.0191H133.254C132.795 19.8773 132.022 20.3154 130.943 20.3154C129.207 20.3154 127.921 18.815 127.921 16.7039C127.921 14.4908 129.254 12.9319 131.074 12.9319C132.038 12.9319 132.72 13.2515 133.105 13.8936H133.137V9.83203H134.738V18.2478C134.738 18.932 134.755 19.5727 134.798 20.1549H133.374ZM133.137 15.9912C133.137 15.001 132.47 14.1562 131.451 14.1562C130.265 14.1562 129.54 15.19 129.54 16.6454C129.54 18.0723 130.293 19.0491 131.419 19.0491C132.425 19.0491 133.137 18.1893 133.137 17.1706V15.9912ZM144.893 20.3154C142.791 20.3154 141.427 18.7715 141.427 16.6754C141.427 14.4908 142.82 12.9334 145.012 12.9334C147.087 12.9334 148.479 14.4038 148.479 16.5599C148.481 18.7715 147.044 20.3154 144.893 20.3154ZM144.952 14.0827C143.798 14.0827 143.058 15.145 143.058 16.6304C143.058 18.0873 143.813 19.1496 144.937 19.1496C146.064 19.1496 146.818 18.0138 146.818 16.6004C146.821 15.16 146.081 14.0827 144.952 14.0827ZM157.084 20.1549H155.482V16.0918C155.482 14.8404 154.994 14.2132 154.031 14.2132C153.082 14.2132 152.432 15.0145 152.432 15.9462V20.1549H150.83V15.1015C150.83 14.4758 150.815 13.8051 150.771 13.0774H152.179L152.253 14.1697H152.298C152.727 13.4135 153.602 12.9319 154.579 12.9319C156.09 12.9319 157.084 14.0677 157.084 15.9162V20.1549ZM167.849 14.2582H166.089V17.6942C166.089 18.5689 166.397 19.0056 167.02 19.0056C167.303 19.0056 167.539 18.9755 167.73 18.932L167.774 20.1264C167.464 20.2434 167.049 20.3019 166.533 20.3019C165.272 20.3019 164.518 19.6177 164.518 17.8262V14.2582H163.467V13.0789H164.518V11.7826L166.089 11.3159V13.0774H167.849V14.2582ZM176.32 20.1549H174.721V16.1218C174.721 14.8554 174.234 14.2147 173.269 14.2147C172.44 14.2147 171.668 14.7684 171.668 15.8892V20.1549H170.069V9.83203H171.668V14.0827H171.7C172.203 13.3115 172.933 12.9319 173.865 12.9319C175.388 12.9319 176.32 14.0962 176.32 15.9462V20.1549ZM184.998 16.995H180.196C180.227 18.3349 181.129 19.0911 182.465 19.0911C183.175 19.0911 183.828 18.974 184.405 18.7565L184.654 19.8488C183.973 20.1399 183.172 20.2854 182.239 20.2854C179.987 20.2854 178.654 18.887 178.654 16.7189C178.654 14.5493 180.019 12.9184 182.059 12.9184C183.898 12.9184 185.053 14.2582 185.053 16.2823C185.063 16.5212 185.045 16.7604 184.998 16.995ZM183.53 15.8742C183.53 14.7819 182.97 14.0107 181.947 14.0107C181.028 14.0107 180.301 14.7969 180.198 15.8742H183.53Z" fill="white"/>
<defs>
<linearGradient id="paint0_linear_2372_21989" x1="151.085" y1="60.1593" x2="151.085" y2="-156.23" gradientUnits="userSpaceOnUse">
<stop stop-color="#1A1A1A" stop-opacity="0.1"/>
<stop offset="0.123" stop-color="#212121" stop-opacity="0.151"/>
<stop offset="0.308" stop-color="#353535" stop-opacity="0.227"/>
<stop offset="0.532" stop-color="#575757" stop-opacity="0.318"/>
<stop offset="0.783" stop-color="#858585" stop-opacity="0.421"/>
<stop offset="1" stop-color="#B3B3B3" stop-opacity="0.51"/>
</linearGradient>
</defs>
</svg>
