<svg width="24" height="24" viewBox="0 0 24 24" fill="none" xmlns="http://www.w3.org/2000/svg">
<path d="M20 2H4C2.9 2 2.01 2.9 2.01 4L2 22L6 18H20C21.1 18 22 17.1 22 16V4C22 2.9 21.1 2 20 2ZM18 14H6V12H18V14ZM18 11H6V9H18V11ZM18 8H6V6H18V8Z" fill="#C6C6C6"/>
<path d="M20 2H4C2.9 2 2.01 2.9 2.01 4L2 22L6 18H20C21.1 18 22 17.1 22 16V4C22 2.9 21.1 2 20 2ZM18 14H6V12H18V14ZM18 11H6V9H18V11ZM18 8H6V6H18V8Z" fill="url(#paint0_linear_2343_4921)"/>
<defs>
<linearGradient id="paint0_linear_2343_4921" x1="2.65421" y1="12" x2="21.6278" y2="11.9371" gradientUnits="userSpaceOnUse">
<stop stop-color="#8F52F3"/>
<stop offset="1" stop-color="#00AAE1"/>
</linearGradient>
</defs>
</svg>
