<svg width="368" height="248" viewBox="0 0 368 248" fill="none" xmlns="http://www.w3.org/2000/svg">
<g clip-path="url(#clip0_2354_16293)">
<path d="M286.745 96.7158C286.703 96.7158 286.66 96.7158 286.619 96.7158V68.5021H254.605C254.429 67.14 254.339 65.752 254.339 64.3425C254.339 46.4628 268.848 31.9676 286.745 31.9676C304.641 31.9676 319.149 46.4628 319.149 64.3425C319.149 82.2222 304.641 96.7158 286.745 96.7158Z" fill="#646DEE"/>
<path d="M113.3 78.6757L113.293 78.2018C114.349 78.1881 115.407 78.1865 116.464 78.2003L116.458 78.6742C115.404 78.662 114.352 78.662 113.3 78.6757ZM122.768 78.902C121.717 78.8393 120.666 78.7873 119.615 78.7491L119.631 78.2767C120.687 78.315 121.742 78.3654 122.797 78.4296L122.768 78.902ZM106.991 78.9142L106.96 78.4418C108.01 78.3746 109.075 78.3211 110.126 78.2813L110.144 78.7552C109.096 78.795 108.036 78.8485 106.991 78.9142ZM129.06 79.4309C128.015 79.3193 126.967 79.2184 125.917 79.1297L125.957 78.6574C127.01 78.746 128.061 78.8469 129.112 78.9601L129.06 79.4309ZM100.702 79.4798L100.648 79.009C101.692 78.8882 102.752 78.7781 103.8 78.6849L103.843 79.1573C102.8 79.2505 101.742 79.3591 100.702 79.4798ZM135.323 80.2533C134.283 80.0928 133.241 79.943 132.197 79.807L132.258 79.3361C133.307 79.4737 134.352 79.6235 135.395 79.7856L135.323 80.2533ZM94.4538 80.3787L94.3731 79.9124C95.4061 79.7351 96.4594 79.5685 97.5042 79.4187L97.5719 79.888C96.5315 80.0378 95.4821 80.2029 94.4538 80.3787ZM141.54 81.3601C140.509 81.1522 139.475 80.9565 138.439 80.7716L138.521 80.3053C139.562 80.4903 140.599 80.6875 141.635 80.8954L141.54 81.3601ZM88.2651 81.6215L88.1587 81.1599C89.1769 80.926 90.2192 80.7013 91.2576 80.4934L91.3508 80.9565C90.3173 81.1645 89.2791 81.3876 88.2651 81.6215ZM147.704 82.7436C146.682 82.4898 145.658 82.2483 144.63 82.0175L144.734 81.5543C145.765 81.7866 146.794 82.0297 147.819 82.2835L147.704 82.7436ZM82.1575 83.216L82.0241 82.7604C83.029 82.4669 84.0571 82.1826 85.0794 81.9151L85.1997 82.3737C84.1815 82.6396 83.1581 82.9225 82.1575 83.216ZM153.799 84.3992C152.79 84.1011 151.777 83.8137 150.76 83.537L150.884 83.0799C151.904 83.3581 152.92 83.6455 153.933 83.9452L153.799 84.3992ZM76.1554 85.1666L75.9952 84.7202C76.9839 84.3656 77.9932 84.0201 78.995 83.6944L79.142 84.1454C78.1447 84.471 77.1399 84.8135 76.1554 85.1666ZM159.814 86.3223C159.228 86.1205 158.639 85.9218 158.048 85.7276C157.639 85.5916 157.228 85.4586 156.818 85.3271L156.962 84.8761C157.375 85.0076 157.786 85.1421 158.198 85.2767C158.789 85.4723 159.379 85.6711 159.97 85.8744L159.814 86.3223ZM70.2914 87.4917L70.1007 87.0576C71.0635 86.6341 72.0481 86.2245 73.0275 85.8362L73.202 86.2764C72.2284 86.6632 71.2491 87.0714 70.2914 87.4917ZM165.737 88.5114C164.758 88.1231 163.775 87.747 162.788 87.3832L162.952 86.9384C163.942 87.3037 164.929 87.6813 165.911 88.0696L165.737 88.5114ZM64.6199 90.2419L64.3964 89.8245C65.3203 89.3323 66.2708 88.8477 67.2221 88.386L67.4296 88.8125C66.4837 89.2711 65.5383 89.7527 64.6199 90.2419ZM171.553 90.968C170.594 90.5369 169.63 90.1165 168.66 89.7068L168.845 89.2696C169.818 89.6808 170.785 90.1028 171.749 90.5369L171.553 90.968ZM59.1789 93.4246L58.9231 93.0257C59.8117 92.457 60.7217 91.9005 61.6284 91.3716L61.8681 91.7798C60.9666 92.3072 60.062 92.8605 59.1789 93.4246ZM177.249 93.6952C176.311 93.2183 175.366 92.752 174.418 92.298L174.623 91.8699C175.576 92.327 176.523 92.7948 177.464 93.2733L177.249 93.6952ZM182.805 96.6945C181.891 96.1732 180.971 95.6611 180.044 95.1613L180.271 94.7439C181.201 95.2453 182.124 95.759 183.04 96.2833L182.805 96.6945ZM54.0086 97.0278L53.7217 96.6502C54.5636 96.0112 55.4265 95.3844 56.286 94.7852L56.5573 95.175C55.7032 95.7697 54.8458 96.3934 54.0086 97.0278ZM188.2 99.9706C187.323 99.4064 186.422 98.8439 185.524 98.2981L185.77 97.893C186.673 98.4403 187.576 99.0059 188.457 99.5716L188.2 99.9706ZM49.1485 101.039L48.8318 100.686C49.6151 99.9843 50.4238 99.2887 51.2357 98.6192L51.5376 98.9845C50.731 99.6495 49.9271 100.34 49.1485 101.039ZM193.418 103.523C192.578 102.918 191.709 102.308 190.832 101.712L191.1 101.32C191.98 101.918 192.853 102.531 193.695 103.138L193.418 103.523ZM44.6336 105.434L44.2887 105.109C45.0158 104.34 45.7648 103.58 46.5149 102.851L46.8461 103.19C46.1004 103.915 45.3563 104.67 44.6336 105.434ZM198.388 107.402C197.56 106.701 196.737 106.032 195.943 105.411L196.235 105.038C197.034 105.662 197.861 106.336 198.694 107.039L198.388 107.402ZM40.504 110.175L40.1334 109.878C40.7909 109.059 41.4735 108.241 42.1627 107.45L42.5206 107.761C41.8357 108.548 41.1572 109.36 40.504 110.175ZM203.099 111.602C202.328 110.885 201.552 110.175 200.767 109.473L201.084 109.12C201.872 109.823 202.649 110.537 203.422 111.255L203.099 111.602ZM36.7732 115.241L36.38 114.976C36.968 114.105 37.5823 113.234 38.2049 112.388L38.5873 112.669C37.9683 113.51 37.3581 114.376 36.7732 115.241ZM207.691 115.947L205.401 113.767L205.727 113.423L208.019 115.603L207.691 115.947ZM212.325 120.261C211.541 119.555 210.765 118.839 209.994 118.118L210.317 117.772C211.087 118.491 211.861 119.205 212.643 119.909L212.325 120.261ZM33.4646 120.597L33.051 120.365C33.5662 119.449 34.108 118.532 34.6612 117.636L35.0653 117.885C34.515 118.775 33.9766 119.688 33.4646 120.597ZM217.149 124.372C216.355 123.74 215.532 123.062 214.703 122.354L215.012 121.995C215.836 122.698 216.655 123.373 217.445 124L217.149 124.372ZM30.5943 126.203L30.1632 126.004C30.6068 125.046 31.074 124.087 31.5512 123.155L31.9739 123.372C31.4992 124.297 31.0351 125.251 30.5943 126.203ZM222.298 128.076C221.435 127.521 220.554 126.92 219.679 126.287L219.956 125.902C220.825 126.53 221.7 127.126 222.555 127.677L222.298 128.076ZM227.838 131.171C226.886 130.711 225.939 130.219 225.022 129.708L225.253 129.294C226.16 129.8 227.1 130.289 228.044 130.745L227.838 131.171ZM28.1748 132.021L27.7299 131.856C28.0949 130.873 28.4849 129.88 28.8895 128.907L29.3277 129.088C28.9253 130.057 28.5376 131.043 28.1748 132.021ZM233.701 133.605C232.699 133.25 231.7 132.868 230.734 132.468L230.916 132.03C231.874 132.426 232.864 132.807 233.86 133.159L233.701 133.605ZM239.781 135.427C238.737 135.164 237.707 134.883 236.722 134.588L236.858 134.134C237.837 134.426 238.859 134.707 239.897 134.967L239.781 135.427ZM245.982 136.73C244.934 136.549 243.888 136.349 242.871 136.137L242.968 135.672C243.979 135.884 245.021 136.083 246.063 136.263L245.982 136.73ZM252.25 137.638C251.2 137.512 250.154 137.376 249.11 137.225L249.179 136.756C250.216 136.906 251.26 137.042 252.307 137.167L252.25 137.638ZM26.2138 138.012L25.7575 137.882C26.0471 136.866 26.3597 135.846 26.6857 134.851L27.1368 134.998C26.8124 135.988 26.502 137.002 26.2138 138.012ZM258.548 138.274C257.495 138.184 256.444 138.087 255.396 137.982L255.443 137.509C256.49 137.615 257.538 137.711 258.588 137.801L258.548 138.274ZM264.857 138.763C263.804 138.688 262.753 138.61 261.702 138.531L261.739 138.057C262.788 138.138 263.839 138.214 264.892 138.291L264.857 138.763ZM271.167 139.226C270.116 139.145 269.065 139.067 268.012 138.991L268.047 138.517C269.1 138.593 270.153 138.671 271.204 138.752L271.167 139.226ZM277.469 139.779C276.421 139.672 275.371 139.575 274.321 139.483L274.361 139.012C275.415 139.104 276.466 139.202 277.516 139.307L277.469 139.779ZM283.742 140.545C282.7 140.392 281.657 140.255 280.61 140.128L280.667 139.657C281.718 139.784 282.766 139.923 283.81 140.076L283.742 140.545ZM289.958 141.643C288.963 141.432 287.92 141.23 286.861 141.044L286.943 140.577C288.008 140.765 289.055 140.967 290.056 141.178L289.958 141.643ZM296.065 143.19C295.087 142.897 294.065 142.614 293.029 142.352L293.145 141.894C294.187 142.157 295.216 142.439 296.201 142.736L296.065 143.19ZM24.715 144.138L24.25 144.043C24.4616 143.011 24.6958 141.97 24.9458 140.949L25.4067 141.061C25.158 142.077 24.9251 143.112 24.715 144.138ZM301.993 145.29C301.039 144.896 300.051 144.517 299.053 144.165L299.211 143.717C300.218 144.074 301.214 144.454 302.175 144.852L301.993 145.29ZM307.67 148.01C306.759 147.51 305.817 147.027 304.868 146.573L305.074 146.145C306.029 146.604 306.98 147.091 307.898 147.594L307.67 148.01ZM23.6793 150.361L23.2089 150.3C23.3435 149.25 23.4993 148.193 23.6715 147.162L24.1395 147.24C23.9683 148.267 23.8135 149.316 23.6793 150.361ZM313.007 151.344C312.156 150.742 311.275 150.155 310.386 149.601L310.637 149.199C311.533 149.759 312.422 150.35 313.281 150.956L313.007 151.344ZM317.916 155.277C317.141 154.576 316.335 153.889 315.519 153.237L315.816 152.867C316.64 153.526 317.452 154.218 318.234 154.926L317.916 155.277ZM23.1056 156.644L22.6317 156.618C22.6891 155.568 22.7668 154.502 22.8623 153.454L23.3353 153.497C23.24 154.541 23.1628 155.598 23.1056 156.644ZM322.312 159.773C321.632 158.986 320.915 158.206 320.183 157.457L320.523 157.127C321.261 157.882 321.984 158.668 322.671 159.465L322.312 159.773ZM22.516 162.962C22.5068 162.439 22.5024 161.917 22.502 161.394C22.502 160.859 22.5068 160.324 22.5166 159.789L22.9911 159.798C22.9814 160.33 22.9766 160.862 22.9766 161.394C22.9769 161.914 22.9814 162.433 22.9907 162.953L22.516 162.962ZM326.128 164.777C325.55 163.915 324.935 163.052 324.297 162.218L324.674 161.93C325.317 162.773 325.938 163.643 326.523 164.514L326.128 164.777ZM22.8547 169.29C22.7612 168.241 22.6851 167.177 22.629 166.13L23.103 166.104C23.1587 167.146 23.2343 168.204 23.3275 169.248L22.8547 169.29ZM329.305 170.205C328.83 169.271 328.324 168.342 327.798 167.444L328.208 167.204C328.737 168.111 329.25 169.048 329.727 169.991L329.305 170.205ZM23.6404 175.579C23.4724 174.533 23.3215 173.478 23.1924 172.442L23.6634 172.384C23.7919 173.414 23.9415 174.464 24.1091 175.504L23.6404 175.579ZM331.814 175.973C331.456 174.996 331.063 174.015 330.645 173.053L331.08 172.864C331.502 173.834 331.898 174.825 332.261 175.809L331.814 175.973ZM24.8648 181.797C24.6251 180.77 24.4012 179.728 24.1986 178.699L24.6642 178.607C24.8656 179.631 25.0887 180.668 25.3268 181.689L24.8648 181.797ZM333.646 181.992C333.398 180.973 333.118 179.952 332.815 178.956L333.269 178.819C333.575 179.822 333.857 180.853 334.108 181.878L333.646 181.992ZM26.5173 187.915C26.2082 186.911 25.9126 185.885 25.6382 184.87L26.096 184.746C26.3693 185.757 26.6633 186.776 26.9708 187.776L26.5173 187.915ZM334.8 188.174C334.663 187.136 334.497 186.09 334.307 185.066L334.772 184.979C334.965 186.012 335.133 187.065 335.269 188.112L334.8 188.174ZM28.5865 193.905C28.2072 192.919 27.8421 191.917 27.5007 190.927L27.9497 190.774C28.2889 191.757 28.6523 192.754 29.0295 193.735L28.5865 193.905ZM335.288 194.444C335.262 193.399 335.207 192.341 335.126 191.303L335.598 191.266C335.679 192.313 335.735 193.377 335.762 194.432L335.288 194.444ZM31.0587 199.741C30.6158 198.787 30.1834 197.812 29.773 196.844L30.2099 196.659C30.6181 197.623 31.0486 198.593 31.4891 199.543L31.0587 199.741ZM335.603 200.77L335.13 200.735C335.208 199.688 335.262 198.63 335.288 197.592L335.762 197.604C335.736 198.65 335.683 199.715 335.603 200.77ZM33.9173 205.399C33.7004 205.002 33.486 204.603 33.2739 204.202C32.9905 203.667 32.7132 203.132 32.4412 202.594L32.8647 202.38C33.1353 202.915 33.4113 203.448 33.6932 203.98C33.9045 204.379 34.1182 204.777 34.3338 205.173L33.9173 205.399ZM334.812 207.062L334.344 206.98C334.526 205.943 334.685 204.896 334.813 203.867L335.285 203.925C335.155 204.963 334.995 206.018 334.812 207.062ZM37.1064 210.87C36.5531 209.979 36.0037 209.066 35.4735 208.157L35.8835 207.918C36.4114 208.823 36.9586 209.733 37.5099 210.621L37.1064 210.87ZM333.413 213.243L332.956 213.117C333.234 212.11 333.493 211.084 333.724 210.065L334.188 210.17C333.955 211.196 333.695 212.229 333.413 213.243ZM40.5918 216.161C39.9869 215.294 39.3888 214.412 38.8136 213.539L39.2099 213.279C39.7828 214.148 40.3788 215.027 40.9809 215.889L40.5918 216.161ZM331.432 219.266L330.988 219.096C331.364 218.112 331.719 217.113 332.044 216.131L332.494 216.279C332.168 217.268 331.811 218.274 331.432 219.266ZM44.351 221.258C43.7089 220.432 43.0655 219.582 42.4384 218.734L42.8205 218.451C43.445 219.298 44.0861 220.145 44.7257 220.967L44.351 221.258ZM328.89 225.072L328.465 224.862C328.93 223.925 329.377 222.964 329.794 222.008L330.229 222.198C329.808 223.161 329.358 224.127 328.89 225.072ZM48.3614 226.162C47.6728 225.361 46.9943 224.552 46.3258 223.734L46.6934 223.435C47.3594 224.248 48.0356 225.055 48.7211 225.852L48.3614 226.162ZM325.819 230.62L325.414 230.372C325.646 229.991 325.877 229.609 326.104 229.224C326.411 228.703 326.711 228.178 327.003 227.651L327.418 227.88C327.124 228.412 326.823 228.94 326.512 229.464C326.284 229.851 326.053 230.236 325.819 230.62ZM52.6004 230.867C51.8756 230.1 51.1599 229.323 50.4538 228.539L50.8063 228.221C51.5102 229.002 52.2235 229.777 52.9458 230.543L52.6004 230.867ZM57.0462 235.38C56.2886 234.643 55.5394 233.9 54.7988 233.148L55.1371 232.815C55.8753 233.564 56.6222 234.305 57.3773 235.039L57.0462 235.38ZM322.32 235.904L321.932 235.628C322.538 234.782 323.14 233.909 323.721 233.032L324.117 233.293C323.533 234.175 322.927 235.054 322.32 235.904ZM61.6786 239.699C60.8914 238.994 60.1117 238.283 59.3401 237.563L59.664 237.216C60.4332 237.934 61.2106 238.644 61.9954 239.345L61.6786 239.699ZM318.45 240.923L318.084 240.622C318.751 239.816 319.414 238.988 320.053 238.159L320.43 238.448C319.787 239.281 319.12 240.114 318.45 240.923ZM66.4789 243.831C65.6656 243.156 64.8588 242.476 64.059 241.788L64.3687 241.429C65.166 242.115 65.9708 242.794 66.7819 243.465L66.4789 243.831ZM314.236 245.657L313.893 245.33C314.615 244.574 315.334 243.794 316.029 243.013L316.384 243.329C315.686 244.113 314.962 244.898 314.236 245.657ZM71.4298 247.781C70.5928 247.137 69.7619 246.486 68.9367 245.829L69.2326 245.459C70.0554 246.113 70.8844 246.763 71.7192 247.406L71.4298 247.781Z" fill="#9192FF"/>
<path d="M241.487 15.7236C236.85 15.7236 233.077 19.4934 233.077 24.1253C233.077 28.7573 236.85 32.5271 241.487 32.5271C246.123 32.5271 249.897 28.7573 249.897 24.1253C249.897 19.4934 246.123 15.7236 241.487 15.7236ZM241.487 33.001C236.589 33.001 232.603 29.0187 232.603 24.1253C232.603 19.2319 236.589 15.2497 241.487 15.2497C246.385 15.2497 250.371 19.2319 250.371 24.1253C250.371 29.0187 246.385 33.001 241.487 33.001Z" fill="#9192FF"/>
<path d="M34.5966 33.4229C29.9599 33.4229 26.1873 37.1911 26.1873 41.8231C26.1873 46.4566 29.9599 50.2248 34.5966 50.2248C39.2335 50.2248 43.006 46.4566 43.006 41.8231C43.006 37.1911 39.2335 33.4229 34.5966 33.4229ZM34.5966 50.6987C29.6981 50.6987 25.7128 46.718 25.7128 41.8231C25.7128 36.9297 29.6981 32.949 34.5966 32.949C39.4953 32.949 43.4807 36.9297 43.4807 41.8231C43.4807 46.718 39.4953 50.6987 34.5966 50.6987Z" fill="#9192FF"/>
<path d="M340.672 104.65L340.521 104.2C341.548 103.857 342.634 103.704 343.721 103.75L343.701 104.223C342.672 104.181 341.643 104.326 340.672 104.65ZM349.225 106.605C348.485 105.884 347.63 105.31 346.684 104.902L346.873 104.466C347.872 104.898 348.775 105.503 349.555 106.266L349.225 106.605ZM336.031 108.475L335.62 108.241C336.158 107.295 336.858 106.463 337.698 105.77L338.001 106.136C337.204 106.792 336.541 107.579 336.031 108.475ZM351.742 112.063C351.674 111.031 351.422 110.034 350.99 109.1L351.42 108.901C351.876 109.889 352.144 110.942 352.215 112.03L351.742 112.063ZM334.671 114.519C334.535 113.899 334.466 113.258 334.466 112.618C334.466 112.176 334.5 111.729 334.564 111.294L335.034 111.362C334.973 111.777 334.94 112.199 334.94 112.618C334.94 113.224 335.006 113.83 335.135 114.418L334.671 114.519ZM351.648 115.793L351.205 115.623C351.573 114.664 351.76 113.654 351.76 112.618H352.234C352.234 113.712 352.037 114.781 351.648 115.793ZM338.161 119.822C337.277 119.186 336.524 118.402 335.926 117.493L336.322 117.233C336.89 118.093 337.601 118.836 338.44 119.439L338.161 119.822ZM347.404 120.518L347.186 120.096C348.103 119.625 348.919 118.998 349.609 118.229L349.962 118.546C349.232 119.358 348.371 120.021 347.404 120.518ZM343.35 121.493C342.582 121.493 341.82 121.395 341.084 121.201L341.205 120.743C342.192 121.002 343.242 121.079 344.256 120.97L344.307 121.443C343.991 121.475 343.67 121.493 343.35 121.493Z" fill="#9192FF"/>
<path d="M92.31 32.9644L91.0236 31.6787L92.31 30.3946L92.6452 30.7294L91.6948 31.6787L92.6452 32.6296L92.31 32.9644Z" fill="#9192FF"/>
<path d="M96.4463 37.0966L94.3783 35.0313L94.7137 34.6965L96.7817 36.7618L96.4463 37.0966ZM100.583 41.2302L98.5148 39.1634L98.8502 38.8286L100.918 40.8939L100.583 41.2302ZM104.72 45.3623L102.651 43.2955L102.986 42.9607L105.055 45.0275L104.72 45.3623Z" fill="#9192FF"/>
<path d="M108.074 48.7134L106.787 47.4277L107.122 47.093L108.074 48.0438L109.024 47.093L109.359 47.4277L108.074 48.7134Z" fill="#9192FF"/>
<path d="M119.702 37.0966L119.367 36.7618L121.434 34.695L121.769 35.0298L119.702 37.0966ZM115.564 41.2302L115.229 40.8939L117.298 38.8286L117.633 39.1634L115.564 41.2302ZM111.428 45.3623L111.093 45.0275L113.16 42.9607L113.497 43.2955L111.428 45.3623Z" fill="#9192FF"/>
<path d="M123.838 32.9644L123.503 32.6296L124.453 31.6787L123.503 30.7294L123.838 30.3946L125.125 31.6787L123.838 32.9644Z" fill="#9192FF"/>
<path d="M113.16 20.3984L111.093 18.3316L111.428 17.9968L113.497 20.0636L113.16 20.3984ZM117.298 24.5305L115.229 22.4652L115.564 22.1289L117.633 24.1957L117.298 24.5305ZM121.434 28.6626L119.367 26.5973L119.702 26.2625L121.769 28.3278L121.434 28.6626Z" fill="#9192FF"/>
<path d="M107.122 16.2651L106.787 15.9303L108.074 14.6462L109.359 15.9303L109.024 16.2651L108.074 15.3158L107.122 16.2651Z" fill="#9192FF"/>
<path d="M102.986 20.3984L102.651 20.0636L104.72 17.9968L105.055 18.3316L102.986 20.3984ZM98.8497 24.5305L98.5144 24.1957L100.583 22.1304L100.918 22.4637L98.8497 24.5305ZM94.7132 28.6626L94.3779 28.3278L96.4463 26.2625L96.7817 26.5973L94.7132 28.6626Z" fill="#9192FF"/>
<path d="M303.121 46.8514L313.91 57.6302L324.699 46.8514L313.91 36.0725L303.121 46.8514ZM313.91 58.2998L302.45 46.8514L313.91 35.4029L325.369 46.8514L313.91 58.2998Z" fill="#9192FF"/>
<path d="M345.248 232.436V225.341H326.273C326.272 225.339 326.269 225.338 326.267 225.336H349.255V220.57V217.922H331.929C331.931 217.921 331.93 217.919 331.93 217.916H349.255V210.503H334.111C334.135 210.392 334.161 210.28 334.188 210.17L333.724 210.065C333.692 210.21 333.658 210.357 333.623 210.503H319.398C319.339 209.809 319.308 209.108 319.308 208.4C319.308 198.251 325.586 189.566 334.475 186.013C334.596 186.73 334.705 187.453 334.8 188.174L335.269 188.112C335.17 187.354 335.055 186.593 334.927 185.838C337.572 184.841 340.44 184.297 343.434 184.297C356.759 184.297 367.561 195.088 367.561 208.4C367.561 221.102 357.726 231.509 345.248 232.436ZM334.813 203.867C334.685 204.896 334.526 205.943 334.344 206.98L334.812 207.062C334.995 206.018 335.155 204.963 335.285 203.925L334.813 203.867ZM335.288 197.592C335.262 198.63 335.208 199.688 335.13 200.735L335.603 200.77C335.682 199.715 335.736 198.65 335.762 197.604L335.288 197.592ZM335.598 191.266L335.126 191.303C335.207 192.341 335.262 193.399 335.288 194.444L335.762 194.432C335.735 193.377 335.679 192.313 335.598 191.266ZM331.426 217.922H321.264C321.262 217.919 321.262 217.919 321.262 217.916H331.427C331.426 217.919 331.426 217.921 331.426 217.922Z" fill="#646DEE"/>
<path d="M331.929 217.922H331.426C331.426 217.921 331.426 217.919 331.427 217.916H331.93C331.93 217.919 331.93 217.921 331.929 217.922ZM334.111 210.504H333.623C333.658 210.357 333.692 210.21 333.724 210.065L334.187 210.17C334.161 210.28 334.135 210.392 334.111 210.504ZM334.812 207.062L334.344 206.98C334.526 205.943 334.685 204.896 334.813 203.867L335.285 203.926C335.155 204.964 334.995 206.018 334.812 207.062ZM335.603 200.77L335.13 200.735C335.208 199.688 335.262 198.63 335.288 197.592L335.762 197.604C335.736 198.65 335.682 199.716 335.603 200.77ZM335.288 194.445C335.262 193.399 335.207 192.341 335.126 191.303L335.598 191.266C335.679 192.314 335.735 193.378 335.762 194.432L335.288 194.445ZM334.8 188.174C334.705 187.454 334.596 186.731 334.475 186.014C334.625 185.953 334.775 185.895 334.927 185.838C335.055 186.593 335.17 187.354 335.269 188.113L334.8 188.174Z" fill="#B3B3FF"/>
<path d="M85.507 48.3555C72.1824 48.3555 61.3806 37.5644 61.3806 24.2524C61.3806 10.9405 72.1824 0.149368 85.507 0.149368C95.5305 0.149368 104.126 6.25656 107.77 14.9488L106.787 15.9302L107.122 16.265L107.964 15.4257C109.041 18.159 109.633 21.1369 109.633 24.2524C109.633 37.5644 98.8316 48.3555 85.507 48.3555ZM98.8502 38.8286L98.5148 39.1634L100.583 41.2302L100.918 40.8939L98.8502 38.8286ZM94.7137 34.6965L94.3783 35.0313L96.4463 37.0966L96.7817 36.7618L94.7137 34.6965ZM92.31 30.3948L91.0236 31.6789L92.31 32.9645L92.6452 32.6297L91.6949 31.6789L92.6452 30.7295L92.31 30.3948ZM96.4463 26.2627L94.378 28.3279L94.7133 28.6627L96.7817 26.5975L96.4463 26.2627ZM100.583 22.1306L98.5145 24.1959L98.8498 24.5306L100.918 22.4639L100.583 22.1306ZM104.72 17.997L102.651 20.0638L102.986 20.3986L105.055 18.3318L104.72 17.997Z" fill="#646DEE"/>
<path d="M92.31 32.9644L91.0236 31.6787L92.31 30.3946L92.6452 30.7294L91.6948 31.6787L92.6452 32.6296L92.31 32.9644Z" fill="#B3B3FF"/>
<path d="M100.583 41.23L98.5148 39.1632L98.8502 38.8284L100.918 40.8937L100.583 41.23ZM96.4463 37.0964L94.3783 35.0311L94.7137 34.6963L96.7817 36.7616L96.4463 37.0964Z" fill="#B3B3FF"/>
<path d="M107.122 16.2651L106.787 15.9303L107.77 14.9489C107.837 15.1064 107.901 15.2669 107.964 15.4259L107.122 16.2651Z" fill="#B3B3FF"/>
<path d="M94.7132 28.6626L94.3779 28.3278L96.4463 26.2625L96.7817 26.5973L94.7132 28.6626ZM98.8497 24.5305L98.5144 24.1957L100.583 22.1304L100.918 22.4637L98.8497 24.5305ZM102.986 20.3984L102.651 20.0636L104.72 17.9968L105.055 18.3316L102.986 20.3984Z" fill="#B3B3FF"/>
<path d="M242.752 57.0996C241.355 57.0996 240.221 55.9669 240.221 54.5711C240.221 53.1739 241.355 52.0427 242.752 52.0427C244.151 52.0427 245.283 53.1739 245.283 54.5711C245.283 55.9669 244.151 57.0996 242.752 57.0996Z" fill="#E8E8FF"/>
<path d="M345.459 163.817C344.062 163.817 342.928 162.684 342.928 161.288C342.928 159.891 344.062 158.76 345.459 158.76C346.857 158.76 347.99 159.891 347.99 161.288C347.99 162.684 346.857 163.817 345.459 163.817Z" fill="#E8E8FF"/>
<path d="M141.311 27.2852C139.912 27.2852 138.78 26.1539 138.78 24.7567C138.78 23.361 139.912 22.2297 141.311 22.2297C142.708 22.2297 143.842 23.361 143.842 24.7567C143.842 26.1539 142.708 27.2852 141.311 27.2852Z" fill="#E8E8FF"/>
<path d="M37.9709 78.6958C36.5734 78.6958 35.4402 77.563 35.4402 76.1673C35.4402 74.7716 36.5734 73.6389 37.9709 73.6389C39.3687 73.6389 40.5017 74.7716 40.5017 76.1673C40.5017 77.563 39.3687 78.6958 37.9709 78.6958Z" fill="#E8E8FF"/>
<path d="M153.441 239.692H201.525V188.177H153.441V239.692Z" fill="#D1D1FF"/>
<path d="M153.441 217.27H201.525V210.932H153.441V217.27Z" fill="#B6B6E3"/>
<path d="M223.353 247.593H131.613C131.613 240.903 137.042 235.479 143.738 235.479H211.228C217.925 235.479 223.353 240.903 223.353 247.593Z" fill="#D1D1FF"/>
<path d="M188.344 211.353C188.344 217.346 183.481 222.204 177.483 222.204C171.484 222.204 166.622 217.346 166.622 211.353C166.622 205.361 171.484 200.503 177.483 200.503C183.481 200.503 188.344 205.361 188.344 211.353Z" fill="#646DEE"/>
<path d="M68.3468 210.931H286.62V68.5023H68.3468V210.931Z" fill="#D1D1FF"/>
<path d="M165.722 235.796H148.165V235.479H165.722V235.796Z" fill="#1B1B43"/>
<path d="M206.056 235.796H188.498V235.479H206.056V235.796Z" fill="#1B1B43"/>
<mask id="mask0_2354_16293" style="mask-type:luminance" maskUnits="userSpaceOnUse" x="75" y="78" width="205" height="122">
<path d="M75.8141 199.13H279.152V78.8033H75.8141V199.13Z" fill="white"/>
</mask>
<g mask="url(#mask0_2354_16293)">
<path d="M75.8141 199.13H279.152V78.8033H75.8141V199.13Z" fill="#646DEE"/>
<path d="M272.167 199.13H253.652C248.821 196.458 243.317 194.99 237.794 194.99C237.582 194.99 237.369 194.992 237.155 194.996C234.768 187.639 227.115 182.524 219.455 182.524C218.058 182.524 216.663 182.693 215.298 183.051C213.762 176.765 208.767 171.876 202.884 168.996L197.075 140.578C208.071 141.891 220.334 144.217 229.645 148.698C229.6 149.394 229.703 150.098 229.961 150.746C230.639 152.451 232.096 153.758 233.83 154.649C235.655 155.588 237.79 156.066 239.647 156.066C239.75 156.066 239.851 156.065 239.952 156.062C243.373 159.935 245.144 164.719 244.42 170.641C244.919 170.6 245.415 170.578 245.91 170.578C253.955 170.578 261.48 175.975 261.169 181.865C262.436 181.45 263.781 181.261 265.131 181.261C267.813 181.261 270.516 182.011 272.661 183.247C272.243 188.443 272.084 193.795 272.167 199.13ZM245.705 180.882C244.657 180.882 243.806 181.732 243.806 182.779C243.806 183.826 244.657 184.674 245.705 184.674C246.754 184.674 247.603 183.826 247.603 182.779C247.603 181.732 246.754 180.882 245.705 180.882ZM220.607 170.137C218.978 170.137 217.656 171.457 217.656 173.087C217.656 174.717 218.978 176.036 220.607 176.036C222.239 176.036 223.561 174.717 223.561 173.087C223.561 171.457 222.239 170.137 220.607 170.137ZM113.231 199.13H75.8141V181.313C77.4818 180.715 79.3552 180.408 81.2235 180.408C83.4559 180.408 85.6816 180.847 87.539 181.752C86.4477 174.927 90.5631 167.787 98.0276 163.552C102.925 160.773 109.151 159.309 115.365 159.309C118.622 159.309 121.875 159.711 124.929 160.538C122.6 156.398 124.756 151.503 128.724 148.079C136.45 141.412 146.016 137.413 156.248 137.234C156.522 137.23 156.795 137.228 157.067 137.228C158.542 137.228 160.011 137.295 161.474 137.402L158.118 138.839L153.096 167.389C152.474 167.565 151.855 167.755 151.24 167.961C143.172 170.65 135.662 176.438 133.14 184.552C131.446 183.863 129.623 183.528 127.798 183.528C124.113 183.528 120.415 184.885 117.726 187.412C114.57 190.377 112.934 194.827 113.231 199.13ZM115.37 173.087C114.322 173.087 113.473 173.935 113.473 174.983C113.473 176.03 114.322 176.88 115.37 176.88C116.418 176.88 117.269 176.03 117.269 174.983C117.269 173.935 116.418 173.087 115.37 173.087ZM135.089 158.127C133.458 158.127 132.136 159.448 132.136 161.077C132.136 162.707 133.458 164.026 135.089 164.026C136.72 164.026 138.041 162.707 138.041 161.077C138.041 159.448 136.72 158.127 135.089 158.127Z" fill="#8C95FF"/>
<path d="M253.652 199.13H209.044L202.884 168.996C208.767 171.876 213.762 176.765 215.298 183.051C216.663 182.693 218.058 182.524 219.455 182.524C227.115 182.524 234.768 187.639 237.155 194.996C237.369 194.992 237.582 194.99 237.794 194.99C243.317 194.99 248.821 196.458 253.652 199.13ZM147.514 199.13H113.231C112.934 194.827 114.57 190.377 117.726 187.412C120.415 184.885 124.113 183.528 127.798 183.528C129.624 183.528 131.446 183.863 133.14 184.552C135.662 176.438 143.172 170.65 151.24 167.961C151.855 167.755 152.474 167.565 153.096 167.389L147.514 199.13Z" fill="#AAB3FF"/>
<path d="M197.075 140.578C194.266 140.241 191.534 139.971 188.961 139.749L188.249 135.606L196.72 138.839L197.075 140.578Z" fill="#FFF6E9"/>
<path d="M202.883 168.996C201.753 168.443 200.588 167.963 199.408 167.561C197.468 166.9 195.485 166.417 193.478 166.064L188.96 139.749C191.534 139.971 194.266 140.241 197.075 140.578L202.883 168.996Z" fill="#FCF3E9"/>
<path d="M165.953 137.832C164.462 137.665 162.971 137.514 161.474 137.402L176.32 131.054L178.476 131.876L166.337 135.453L165.953 137.832Z" fill="#FFF6E9"/>
<path d="M153.096 167.39L158.118 138.84L161.474 137.403C162.971 137.514 164.462 137.666 165.953 137.832L161.44 165.789C158.617 166.116 155.826 166.618 153.096 167.39ZM163.645 165.566L166.923 161.451L167.186 165.332C166.003 165.39 164.822 165.465 163.645 165.566ZM189.248 165.5C187.259 165.311 185.253 165.214 183.245 165.168L183.42 157.435L189.248 165.5ZM174.17 165.158L175.172 161.954L176.008 165.144C175.396 165.149 174.783 165.153 174.17 165.158Z" fill="#FCF3E9"/>
<path d="M209.044 199.13H147.514L153.096 167.389C155.826 166.617 158.617 166.116 161.44 165.789L160.925 168.982L163.645 165.566C164.822 165.465 166.003 165.39 167.186 165.332L168.423 183.545L174.17 165.158C174.783 165.153 175.396 165.148 176.008 165.144L182.67 190.574L183.245 165.168C185.253 165.214 187.259 165.31 189.248 165.5L194.668 173L193.478 166.064C195.485 166.417 197.468 166.9 199.409 167.561C200.588 167.963 201.753 168.443 202.884 168.996L209.044 199.13Z" fill="#F7EDE9"/>
<path d="M166.337 135.453L160.925 168.982L166.923 161.45L168.423 183.545L175.172 161.953L182.67 190.574L183.42 157.435L194.668 173L187.169 129.314L166.337 135.453Z" fill="#FFA121"/>
<path d="M180.658 169.976L175.478 151.711L170.817 165.491L169.781 151.39L165.639 156.198L169.377 134.799L183.766 130.881L188.945 158.762L181.177 148.826L180.658 169.976Z" fill="#FFC77A"/>
<path d="M114.043 149.737C113.465 149.737 112.882 149.667 112.308 149.548C110.316 149.135 108.424 148.129 107.177 147.382C106.705 147.097 106.212 146.707 106.235 146.038C106.253 145.501 106.602 144.951 106.963 144.479C109.225 141.517 112.792 139.347 115.817 139.347C115.944 139.347 116.069 139.35 116.195 139.357C119.466 139.561 121.541 142.86 119.082 146.839C117.745 149.004 115.918 149.737 114.043 149.737Z" fill="#E8E8FF"/>
<path d="M239.952 156.062C237.349 153.113 233.788 150.693 229.645 148.698C229.708 147.683 230.081 146.684 230.733 145.902C231.735 144.699 233.195 144.176 234.687 144.176C235.894 144.176 237.121 144.518 238.146 145.118C240.956 146.759 243.132 149.908 243.214 153.212C243.23 153.834 243.164 154.492 242.806 155.001C242.284 155.742 241.294 155.973 240.39 156.039C240.246 156.049 240.1 156.057 239.952 156.062Z" fill="#E8E8FF"/>
<path d="M239.648 156.066C237.79 156.066 235.655 155.588 233.83 154.649C232.096 153.758 230.639 152.451 229.962 150.747C229.703 150.098 229.6 149.394 229.645 148.698C233.788 150.693 237.349 153.113 239.952 156.062C239.851 156.065 239.75 156.066 239.648 156.066Z" fill="#E3E3FF"/>
<path d="M135.089 164.026C133.458 164.026 132.136 162.707 132.136 161.077C132.136 159.448 133.458 158.127 135.089 158.127C136.721 158.127 138.041 159.448 138.041 161.077C138.041 162.707 136.721 164.026 135.089 164.026Z" fill="#E3E3FF"/>
<path d="M220.608 176.036C218.978 176.036 217.656 174.716 217.656 173.087C217.656 171.457 218.978 170.136 220.608 170.136C222.239 170.136 223.561 171.457 223.561 173.087C223.561 174.716 222.239 176.036 220.608 176.036Z" fill="#E3E3FF"/>
<path d="M245.705 184.674C244.657 184.674 243.807 183.826 243.807 182.779C243.807 181.732 244.657 180.882 245.705 180.882C246.754 180.882 247.603 181.732 247.603 182.779C247.603 183.826 246.754 184.674 245.705 184.674Z" fill="#E3E3FF"/>
<path d="M115.37 176.879C114.322 176.879 113.473 176.029 113.473 174.982C113.473 173.935 114.322 173.087 115.37 173.087C116.418 173.087 117.269 173.935 117.269 174.982C117.269 176.029 116.418 176.879 115.37 176.879Z" fill="#E3E3FF"/>
</g>
<path d="M224.636 101.113C223.645 103.566 221.498 105.367 218.907 105.917L194.163 111.167L193.907 96.0986L224.636 101.113Z" fill="#D1D1FF"/>
<path d="M224.636 101.112H197.63V62.641C208.735 94.0558 224.636 87.4151 224.636 101.112Z" fill="#3335CF"/>
<path d="M130.329 101.113C131.32 103.566 133.467 105.367 136.058 105.917L160.802 111.167L161.058 96.0986L130.329 101.113Z" fill="#D1D1FF"/>
<path d="M130.329 101.112H157.335V62.641C146.23 94.0558 130.329 87.4151 130.329 101.112Z" fill="#3335CF"/>
<path d="M195.669 118.823C204.931 92.3454 202.576 63.0616 188.676 38.6926C188.42 38.2462 188.162 37.8013 187.9 37.358H177.425H177.414H166.937C166.675 37.8013 166.416 38.2462 166.162 38.6926C152.262 63.0616 149.907 92.3454 159.17 118.823L161.863 126.524L158.118 138.839H166.17H177.414H177.425H188.667H196.72L192.974 126.524L195.669 118.823Z" fill="#C5C5FF"/>
<path d="M166.937 37.355H187.9L177.418 20.2458L166.937 37.355Z" fill="#2F2F57"/>
<path d="M161.864 126.539L192.965 126.523L196.72 138.839H158.118L161.864 126.539Z" fill="#3335CF"/>
<path d="M177.418 146.923C176.118 146.923 175.062 145.87 175.062 144.569V104.238C175.062 102.938 176.118 101.884 177.418 101.884C178.721 101.884 179.775 102.938 179.775 104.238V144.569C179.775 145.87 178.721 146.923 177.418 146.923Z" fill="#1B1B43"/>
<path d="M188.252 61.7159C188.252 67.6916 183.401 72.5376 177.418 72.5376C171.435 72.5376 166.586 67.6916 166.586 61.7159C166.586 55.7387 171.435 50.8927 177.418 50.8927C183.401 50.8927 188.252 55.7387 188.252 61.7159Z" fill="white"/>
<path d="M185.089 61.7161C185.089 65.9475 181.655 69.3779 177.418 69.3779C173.183 69.3779 169.748 65.9475 169.748 61.7161C169.748 57.4831 173.183 54.0527 177.418 54.0527C181.655 54.0527 185.089 57.4831 185.089 61.7161Z" fill="#3335CF"/>
<path d="M176.205 59.1938C176.205 59.9689 175.574 60.5972 174.799 60.5972C174.021 60.5972 173.392 59.9689 173.392 59.1938C173.392 58.4172 174.021 57.7889 174.799 57.7889C175.574 57.7889 176.205 58.4172 176.205 59.1938Z" fill="white"/>
<path d="M176.734 79.68L176.652 79.0532C177.094 78.9967 177.549 78.989 177.986 79.0303L177.925 79.6601C177.536 79.6235 177.129 79.6296 176.734 79.68ZM180.165 80.4169C179.825 80.2074 179.464 80.0362 179.088 79.9093L179.291 79.3101C179.714 79.4522 180.119 79.6449 180.499 79.8803L180.165 80.4169ZM174.523 80.5147L174.171 79.9888C174.542 79.7412 174.941 79.5348 175.357 79.3789L175.581 79.9689C175.209 80.1096 174.854 80.293 174.523 80.5147ZM181.838 82.0862C181.628 81.7499 181.379 81.4365 181.097 81.1552L181.544 80.7088C181.859 81.0237 182.139 81.3753 182.375 81.7514L181.838 82.0862ZM172.908 82.2391L172.36 81.9226C172.583 81.5374 172.849 81.1781 173.155 80.8525L173.616 81.2836C173.345 81.5741 173.106 81.8951 172.908 82.2391ZM182.6 84.3227C182.561 83.9252 182.477 83.5354 182.349 83.1593L182.947 82.956C183.091 83.3779 183.186 83.8152 183.23 84.26L182.6 84.3227ZM172.224 84.5L171.592 84.4587C171.621 84.0139 171.7 83.5721 171.829 83.1471L172.435 83.3306C172.32 83.7097 172.25 84.1026 172.224 84.5ZM183.108 86.1617L182.491 86.0195C182.58 85.6328 182.626 85.2353 182.626 84.8378H183.258C183.258 85.2827 183.207 85.7291 183.108 86.1617ZM172.025 87.0728C171.853 86.6616 171.729 86.2305 171.657 85.7902L172.282 85.6878C172.346 86.0792 172.456 86.4644 172.609 86.8298L172.025 87.0728ZM181.932 88.5388L181.444 88.1368C181.697 87.8311 181.914 87.4947 182.089 87.1385L182.656 87.4183C182.459 87.8173 182.216 88.1949 181.932 88.5388ZM173.57 89.2252C173.235 88.9317 172.934 88.5985 172.673 88.2377L173.188 87.8693C173.42 88.1918 173.689 88.4869 173.988 88.7483L173.57 89.2252ZM179.83 90.1516L179.568 89.5753C179.929 89.4117 180.272 89.2069 180.589 88.9638L180.973 89.4652C180.62 89.7373 180.235 89.9682 179.83 90.1516ZM175.91 90.4742C175.478 90.3595 175.06 90.1944 174.667 89.9835L174.966 89.427C175.316 89.6135 175.689 89.7603 176.072 89.8627L175.91 90.4742ZM177.418 90.6714C177.356 90.6714 177.291 90.6699 177.229 90.6683L177.25 90.0354L177.418 90.0385C177.761 90.0385 178.104 90.0049 178.436 89.9391L178.56 90.5598C178.187 90.6332 177.803 90.6714 177.418 90.6714Z" fill="#1B1B43"/>
<path d="M302.948 217.916H349.255V210.503H302.948V217.916Z" fill="#D1D1FF"/>
<path d="M346.228 216.745C345.956 216.745 345.733 216.523 345.733 216.25V212.17C345.733 211.898 345.956 211.674 346.228 211.674C346.501 211.674 346.724 211.898 346.724 212.17V216.25C346.724 216.523 346.501 216.745 346.228 216.745Z" fill="#9293EC"/>
<path d="M338.004 216.745C337.731 216.745 337.508 216.523 337.508 216.25V212.17C337.508 211.898 337.731 211.674 338.004 211.674C338.276 211.674 338.5 211.898 338.5 212.17V216.25C338.5 216.523 338.276 216.745 338.004 216.745Z" fill="#9293EC"/>
<path d="M329.779 216.745C329.507 216.745 329.283 216.523 329.283 216.25V212.17C329.283 211.898 329.507 211.674 329.779 211.674C330.051 211.674 330.275 211.898 330.275 212.17V216.25C330.275 216.523 330.051 216.745 329.779 216.745Z" fill="#9293EC"/>
<path d="M321.554 216.745C321.28 216.745 321.059 216.523 321.059 216.25V212.17C321.059 211.898 321.28 211.674 321.554 211.674C321.827 211.674 322.05 211.898 322.05 212.17V216.25C322.05 216.523 321.827 216.745 321.554 216.745Z" fill="#9293EC"/>
<path d="M313.328 216.745C313.056 216.745 312.833 216.523 312.833 216.25V212.17C312.833 211.898 313.056 211.674 313.328 211.674C313.602 211.674 313.824 211.898 313.824 212.17V216.25C313.824 216.523 313.602 216.745 313.328 216.745Z" fill="#9293EC"/>
<path d="M305.974 216.745C305.702 216.745 305.479 216.523 305.479 216.25V212.17C305.479 211.898 305.702 211.674 305.974 211.674C306.247 211.674 306.47 211.898 306.47 212.17V216.25C306.47 216.523 306.247 216.745 305.974 216.745Z" fill="#9293EC"/>
<path d="M302.948 225.336H349.255V217.922H302.948V225.336Z" fill="#D1D1FF"/>
<path d="M346.228 224.166C345.956 224.166 345.733 223.942 345.733 223.67V220.57H346.724V223.67C346.724 223.942 346.501 224.166 346.228 224.166Z" fill="#9293EC"/>
<path d="M338.004 224.166C337.731 224.166 337.508 223.942 337.508 223.67V220.57H338.5V223.67C338.5 223.942 338.276 224.166 338.004 224.166Z" fill="#9293EC"/>
<path d="M329.779 224.166C329.507 224.166 329.283 223.942 329.283 223.67V220.57H330.275V223.67C330.275 223.942 330.051 224.166 329.779 224.166Z" fill="#9293EC"/>
<path d="M321.554 224.166C321.28 224.166 321.059 223.942 321.059 223.67V220.57H322.05V223.67C322.05 223.942 321.827 224.166 321.554 224.166Z" fill="#9293EC"/>
<path d="M313.328 224.166C313.056 224.166 312.833 223.942 312.833 223.67V220.57H313.824V223.67C313.824 223.942 313.602 224.166 313.328 224.166Z" fill="#9293EC"/>
<path d="M305.974 224.166C305.702 224.166 305.479 223.942 305.479 223.67V220.57H306.47V223.67C306.47 223.942 306.247 224.166 305.974 224.166Z" fill="#9293EC"/>
<path d="M349.255 220.57H346.724V219.588C346.724 219.316 346.501 219.093 346.228 219.093C345.956 219.093 345.733 219.316 345.733 219.588V220.57H338.5V219.588C338.5 219.316 338.276 219.093 338.004 219.093C337.731 219.093 337.508 219.316 337.508 219.588V220.57H330.275V219.588C330.275 219.316 330.051 219.093 329.779 219.093C329.507 219.093 329.283 219.316 329.283 219.588V220.57H322.05V219.588C322.05 219.316 321.827 219.093 321.554 219.093C321.28 219.093 321.059 219.316 321.059 219.588V220.57H313.824V219.588C313.824 219.316 313.602 219.093 313.328 219.093C313.056 219.093 312.832 219.316 312.832 219.588V220.57H306.47V219.588C306.47 219.316 306.247 219.093 305.974 219.093C305.702 219.093 305.478 219.316 305.478 219.588V220.57H302.948V217.922H349.255V220.57Z" fill="#B6B6E3"/>
<path d="M346.724 220.57H345.733V219.588C345.733 219.316 345.956 219.093 346.228 219.093C346.501 219.093 346.724 219.316 346.724 219.588V220.57Z" fill="#8081D3"/>
<path d="M338.5 220.57H337.508V219.588C337.508 219.316 337.731 219.093 338.004 219.093C338.276 219.093 338.5 219.316 338.5 219.588V220.57Z" fill="#8081D3"/>
<path d="M330.275 220.57H329.283V219.588C329.283 219.316 329.507 219.093 329.779 219.093C330.051 219.093 330.275 219.316 330.275 219.588V220.57Z" fill="#8081D3"/>
<path d="M322.05 220.57H321.059V219.588C321.059 219.316 321.28 219.093 321.554 219.093C321.827 219.093 322.05 219.316 322.05 219.588V220.57Z" fill="#8081D3"/>
<path d="M313.824 220.57H312.833V219.588C312.833 219.316 313.056 219.093 313.328 219.093C313.602 219.093 313.824 219.316 313.824 219.588V220.57Z" fill="#8081D3"/>
<path d="M306.47 220.57H305.479V219.588C305.479 219.316 305.702 219.093 305.974 219.093C306.247 219.093 306.47 219.316 306.47 219.588V220.57Z" fill="#8081D3"/>
<path d="M298.94 232.755H345.248V225.341H298.94V232.755Z" fill="#D1D1FF"/>
<path d="M342.222 231.584C341.949 231.584 341.727 231.361 341.727 231.089V227.007C341.727 226.735 341.949 226.512 342.222 226.512C342.495 226.512 342.717 226.735 342.717 227.007V231.089C342.717 231.361 342.495 231.584 342.222 231.584Z" fill="#9293EC"/>
<path d="M333.996 231.584C333.724 231.584 333.5 231.361 333.5 231.089V227.007C333.5 226.735 333.724 226.512 333.996 226.512C334.27 226.512 334.492 226.735 334.492 227.007V231.089C334.492 231.361 334.27 231.584 333.996 231.584Z" fill="#9293EC"/>
<path d="M325.772 231.584C325.499 231.584 325.276 231.361 325.276 231.089V227.007C325.276 226.735 325.499 226.512 325.772 226.512C326.044 226.512 326.267 226.735 326.267 227.007V231.089C326.267 231.361 326.044 231.584 325.772 231.584Z" fill="#9293EC"/>
<path d="M317.547 231.584C317.275 231.584 317.051 231.361 317.051 231.089V227.007C317.051 226.735 317.275 226.512 317.547 226.512C317.819 226.512 318.043 226.735 318.043 227.007V231.089C318.043 231.361 317.819 231.584 317.547 231.584Z" fill="#9293EC"/>
<path d="M309.322 231.584C309.048 231.584 308.827 231.361 308.827 231.089V227.007C308.827 226.735 309.048 226.512 309.322 226.512C309.595 226.512 309.818 226.735 309.818 227.007V231.089C309.818 231.361 309.595 231.584 309.322 231.584Z" fill="#9293EC"/>
<path d="M301.967 231.584C301.694 231.584 301.471 231.361 301.471 231.089V227.007C301.471 226.735 301.694 226.512 301.967 226.512C302.239 226.512 302.462 226.735 302.462 227.007V231.089C302.462 231.361 302.239 231.584 301.967 231.584Z" fill="#9293EC"/>
<path d="M298.94 240.174H345.248V232.76H298.94V240.174Z" fill="#D1D1FF"/>
<path d="M342.222 239.003C341.949 239.003 341.727 238.78 341.727 238.508V235.809H342.717V238.508C342.717 238.78 342.495 239.003 342.222 239.003Z" fill="#9293EC"/>
<path d="M333.996 239.003C333.724 239.003 333.5 238.78 333.5 238.508V235.809H334.492V238.508C334.492 238.78 334.27 239.003 333.996 239.003Z" fill="#9293EC"/>
<path d="M325.772 239.003C325.499 239.003 325.276 238.78 325.276 238.508V235.809H326.267V238.508C326.267 238.78 326.044 239.003 325.772 239.003Z" fill="#9293EC"/>
<path d="M317.547 239.003C317.275 239.003 317.051 238.78 317.051 238.508V235.809H318.043V238.508C318.043 238.78 317.819 239.003 317.547 239.003Z" fill="#9293EC"/>
<path d="M309.322 239.003C309.048 239.003 308.827 238.78 308.827 238.508V235.809H309.818V238.508C309.818 238.78 309.595 239.003 309.322 239.003Z" fill="#9293EC"/>
<path d="M301.967 239.003C301.694 239.003 301.471 238.78 301.471 238.508V235.809H302.462V238.508C302.462 238.78 302.239 239.003 301.967 239.003Z" fill="#9293EC"/>
<path d="M345.248 235.81H342.717V234.426C342.717 234.154 342.495 233.931 342.222 233.931C341.949 233.931 341.727 234.154 341.727 234.426V235.81H334.492V234.426C334.492 234.154 334.27 233.931 333.996 233.931C333.724 233.931 333.501 234.154 333.501 234.426V235.81H326.267V234.426C326.267 234.154 326.044 233.931 325.772 233.931C325.499 233.931 325.276 234.154 325.276 234.426V235.81H318.043V234.426C318.043 234.154 317.819 233.931 317.547 233.931C317.275 233.931 317.051 234.154 317.051 234.426V235.81H309.818V234.426C309.818 234.154 309.595 233.931 309.322 233.931C309.048 233.931 308.826 234.154 308.826 234.426V235.81H302.463V234.426C302.463 234.154 302.239 233.931 301.967 233.931C301.694 233.931 301.471 234.154 301.471 234.426V235.81H298.94V232.76H345.248V235.81Z" fill="#B6B6E3"/>
<path d="M342.717 235.81H341.727V234.426C341.727 234.154 341.949 233.931 342.222 233.931C342.495 233.931 342.717 234.154 342.717 234.426V235.81Z" fill="#8081D3"/>
<path d="M334.492 235.81H333.5V234.426C333.5 234.154 333.724 233.931 333.996 233.931C334.27 233.931 334.492 234.154 334.492 234.426V235.81Z" fill="#8081D3"/>
<path d="M326.267 235.81H325.276V234.426C325.276 234.154 325.499 233.931 325.772 233.931C326.044 233.931 326.267 234.154 326.267 234.426V235.81Z" fill="#8081D3"/>
<path d="M318.043 235.81H317.051V234.426C317.051 234.154 317.275 233.931 317.547 233.931C317.819 233.931 318.043 234.154 318.043 234.426V235.81Z" fill="#8081D3"/>
<path d="M309.818 235.81H308.827V234.426C308.827 234.154 309.048 233.931 309.322 233.931C309.595 233.931 309.818 234.154 309.818 234.426V235.81Z" fill="#8081D3"/>
<path d="M302.462 235.81H301.471V234.426C301.471 234.154 301.694 233.931 301.967 233.931C302.239 233.931 302.462 234.154 302.462 234.426V235.81Z" fill="#8081D3"/>
<path d="M302.525 247.593H348.834V240.179H302.525V247.593Z" fill="#D1D1FF"/>
<path d="M345.808 246.422C345.534 246.422 345.312 246.199 345.312 245.927V241.846C345.312 241.573 345.534 241.351 345.808 241.351C346.08 241.351 346.302 241.573 346.302 241.846V245.927C346.302 246.199 346.08 246.422 345.808 246.422Z" fill="#9293EC"/>
<path d="M337.581 246.422C337.309 246.422 337.086 246.199 337.086 245.927V241.846C337.086 241.573 337.309 241.351 337.581 241.351C337.854 241.351 338.077 241.573 338.077 241.846V245.927C338.077 246.199 337.854 246.422 337.581 246.422Z" fill="#9293EC"/>
<path d="M329.357 246.422C329.084 246.422 328.861 246.199 328.861 245.927V241.846C328.861 241.573 329.084 241.351 329.357 241.351C329.629 241.351 329.853 241.573 329.853 241.846V245.927C329.853 246.199 329.629 246.422 329.357 246.422Z" fill="#9293EC"/>
<path d="M321.132 246.422C320.86 246.422 320.636 246.199 320.636 245.927V241.846C320.636 241.573 320.86 241.351 321.132 241.351C321.405 241.351 321.628 241.573 321.628 241.846V245.927C321.628 246.199 321.405 246.422 321.132 246.422Z" fill="#9293EC"/>
<path d="M312.907 246.422C312.635 246.422 312.412 246.199 312.412 245.927V241.846C312.412 241.573 312.635 241.351 312.907 241.351C313.18 241.351 313.403 241.573 313.403 241.846V245.927C313.403 246.199 313.18 246.422 312.907 246.422Z" fill="#9293EC"/>
<path d="M305.552 246.422C305.28 246.422 305.056 246.199 305.056 245.927V241.846C305.056 241.573 305.28 241.351 305.552 241.351C305.824 241.351 306.048 241.573 306.048 241.846V245.927C306.048 246.199 305.824 246.422 305.552 246.422Z" fill="#9293EC"/>
<path d="M261.627 123.257C261.627 123.257 262.88 117.107 261.772 117.304C260.666 117.503 260.546 119.122 260.546 119.122C260.546 119.122 260.072 113.354 258.886 113.671C257.699 113.987 258.53 118.569 258.53 118.569C257.501 118.174 255.722 118.411 254.931 120.307C253.892 120.657 253.558 121.783 253.864 122.835L255.511 126.839L258.253 128.406L261.627 123.257Z" fill="#FFBC96"/>
<path d="M281.135 125.68C277.392 127.102 274.861 129.156 269.008 134.056L261.627 123.257L255.511 126.839L263.613 141.78C265.175 144.664 268.826 145.665 271.643 143.985L281.135 138.322V125.68Z" fill="#FFA121"/>
<path d="M256.308 123.459C255.987 123.459 255.469 123.199 254.683 122.65L254.865 122.39C256.164 123.298 256.366 123.13 256.368 123.13C256.495 123.006 256.117 122.138 255.59 121.343L255.855 121.169C256.205 121.699 256.98 122.974 256.588 123.357C256.518 123.424 256.426 123.459 256.308 123.459Z" fill="#D28572"/>
<path d="M257.408 122.776C256.746 122.776 255.798 121.524 255.595 121.244L255.85 121.058C256.355 121.753 257.206 122.618 257.482 122.44C257.504 122.426 257.537 122.398 257.553 122.325C257.635 121.944 257.168 121.036 256.856 120.552L257.114 120.371C257.504 120.891 258.253 121.713 258.608 121.713C258.649 121.71 258.68 121.7 258.706 121.663C259.004 121.255 258.4 120.247 258.166 119.928L258.42 119.74C258.527 119.887 259.449 121.183 258.961 121.849C258.876 121.967 258.753 122.028 258.611 122.03H258.608C258.343 122.03 258.016 121.802 257.714 121.524C257.835 121.839 257.913 122.157 257.863 122.391C257.832 122.528 257.76 122.637 257.653 122.706C257.578 122.754 257.495 122.776 257.408 122.776Z" fill="#D28572"/>
<path d="M268.693 247.252L279.66 242.615L282.4 247.041L283.727 237.685C280.61 239.11 276.782 240.22 273.55 240.734L268.693 247.252Z" fill="#1B1B43"/>
<path d="M275.652 196.263C275.652 196.895 276.073 237.349 276.073 237.349L273.55 240.733C276.782 240.22 280.61 239.11 283.727 237.685L289.782 194.999L275.652 196.263Z" fill="#FFBC96"/>
<path d="M313.171 231.401C311.416 234.588 307.636 238.581 304.482 240.082L303.094 247.119C307.445 246.882 308.729 242.884 310.984 238.069L315.321 240.95C314.626 237.726 313.914 234.542 313.171 231.401Z" fill="#1B1B43"/>
<path d="M313.171 231.401C309.728 216.863 305.546 203.263 298.587 191.18L288.024 197.59C288.287 198.165 305.529 234.77 305.529 234.77L304.482 240.082C307.636 238.581 311.416 234.588 313.171 231.401Z" fill="#FFBC96"/>
<path d="M309.344 199.483H272.173C271.919 184.907 273.457 170.179 277.183 158.783C277.703 157.196 278.258 155.673 278.866 154.226L299.802 156.994C299.961 157.411 300.112 157.835 300.258 158.258C304.775 170.76 307.723 184.572 309.344 199.483Z" fill="#3335CF"/>
<path d="M284.475 159.038C281.903 159.038 279.466 158.957 277.182 158.783C277.703 157.196 278.258 155.673 278.866 154.226L299.802 156.994C299.961 157.412 300.112 157.835 300.257 158.258C294.597 158.752 289.297 159.038 284.475 159.038Z" fill="#25257B"/>
<path d="M301.137 144.364C300.346 151.102 299.694 156.962 299.795 157.171C299.303 157.026 284.812 155.932 278.671 155.471C277.141 155.358 275.958 154.088 275.949 152.553L275.848 132.931C275.665 129.783 277.632 126.918 280.625 125.914C282.84 125.168 285.187 124.694 287.673 124.492L297.398 125.781C299.492 126.059 301.44 126.811 303.117 127.93C302.617 131.981 301.826 138.506 301.137 144.364Z" fill="#FFA121"/>
<path d="M299.808 157.339H299.74L299.687 157.292L299.802 157.171V157.014L299.805 157.167L299.912 157.055L299.918 157.061L299.805 157.174L299.808 157.339Z" fill="#102048"/>
<path d="M319.089 162.692L318.864 179.926L295.398 172.301L295.624 155.067L319.089 162.692Z" fill="#EBEBFF"/>
<path d="M305.625 161.314L305.507 172.326L299.78 170.465L299.932 159.26L305.625 161.314Z" fill="#C5C5FF"/>
<path d="M308.831 136.292C308.064 132.792 305.977 129.834 303.117 127.93C302.617 131.981 301.826 138.506 301.137 144.364L306.181 167.782L313.581 168.93L308.831 136.292Z" fill="#FFA121"/>
<path d="M313.581 168.931L306.181 167.782L308.028 176.355C309.16 177.114 310.779 177.67 312.678 178.106C313.79 178.364 314.816 177.41 314.652 176.279L313.581 168.931Z" fill="#FFBC96"/>
<path d="M307.076 171.086C307.076 171.086 305.69 176.846 306.179 177.196C307.656 178.249 309.133 172.929 309.133 172.929L307.076 171.086Z" fill="#FFBC96"/>
<path d="M293.014 117.855V125.106C293.014 127.388 291.159 129.239 288.876 129.239C286.592 129.239 284.737 127.388 284.737 125.106V117.855H293.014Z" fill="#FFBC96"/>
<path d="M291.47 119.833C290.451 122.64 287.357 124.89 284.737 125.105V119.77L291.47 119.833Z" fill="#1B1B43"/>
<path d="M299.3 104.012C299.3 106.619 297.183 108.733 294.573 108.733C291.964 108.733 289.848 106.619 289.848 104.012C289.848 101.404 291.964 99.2901 294.573 99.2901C297.183 99.2901 299.3 101.404 299.3 104.012Z" fill="#1B1B43"/>
<path d="M296.056 110.985C295.866 114.765 291.998 117.621 287.673 117.621C283.349 117.621 279.489 114.573 279.489 110.788C279.489 107.001 284.14 103.045 288.465 103.045C292.789 103.045 296.294 106.283 296.056 110.985Z" fill="#1B1B43"/>
<path d="M293.666 115.181C293.666 115.296 293.666 115.409 293.652 115.524C293.607 116.439 293.381 117.305 293.014 118.095C293 118.139 292.982 118.177 292.963 118.216C292.501 119.17 291.849 120.01 291.07 120.712C289.597 122.053 287.686 122.849 285.927 122.849C285.504 122.849 285.104 122.805 284.737 122.71C283.326 122.375 282.303 121.408 281.651 120.036C281.233 119.176 280.967 118.153 280.827 117.02C280.759 116.433 280.72 115.82 280.72 115.181C280.72 114.909 280.733 114.645 280.752 114.379C280.815 113.665 280.948 112.975 281.156 112.33C282.093 109.372 284.44 107.275 287.193 107.275C290.4 107.275 293.064 110.124 293.571 113.866C293.614 114.132 293.64 114.397 293.652 114.675C293.658 114.84 293.666 115.01 293.666 115.181Z" fill="#FFBC96"/>
<path d="M293.17 115.528C291.272 114.816 288.022 112.965 287.516 110.669C283.663 110.43 282.93 110.82 280.635 112.763L281.188 109.167L287.08 105.494L292.576 107.153L294.949 112.367L293.17 115.528Z" fill="#1B1B43"/>
<path d="M294.948 116.676C294.527 117.829 293.393 118.474 292.414 118.118C291.436 117.76 290.985 116.537 291.405 115.384C291.828 114.232 292.962 113.587 293.939 113.943C294.919 114.301 295.37 115.524 294.948 116.676Z" fill="#FFBC96"/>
<path d="M292.963 117.074C292.858 116.727 292.836 116.352 292.914 115.978C292.96 115.794 293.038 115.609 293.161 115.453C293.286 115.299 293.451 115.178 293.636 115.128L293.695 115.236C293.439 115.467 293.289 115.732 293.219 116.051C293.135 116.366 293.13 116.71 293.086 117.063L292.963 117.074Z" fill="#1B1B43"/>
<path d="M282.374 116.064C282.374 116.347 282.194 116.578 281.97 116.578C281.747 116.578 281.565 116.347 281.565 116.064C281.565 115.78 281.747 115.551 281.97 115.551C282.194 115.551 282.374 115.78 282.374 116.064Z" fill="#1B1B43"/>
<path d="M286.071 115.577C286.071 115.91 285.86 116.179 285.597 116.179C285.335 116.179 285.123 115.91 285.123 115.577C285.123 115.244 285.335 114.975 285.597 114.975C285.86 114.975 286.071 115.244 286.071 115.577Z" fill="#1B1B43"/>
<path d="M283.444 116.497C283.475 116.73 283.442 116.971 283.372 117.196C283.312 117.425 283.162 117.635 283.121 117.801C283.101 117.888 283.101 117.927 283.138 117.976C283.179 118.026 283.265 118.076 283.349 118.11C283.528 118.18 283.749 118.191 283.97 118.211L283.983 118.333C283.761 118.396 283.524 118.43 283.27 118.375C283.141 118.344 283.022 118.284 282.91 118.173C282.792 118.052 282.771 117.841 282.82 117.716C282.915 117.456 283.039 117.298 283.123 117.101C283.211 116.91 283.276 116.708 283.322 116.493L283.444 116.497Z" fill="#D28572"/>
<path d="M283.698 119.815C284.209 119.903 284.726 119.914 285.152 119.688C285.589 119.482 285.883 119.064 286.133 118.609L286.249 118.65C286.152 119.179 285.817 119.706 285.291 119.969C284.763 120.226 284.143 120.171 283.66 119.933L283.698 119.815Z" fill="#1B1B43"/>
<path d="M282.448 114.392C282.537 114.628 282.12 114.852 281.655 115.01C281.19 115.167 280.844 115.202 280.763 114.962C280.682 114.724 281.014 114.458 281.458 114.244C281.925 114.019 282.231 113.814 282.448 114.392Z" fill="#1B1B43"/>
<path d="M284.445 114.021C284.425 114.279 285.094 114.38 285.802 114.403C286.509 114.424 287 114.359 287.009 114.1C287.017 113.842 286.445 113.677 285.741 113.593C285.002 113.506 284.492 113.392 284.445 114.021Z" fill="#1B1B43"/>
<path d="M288.888 118.882C287.927 118.882 287.15 118.104 287.15 117.146C287.15 116.187 287.927 115.409 288.888 115.409C289.848 115.409 290.625 116.187 290.625 117.146C290.625 118.104 289.848 118.882 288.888 118.882Z" fill="#FFA988"/>
<path d="M281.651 120.036C281.233 119.175 280.967 118.153 280.827 117.02C281.637 117.173 282.244 117.875 282.244 118.728C282.244 119.246 282.016 119.714 281.651 120.036Z" fill="#FFA988"/>
<path d="M276.232 144.118L275.916 144.115L276.021 135.16L276.338 135.163L276.232 144.118Z" fill="#1B1B43"/>
<path d="M301.137 144.364L300.117 140.746C299.275 143.936 299.439 146.39 300.743 147.665L301.137 144.364Z" fill="#1B1B43"/>
<path d="M288.826 132.298C288.644 132.298 288.461 132.29 288.278 132.273C286.457 132.122 284.879 131.199 284.16 129.863L284.439 129.714C285.107 130.956 286.589 131.815 288.304 131.96C290.419 132.134 292.406 131.232 293.77 129.48L294.021 129.675C292.708 131.361 290.838 132.298 288.826 132.298Z" fill="#1B1B43"/>
<path d="M22.7778 217.916H69.0862V210.503H22.7778V217.916Z" fill="#D1D1FF"/>
<path d="M25.8046 216.745C25.5321 216.745 25.309 216.523 25.309 216.25V215.183L26.3004 213.526V216.25C26.3004 216.523 26.0773 216.745 25.8046 216.745Z" fill="#9293EC"/>
<path d="M34.0296 216.745C33.757 216.745 33.5339 216.523 33.5339 216.25V212.17C33.5339 211.898 33.757 211.674 34.0296 211.674C34.3022 211.674 34.5253 211.898 34.5253 212.17V216.25C34.5253 216.523 34.3022 216.745 34.0296 216.745Z" fill="#9293EC"/>
<path d="M42.2545 216.745C41.9819 216.745 41.7589 216.523 41.7589 216.25V212.17C41.7589 211.898 41.9819 211.674 42.2545 211.674C42.5272 211.674 42.7503 211.898 42.7503 212.17V216.25C42.7503 216.523 42.5272 216.745 42.2545 216.745Z" fill="#9293EC"/>
<path d="M50.4797 216.745C50.2068 216.745 49.9839 216.523 49.9839 216.25V212.17C49.9839 211.898 50.2068 211.674 50.4797 211.674C50.7523 211.674 50.9753 211.898 50.9753 212.17V216.25C50.9753 216.523 50.7523 216.745 50.4797 216.745Z" fill="#9293EC"/>
<path d="M58.7045 216.745C58.432 216.745 58.2089 216.523 58.2089 216.25V212.17C58.2089 211.898 58.432 211.674 58.7045 211.674C58.9773 211.674 59.2003 211.898 59.2003 212.17V216.25C59.2003 216.523 58.9773 216.745 58.7045 216.745Z" fill="#9293EC"/>
<path d="M66.0597 216.745C65.7869 216.745 65.564 216.523 65.564 216.25V212.17C65.564 211.898 65.7869 211.674 66.0597 211.674C66.3323 211.674 66.5554 211.898 66.5554 212.17V216.25C66.5554 216.523 66.3323 216.745 66.0597 216.745Z" fill="#9293EC"/>
<path d="M22.7778 225.336H69.0862V217.922H22.7778V225.336Z" fill="#D1D1FF"/>
<path d="M25.8046 224.166C25.5321 224.166 25.309 223.942 25.309 223.67V220.57H26.3004V223.67C26.3004 223.942 26.0773 224.166 25.8046 224.166Z" fill="#9293EC"/>
<path d="M34.0296 224.166C33.757 224.166 33.5339 223.942 33.5339 223.67V220.57H34.5253V223.67C34.5253 223.942 34.3022 224.166 34.0296 224.166Z" fill="#9293EC"/>
<path d="M42.2545 224.166C41.9819 224.166 41.7589 223.942 41.7589 223.67V220.57H42.7503V223.67C42.7503 223.942 42.5272 224.166 42.2545 224.166Z" fill="#9293EC"/>
<path d="M50.4797 224.166C50.2068 224.166 49.9839 223.942 49.9839 223.67V220.57H50.9753V223.67C50.9753 223.942 50.7523 224.166 50.4797 224.166Z" fill="#9293EC"/>
<path d="M58.7045 224.166C58.432 224.166 58.2089 223.942 58.2089 223.67V220.57H59.2003V223.67C59.2003 223.942 58.9773 224.166 58.7045 224.166Z" fill="#9293EC"/>
<path d="M66.0597 224.166C65.7869 224.166 65.564 223.942 65.564 223.67V220.57H66.5554V223.67C66.5554 223.942 66.3323 224.166 66.0597 224.166Z" fill="#9293EC"/>
<path d="M69.0862 220.57H66.5553V219.588C66.5553 219.316 66.3322 219.093 66.0597 219.093C65.7868 219.093 65.5639 219.316 65.5639 219.588V220.57H59.2002V219.588C59.2002 219.316 58.9773 219.093 58.7044 219.093C58.4319 219.093 58.2088 219.316 58.2088 219.588V220.57H50.9752V219.588C50.9752 219.316 50.7523 219.093 50.4796 219.093C50.2068 219.093 49.9838 219.316 49.9838 219.588V220.57H42.7502V219.588C42.7502 219.316 42.5271 219.093 42.2545 219.093C41.9818 219.093 41.7589 219.316 41.7589 219.588V220.57H34.5253V219.588C34.5253 219.316 34.3022 219.093 34.0295 219.093C33.757 219.093 33.5339 219.316 33.5339 219.588V220.57H26.3003V219.588C26.3003 219.316 26.0772 219.093 25.8045 219.093C25.532 219.093 25.3089 219.316 25.3089 219.588V220.57H22.7778V219.413L23.6699 217.922H69.0862V220.57Z" fill="#B6B6E3"/>
<path d="M26.3004 220.57H25.309V219.588C25.309 219.316 25.5321 219.093 25.8046 219.093C26.0773 219.093 26.3004 219.316 26.3004 219.588V220.57Z" fill="#8081D3"/>
<path d="M34.5253 220.57H33.5339V219.588C33.5339 219.316 33.757 219.093 34.0296 219.093C34.3022 219.093 34.5253 219.316 34.5253 219.588V220.57Z" fill="#8081D3"/>
<path d="M42.7503 220.57H41.7589V219.588C41.7589 219.316 41.9819 219.093 42.2545 219.093C42.5272 219.093 42.7503 219.316 42.7503 219.588V220.57Z" fill="#8081D3"/>
<path d="M50.9753 220.57H49.9839V219.588C49.9839 219.316 50.2068 219.093 50.4797 219.093C50.7523 219.093 50.9753 219.316 50.9753 219.588V220.57Z" fill="#8081D3"/>
<path d="M59.2003 220.57H58.2089V219.588C58.2089 219.316 58.432 219.093 58.7045 219.093C58.9773 219.093 59.2003 219.316 59.2003 219.588V220.57Z" fill="#8081D3"/>
<path d="M66.5554 220.57H65.564V219.588C65.564 219.316 65.7869 219.093 66.0597 219.093C66.3323 219.093 66.5554 219.316 66.5554 219.588V220.57Z" fill="#8081D3"/>
<path d="M26.7849 232.755H73.0933V225.341H26.7849V232.755Z" fill="#D1D1FF"/>
<path d="M29.8116 231.584C29.539 231.584 29.3158 231.361 29.3158 231.089V227.007C29.3158 226.735 29.539 226.512 29.8116 226.512C30.0842 226.512 30.3072 226.735 30.3072 227.007V231.089C30.3072 231.361 30.0842 231.584 29.8116 231.584Z" fill="#9293EC"/>
<path d="M38.0365 231.584C37.764 231.584 37.5408 231.361 37.5408 231.089V227.007C37.5408 226.735 37.764 226.512 38.0365 226.512C38.3092 226.512 38.5323 226.735 38.5323 227.007V231.089C38.5323 231.361 38.3092 231.584 38.0365 231.584Z" fill="#9293EC"/>
<path d="M46.2615 231.584C45.989 231.584 45.7657 231.361 45.7657 231.089V227.007C45.7657 226.735 45.989 226.512 46.2615 226.512C46.5342 226.512 46.7573 226.735 46.7573 227.007V231.089C46.7573 231.361 46.5342 231.584 46.2615 231.584Z" fill="#9293EC"/>
<path d="M54.4866 231.584C54.2141 231.584 53.991 231.361 53.991 231.089V227.007C53.991 226.735 54.2141 226.512 54.4866 226.512C54.7593 226.512 54.9824 226.735 54.9824 227.007V231.089C54.9824 231.361 54.7593 231.584 54.4866 231.584Z" fill="#9293EC"/>
<path d="M62.7117 231.584C62.439 231.584 62.2159 231.361 62.2159 231.089V227.007C62.2159 226.735 62.439 226.512 62.7117 226.512C62.9842 226.512 63.2073 226.735 63.2073 227.007V231.089C63.2073 231.361 62.9842 231.584 62.7117 231.584Z" fill="#9293EC"/>
<path d="M70.0665 231.584C69.7939 231.584 69.5709 231.361 69.5709 231.089V227.007C69.5709 226.735 69.7939 226.512 70.0665 226.512C70.3394 226.512 70.5623 226.735 70.5623 227.007V231.089C70.5623 231.361 70.3394 231.584 70.0665 231.584Z" fill="#9293EC"/>
<path d="M26.7849 240.174H73.0933V232.76H26.7849V240.174Z" fill="#D1D1FF"/>
<path d="M29.8116 239.003C29.539 239.003 29.3158 238.78 29.3158 238.508V235.809H30.3072V238.508C30.3072 238.78 30.0842 239.003 29.8116 239.003Z" fill="#9293EC"/>
<path d="M38.0365 239.003C37.764 239.003 37.5408 238.78 37.5408 238.508V235.809H38.5323V238.508C38.5323 238.78 38.3092 239.003 38.0365 239.003Z" fill="#9293EC"/>
<path d="M46.2615 239.003C45.989 239.003 45.7657 238.78 45.7657 238.508V235.809H46.7573V238.508C46.7573 238.78 46.5342 239.003 46.2615 239.003Z" fill="#9293EC"/>
<path d="M54.4866 239.003C54.2141 239.003 53.991 238.78 53.991 238.508V235.809H54.9824V238.508C54.9824 238.78 54.7593 239.003 54.4866 239.003Z" fill="#9293EC"/>
<path d="M62.7117 239.003C62.439 239.003 62.2159 238.78 62.2159 238.508V235.809H63.2073V238.508C63.2073 238.78 62.9842 239.003 62.7117 239.003Z" fill="#9293EC"/>
<path d="M70.0665 239.003C69.7939 239.003 69.5709 238.78 69.5709 238.508V235.809H70.5623V238.508C70.5623 238.78 70.3394 239.003 70.0665 239.003Z" fill="#9293EC"/>
<path d="M73.0933 235.81H70.5624V234.426C70.5624 234.154 70.3394 233.931 70.0666 233.931C69.7939 233.931 69.571 234.154 69.571 234.426V235.81H63.2073V234.426C63.2073 234.154 62.9842 233.931 62.7117 233.931C62.439 233.931 62.2159 234.154 62.2159 234.426V235.81H54.9823V234.426C54.9823 234.154 54.7592 233.931 54.4865 233.931C54.214 233.931 53.9909 234.154 53.9909 234.426V235.81H46.7573V234.426C46.7573 234.154 46.5342 233.931 46.2615 233.931C45.989 233.931 45.7658 234.154 45.7658 234.426V235.81H38.5323V234.426C38.5323 234.154 38.3092 233.931 38.0366 233.931C37.764 233.931 37.5408 234.154 37.5408 234.426V235.81H30.3072V234.426C30.3072 234.154 30.0843 233.931 29.8116 233.931C29.5391 233.931 29.3158 234.154 29.3158 234.426V235.81H26.7849V232.76H73.0933V235.81Z" fill="#B6B6E3"/>
<path d="M30.3072 235.81H29.3158V234.426C29.3158 234.154 29.539 233.931 29.8116 233.931C30.0842 233.931 30.3072 234.154 30.3072 234.426V235.81Z" fill="#8081D3"/>
<path d="M38.5323 235.81H37.5408V234.426C37.5408 234.154 37.764 233.931 38.0365 233.931C38.3092 233.931 38.5323 234.154 38.5323 234.426V235.81Z" fill="#8081D3"/>
<path d="M46.7573 235.81H45.7657V234.426C45.7657 234.154 45.989 233.931 46.2615 233.931C46.5342 233.931 46.7573 234.154 46.7573 234.426V235.81Z" fill="#8081D3"/>
<path d="M54.9824 235.81H53.991V234.426C53.991 234.154 54.2141 233.931 54.4866 233.931C54.7593 233.931 54.9824 234.154 54.9824 234.426V235.81Z" fill="#8081D3"/>
<path d="M63.2073 235.81H62.2159V234.426C62.2159 234.154 62.439 233.931 62.7117 233.931C62.9842 233.931 63.2073 234.154 63.2073 234.426V235.81Z" fill="#8081D3"/>
<path d="M70.5623 235.81H69.5709V234.426C69.5709 234.154 69.7939 233.931 70.0665 233.931C70.3394 233.931 70.5623 234.154 70.5623 234.426V235.81Z" fill="#8081D3"/>
<path d="M23.1997 247.593H69.5081V240.179H23.1997V247.593Z" fill="#D1D1FF"/>
<path d="M26.2264 246.422C25.9537 246.422 25.7306 246.199 25.7306 245.927V241.846C25.7306 241.573 25.9537 241.351 26.2264 241.351C26.4989 241.351 26.722 241.573 26.722 241.846V245.927C26.722 246.199 26.4989 246.422 26.2264 246.422Z" fill="#9293EC"/>
<path d="M34.4513 246.422C34.1787 246.422 33.9556 246.199 33.9556 245.927V241.846C33.9556 241.573 34.1787 241.351 34.4513 241.351C34.724 241.351 34.947 241.573 34.947 241.846V245.927C34.947 246.199 34.724 246.422 34.4513 246.422Z" fill="#9293EC"/>
<path d="M42.6763 246.422C42.4036 246.422 42.1805 246.199 42.1805 245.927V241.846C42.1805 241.573 42.4036 241.351 42.6763 241.351C42.949 241.351 43.1719 241.573 43.1719 241.846V245.927C43.1719 246.199 42.949 246.422 42.6763 246.422Z" fill="#9293EC"/>
<path d="M50.9014 246.422C50.6287 246.422 50.4058 246.199 50.4058 245.927V241.846C50.4058 241.573 50.6287 241.351 50.9014 241.351C51.1741 241.351 51.3972 241.573 51.3972 241.846V245.927C51.3972 246.199 51.1741 246.422 50.9014 246.422Z" fill="#9293EC"/>
<path d="M59.1264 246.422C58.8537 246.422 58.6307 246.199 58.6307 245.927V241.846C58.6307 241.573 58.8537 241.351 59.1264 241.351C59.399 241.351 59.6221 241.573 59.6221 241.846V245.927C59.6221 246.199 59.399 246.422 59.1264 246.422Z" fill="#9293EC"/>
<path d="M66.4814 246.422C66.2087 246.422 65.9856 246.199 65.9856 245.927V241.846C65.9856 241.573 66.2087 241.351 66.4814 241.351C66.754 241.351 66.977 241.573 66.977 241.846V245.927C66.977 246.199 66.754 246.422 66.4814 246.422Z" fill="#9293EC"/>
<path d="M29.6766 207.883L5.91551 247.593L-0.453979 243.789L23.307 204.08L29.6766 207.883Z" fill="#D1D1FF"/>
<path d="M6.03531 244.638C5.94901 244.638 5.86163 244.615 5.78252 244.567L2.27629 242.473C2.04232 242.334 1.96536 242.028 2.10521 241.794C2.19779 241.64 2.36305 241.554 2.53213 241.554C2.61859 241.554 2.70581 241.576 2.78507 241.623L6.29115 243.717C6.52512 243.857 6.60223 244.162 6.46222 244.396C6.36965 244.552 6.20439 244.638 6.03531 244.638Z" fill="#9293EC"/>
<path d="M10.2557 237.584C10.1692 237.584 10.0818 237.562 10.0027 237.514L6.4965 235.421C6.26254 235.281 6.18557 234.975 6.32543 234.741C6.418 234.587 6.58326 234.501 6.75234 234.501C6.8388 234.501 6.92617 234.524 7.00528 234.571L10.5115 236.664C10.7455 236.805 10.8225 237.111 10.6826 237.344C10.59 237.499 10.4246 237.584 10.2557 237.584Z" fill="#9293EC"/>
<path d="M14.476 230.531C14.3895 230.531 14.3022 230.509 14.2229 230.462L10.717 228.368C10.4829 228.229 10.4059 227.923 10.5458 227.689C10.6383 227.535 10.8036 227.447 10.9725 227.447C11.059 227.447 11.1464 227.47 11.2256 227.518L14.7317 229.612C14.9657 229.751 15.0426 230.057 14.9028 230.291C14.8103 230.445 14.6451 230.531 14.476 230.531Z" fill="#9293EC"/>
<path d="M18.6963 223.479C18.6099 223.479 18.5225 223.456 18.4434 223.409L14.9373 221.314C14.7033 221.175 14.6262 220.87 14.7661 220.636C14.8586 220.481 15.0239 220.396 15.193 220.396C15.2793 220.396 15.3668 220.417 15.4459 220.464L18.9521 222.559C19.1861 222.698 19.2631 223.004 19.1232 223.237C19.0307 223.392 18.8654 223.479 18.6963 223.479Z" fill="#9293EC"/>
<path d="M22.9167 216.426C22.8302 216.426 22.7429 216.403 22.6636 216.355L19.1575 214.263C18.9235 214.122 18.8464 213.816 18.9863 213.582C19.079 213.428 19.2443 213.342 19.4132 213.342C19.4996 213.342 19.587 213.365 19.6661 213.413L23.1724 215.506C23.4065 215.646 23.4833 215.952 23.3434 216.186C23.251 216.34 23.0858 216.426 22.9167 216.426Z" fill="#9293EC"/>
<path d="M26.6904 210.118C26.604 210.118 26.5166 210.097 26.4375 210.049L22.9314 207.955C22.6973 207.816 22.6203 207.51 22.7603 207.276C22.8528 207.122 23.0182 207.035 23.1871 207.035C23.2736 207.035 23.3609 207.058 23.4401 207.105L26.9461 209.199C27.1803 209.339 27.2572 209.644 27.1174 209.878C27.0248 210.033 26.8594 210.118 26.6904 210.118Z" fill="#9293EC"/>
<path d="M80.1581 160.472L82.0316 156.67C82.0316 156.67 82.3794 152.503 83.2487 152.212C83.9633 151.975 84.1759 154.819 84.1759 154.819C84.1759 154.819 86.6096 149.84 87.2471 150.418C87.8844 150.997 86.3778 154.875 86.3778 154.875L88.0343 155.626C89.2019 156.155 89.7835 157.477 89.3836 158.694L89.0241 159.787C88.8847 160.212 88.642 160.594 88.3177 160.902L85.0257 164.023L80.7568 164.603L80.1581 160.472Z" fill="#FFBC96"/>
<path d="M57.9271 155.941L71.1346 166.686L80.7831 158.943L86.1609 165.422L74.6315 175.329C72.4077 177.24 69.2017 177.492 66.7051 175.954L56.108 169.425L57.9271 155.941Z" fill="#26289C"/>
<path d="M85.607 158.277C85.5503 158.277 85.497 158.266 85.4488 158.24C85.1261 158.07 85.1521 157.464 85.5359 156.212L85.8382 156.305C85.3729 157.823 85.5942 157.959 85.5965 157.96C85.7535 158.038 86.4644 157.418 87.0592 156.673L87.3066 156.87C86.9488 157.318 86.1219 158.277 85.607 158.277Z" fill="#D28572"/>
<path d="M87.8337 160.067C87.759 160.067 87.6856 160.056 87.6129 160.032C87.4752 159.987 87.3786 159.891 87.3338 159.755C87.251 159.503 87.3673 159.121 87.5402 158.748C87.2779 158.96 86.998 159.13 86.7596 159.154C86.6173 159.166 86.494 159.133 86.3959 159.052C85.8015 158.566 86.9243 156.962 87.1554 156.646L87.4112 156.832C86.9049 157.525 86.3404 158.598 86.5967 158.807C86.6177 158.826 86.6509 158.849 86.7283 158.839C87.1147 158.801 87.8377 158.078 88.2023 157.632L88.4539 157.823C88.0782 158.353 87.5238 159.319 87.6345 159.656C87.6476 159.695 87.6703 159.718 87.7123 159.732C88.1945 159.894 88.9668 159.007 89.1998 158.685L89.4563 158.87C89.36 159.003 88.5668 160.067 87.8337 160.067Z" fill="#D28572"/>
<path d="M92.4879 234.952L93.9116 247.435H111.627L104.351 241.271L101.662 234.478L92.4879 234.952Z" fill="#A7A7CC"/>
<path d="M65.7039 192.181L85.8322 194.27C91.4294 194.853 96.0891 198.82 97.5512 204.248L106.302 236.742L101.504 236.848L84.3683 212.934L65.7039 192.181Z" fill="#BE443D"/>
<path d="M74.5616 189.126L80.4141 188.019L85.1065 191.549L75.1417 191.707L74.5616 189.126Z" fill="#FFBC96"/>
<path d="M64.5735 151.592L64.1497 153.356L62.9286 158.45L62.7514 159.177L53.7355 157.205L55.6335 148.432L58.6389 147.799L64.5735 151.592Z" fill="#FFBC96"/>
<path d="M64.1497 153.356L62.9286 158.449L62.9096 158.469C60.6381 156.243 59.0818 153.931 58.2845 151.517L64.1497 153.356Z" fill="#1B1B43"/>
<path d="M68.334 147.461C68.334 147.461 69.9511 149.73 69.4694 150.555C68.9877 151.379 67.233 150.485 67.233 150.485L68.334 147.461Z" fill="#FFBC96"/>
<path d="M69.8691 142.904C69.8691 142.904 68.5246 154.44 65.0448 154.519C61.5651 154.597 57.1361 151.2 57.1361 151.2L56.6616 144.405L63.0677 139.902L69.8691 142.904Z" fill="#FFBC96"/>
<path d="M62.5932 146.301C62.9689 144.757 63.7053 143.374 65.6776 142.548C68.501 144.954 71.4217 144.109 74.4167 140.772C74.4167 140.772 70.1855 141.087 67.2198 137.216C64.2541 133.344 58.0062 137.808 58.0062 137.808C52.5493 138.204 52.3911 145.196 55.1987 150.371C56.0219 148.81 59.0343 147.289 61.2092 147.211L62.5932 146.301Z" fill="#1B1B43"/>
<path d="M63.7005 146.104C63.9481 147.293 63.3802 148.415 62.4321 148.612C61.484 148.81 60.5148 148.007 60.2672 146.818C60.0196 145.63 60.5875 144.506 61.5356 144.309C62.4837 144.112 63.4529 144.916 63.7005 146.104Z" fill="#FFBC96"/>
<path d="M62.0238 147.104C62.1758 146.483 61.9457 145.861 61.3573 145.613L61.3775 145.491C61.5607 145.479 61.7501 145.541 61.9077 145.651C62.0635 145.763 62.183 145.923 62.2569 146.099C62.396 146.451 62.3635 146.874 62.1345 147.16L62.0238 147.104Z" fill="#1B1B43"/>
<path d="M68.0429 147.168C67.9559 147.475 67.6782 147.663 67.4228 147.591C67.1674 147.519 67.0307 147.212 67.1178 146.906C67.2049 146.599 67.4824 146.409 67.7378 146.483C67.9934 146.555 68.1299 146.862 68.0429 147.168Z" fill="#1B1B43"/>
<path d="M65.2031 150.239C65.3933 152.433 66.5477 152.795 67.1276 151.314L65.2031 150.239Z" fill="white"/>
<path d="M69.3315 146.004C69.2897 146.37 68.7958 146.182 68.1774 146.111C67.5589 146.041 67.0658 145.978 67.0919 145.749C67.1181 145.52 67.6405 145.391 68.259 145.462C68.8775 145.532 69.3713 145.653 69.3315 146.004Z" fill="#1B1B43"/>
<path d="M64.4772 149.653C63.7825 149.653 63.2194 149.091 63.2194 148.397C63.2194 148.303 63.2296 148.213 63.2487 148.126C63.4091 147.944 63.5364 147.723 63.6236 147.473C63.8478 147.267 64.1477 147.14 64.4772 147.14C65.1719 147.14 65.735 147.703 65.735 148.397C65.735 149.091 65.1719 149.653 64.4772 149.653Z" fill="#FFA988"/>
<path d="M63.2488 148.126C63.3048 147.871 63.4385 147.644 63.6237 147.473C63.5365 147.722 63.4091 147.944 63.2488 148.126Z" fill="#FFA988"/>
<path d="M88.2172 234.952L89.6407 247.435H107.356L100.08 241.271L97.3913 234.478L88.2172 234.952Z" fill="#D1D1FF"/>
<path d="M41.7144 190.548L43.8009 202.391C44.6215 207.049 48.4875 210.566 53.2066 210.948L78.4105 212.986L86.1609 236.848H101.504L91.2599 204.019C90.0598 200.174 86.9211 197.244 82.9993 196.308L65.7039 192.181L49.7813 186.913L41.7144 190.548Z" fill="#FE5B52"/>
<path d="M78.4105 212.75L82.2331 212.987C82.2331 212.987 81.8376 216.121 80.0187 217.754L78.4105 212.75Z" fill="#BE443D"/>
<path d="M97.4147 243.407L97.0662 242.88L99.906 241.009L100.254 241.536L97.4147 243.407Z" fill="#102048"/>
<path d="M66.6678 170.162L65.8896 188.007L65.7061 192.14V192.179H65.4974L55.6527 192.14L42.0624 192.084C40.5314 192.078 39.3735 190.687 39.6455 189.176C41.607 178.423 44.2326 167.976 48.9524 158.469C50.1799 156.004 53.0459 154.753 55.7602 155.455L58.9553 156.276C60.1511 156.586 61.2963 157.084 62.2643 157.844C64.0422 159.24 65.0039 161.105 65.7061 163.74C66.2692 165.839 66.5603 167.995 66.6678 170.162Z" fill="#3335CF"/>
<path d="M88.6824 193.867H73.1909V191.618H88.6824V193.867Z" fill="#1B1B43"/>
<path d="M68.8695 191.546L65.7061 192.14L65.4973 192.179L55.6527 192.14C51.5907 187.987 50.2431 179.492 49.7812 168.898L65.8895 188.007L68.8695 191.546Z" fill="#1B1B43"/>
<path d="M57.9008 161.314L64.2276 180.593L76.8287 188.019L74.6144 195.446L61.3279 191.179C57.8651 190.172 55.1554 186.419 54.0986 182.973L49.7812 168.898L57.9008 161.314Z" fill="#3335CF"/>
<path d="M88.6824 193.867H86.4679L98.6999 169.215H100.914L88.6824 193.867Z" fill="#1B1B43"/>
<path d="M76.7484 188.155L64.0958 180.698L64.0772 180.64L57.7504 161.363L58.051 161.264L64.3593 180.486L76.9092 187.883L76.7484 188.155Z" fill="#1B1B43"/>
<path d="M334.492 90.283C326.804 90.283 320.574 96.5095 320.574 104.19C320.574 106.805 321.297 109.253 322.555 111.342L318.283 116.539L326.286 115.419C328.587 117.101 331.423 118.095 334.492 118.095C342.18 118.095 348.412 111.87 348.412 104.19C348.412 96.5095 342.18 90.283 334.492 90.283Z" fill="#9192FF"/>
<path d="M328.746 104.19C328.746 105.208 327.92 106.034 326.901 106.034C325.88 106.034 325.055 105.208 325.055 104.19C325.055 103.172 325.88 102.346 326.901 102.346C327.92 102.346 328.746 103.172 328.746 104.19Z" fill="white"/>
<path d="M336.337 104.19C336.337 105.208 335.511 106.034 334.492 106.034C333.473 106.034 332.647 105.208 332.647 104.19C332.647 103.172 333.473 102.346 334.492 102.346C335.511 102.346 336.337 103.172 336.337 104.19Z" fill="white"/>
<path d="M343.93 104.19C343.93 105.208 343.104 106.034 342.085 106.034C341.066 106.034 340.239 105.208 340.239 104.19C340.239 103.172 341.066 102.346 342.085 102.346C343.104 102.346 343.93 103.172 343.93 104.19Z" fill="white"/>
<path d="M25.7916 108.614C33.4791 108.614 39.7108 114.84 39.7108 122.52C39.7108 125.136 38.9865 127.583 37.7288 129.673L42.0005 134.868L33.9986 133.749C31.6972 135.43 28.8613 136.425 25.7916 136.425C18.1042 136.425 11.8724 130.2 11.8724 122.52C11.8724 114.84 18.1042 108.614 25.7916 108.614Z" fill="#9192FF"/>
<path d="M31.5387 122.521C31.5387 123.539 32.3648 124.364 33.3839 124.364C34.4032 124.364 35.2293 123.539 35.2293 122.521C35.2293 121.503 34.4032 120.677 33.3839 120.677C32.3648 120.677 31.5387 121.503 31.5387 122.521Z" fill="white"/>
<path d="M23.9463 122.521C23.9463 123.539 24.7726 124.364 25.7917 124.364C26.8109 124.364 27.6371 123.539 27.6371 122.521C27.6371 121.503 26.8109 120.677 25.7917 120.677C24.7726 120.677 23.9463 121.503 23.9463 122.521Z" fill="white"/>
<path d="M16.354 122.521C16.354 123.539 17.1801 124.364 18.1994 124.364C19.2185 124.364 20.0446 123.539 20.0446 122.521C20.0446 121.503 19.2185 120.677 18.1994 120.677C17.1801 120.677 16.354 121.503 16.354 122.521Z" fill="white"/>
</g>
<defs>
<clipPath id="clip0_2354_16293">
<rect width="368" height="248" fill="white"/>
</clipPath>
</defs>
</svg>
