<svg width="650" height="680" viewBox="0 0 650 680" fill="none" xmlns="http://www.w3.org/2000/svg">
<path d="M0 10C0 4.47716 4.47715 0 10 0H650V680H10C4.47715 680 0 675.523 0 670V10Z" fill="#18182D"/>
<g clip-path="url(#clip0_2648_141)">
<g opacity="0.5">
<path d="M134.285 656.349C134.285 656.349 61.4574 604.488 40.4918 516.212C19.5255 427.936 51.5255 320.901 112.216 266.832C172.905 212.764 282.147 249.177 330.699 294.419C379.249 339.66 379.249 339.66 379.249 339.66C379.249 339.66 425.595 365.039 486.285 362.832C546.975 360.625 601.043 443.384 615.388 508.488C629.732 573.591 595.525 659.659 595.525 659.659L134.285 656.349Z" fill="#D1EBFA"/>
<path d="M134.285 656.349C134.285 656.349 61.4574 604.488 40.4918 516.212C19.5255 427.936 51.5255 320.901 112.216 266.832C172.905 212.764 282.147 249.177 330.699 294.419C379.249 339.66 379.249 339.66 379.249 339.66C379.249 339.66 425.595 365.039 486.285 362.832C546.975 360.625 601.043 443.384 615.388 508.488C629.732 573.591 595.525 659.659 595.525 659.659L134.285 656.349Z" fill="url(#paint0_linear_2648_141)"/>
</g>
<g opacity="0.5">
<path d="M92.9052 664.18C77.9558 653.351 47.0818 625.856 37.1812 578.004C33.0724 558.146 35.764 538.815 41.5954 520.644C56.1803 576.626 91.3484 617.438 113.929 638.971H92.9052V664.18ZM603.732 638.971H602.633C608.004 621.662 614.908 595.371 617.675 567.419C619.308 581.988 617.944 597.099 613.18 614.419C610.529 624.06 607.245 632.176 603.732 638.971ZM583.252 431.628C559.147 393.26 525.192 362.79 488.665 362.79C487.875 362.79 487.077 362.804 486.285 362.832C483.755 362.924 481.255 362.968 478.777 362.968C421.816 362.968 379.249 339.66 379.249 339.66C379.249 339.66 379.249 339.66 330.699 294.419C328.067 291.967 325.253 289.536 322.283 287.15C349.492 273.075 381.733 242.964 428.695 242.964C435.104 242.964 441.785 243.524 448.768 244.764C517.18 256.902 583.388 293.315 586.699 372.764C587.823 399.759 585.636 417.836 583.252 431.628Z" fill="#D1EAF9"/>
<path d="M92.9052 664.18C77.9558 653.351 47.0818 625.856 37.1812 578.004C33.0724 558.146 35.764 538.815 41.5954 520.644C56.1803 576.626 91.3484 617.438 113.929 638.971H92.9052V664.18ZM603.732 638.971H602.633C608.004 621.662 614.908 595.371 617.675 567.419C619.308 581.988 617.944 597.099 613.18 614.419C610.529 624.06 607.245 632.176 603.732 638.971ZM583.252 431.628C559.147 393.26 525.192 362.79 488.665 362.79C487.875 362.79 487.077 362.804 486.285 362.832C483.755 362.924 481.255 362.968 478.777 362.968C421.816 362.968 379.249 339.66 379.249 339.66C379.249 339.66 379.249 339.66 330.699 294.419C328.067 291.967 325.253 289.536 322.283 287.15C349.492 273.075 381.733 242.964 428.695 242.964C435.104 242.964 441.785 243.524 448.768 244.764C517.18 256.902 583.388 293.315 586.699 372.764C587.823 399.759 585.636 417.836 583.252 431.628Z" fill="url(#paint1_linear_2648_141)"/>
</g>
<g opacity="0.5">
<path d="M602.633 638.971H507.477C516.719 614.408 527.004 579.84 523.967 553.728C518.705 508.488 493.445 465.453 441.872 432.349C422.328 419.804 391.6 410.587 358.163 408.601C360.204 396.141 360.295 383.004 359.664 376.073C358.561 363.936 352.768 354.004 352.768 354.004C352.768 354.004 341.876 347.827 327.953 347.827C323.74 347.827 319.248 348.393 314.699 349.867C295.112 356.211 288.216 386.556 290.423 402.556C291.052 407.116 292.191 411.035 293.699 414.477C259.987 423.247 228.953 441.853 209.271 474.28C180.372 521.892 182.207 571.924 189.963 607.3V638.971H113.929C91.3483 617.437 56.1801 576.625 41.5952 520.644C54.5567 480.257 83.0311 445.592 86.8359 423.521C92.3535 391.521 80.2155 351.797 130.975 320.901C181.732 290.004 272.216 301.039 306.423 293.315C311.559 292.155 316.819 289.976 322.283 287.149C325.253 289.536 328.067 291.967 330.699 294.419C379.249 339.66 379.249 339.66 379.249 339.66C379.249 339.66 421.816 362.968 478.777 362.968C481.255 362.968 483.754 362.924 486.285 362.832C487.077 362.804 487.875 362.789 488.665 362.789C525.192 362.789 559.147 393.26 583.252 431.628C578.621 458.425 573.253 469.041 590.008 497.453C605.429 523.601 615.147 544.86 617.675 567.419C614.908 595.371 608.004 621.661 602.633 638.971Z" fill="#B0D6F2"/>
<path d="M602.633 638.971H507.477C516.719 614.408 527.004 579.84 523.967 553.728C518.705 508.488 493.445 465.453 441.872 432.349C422.328 419.804 391.6 410.587 358.163 408.601C360.204 396.141 360.295 383.004 359.664 376.073C358.561 363.936 352.768 354.004 352.768 354.004C352.768 354.004 341.876 347.827 327.953 347.827C323.74 347.827 319.248 348.393 314.699 349.867C295.112 356.211 288.216 386.556 290.423 402.556C291.052 407.116 292.191 411.035 293.699 414.477C259.987 423.247 228.953 441.853 209.271 474.28C180.372 521.892 182.207 571.924 189.963 607.3V638.971H113.929C91.3483 617.437 56.1801 576.625 41.5952 520.644C54.5567 480.257 83.0311 445.592 86.8359 423.521C92.3535 391.521 80.2155 351.797 130.975 320.901C181.732 290.004 272.216 301.039 306.423 293.315C311.559 292.155 316.819 289.976 322.283 287.149C325.253 289.536 328.067 291.967 330.699 294.419C379.249 339.66 379.249 339.66 379.249 339.66C379.249 339.66 421.816 362.968 478.777 362.968C481.255 362.968 483.754 362.924 486.285 362.832C487.077 362.804 487.875 362.789 488.665 362.789C525.192 362.789 559.147 393.26 583.252 431.628C578.621 458.425 573.253 469.041 590.008 497.453C605.429 523.601 615.147 544.86 617.675 567.419C614.908 595.371 608.004 621.661 602.633 638.971Z" fill="url(#paint2_linear_2648_141)"/>
</g>
<path d="M507.477 638.971H414.829C416.37 633.424 420.077 613.04 420.077 613.04C420.077 613.04 388.629 586.097 386.974 581.683C385.87 578.74 386.422 524.212 381.732 499.108C377.042 474.004 370.974 468.947 358.285 462.695C345.17 456.232 325.732 450.188 325.732 450.188C325.732 450.188 329.594 459.108 333.18 480.073C336.768 501.04 340.077 536.349 340.905 560.625C341.656 582.636 342.178 630.271 342.27 638.971H303.261C303.924 632.743 306.528 607.421 305.318 604.764C304.786 603.591 291.912 602.913 276.308 602.521V502.971C276.308 502.971 260.44 501.863 243.172 501.863C227.056 501.863 209.72 502.828 202.928 506.556C188.86 514.28 189.962 541.04 189.962 541.04V607.3C182.206 571.924 180.372 521.892 209.27 474.28C228.953 441.853 259.986 423.247 293.698 414.477C293.849 414.82 294.002 415.159 294.16 415.492C293.053 424.289 290.876 440.747 289.87 442.556C288.492 445.039 288.492 445.039 288.492 445.039L281.594 449.729C281.594 449.729 294.836 468.488 311.112 471.521C313.322 471.935 315.206 472.112 316.813 472.112C327.038 472.112 326.008 464.901 326.008 464.901L323.525 459.66L325.69 440.903C327.388 441.165 329.113 441.308 330.833 441.308C337.982 441.308 345.052 438.865 349.732 432.625C353.993 426.944 356.629 417.964 358.162 408.601C391.6 410.587 422.328 419.804 441.872 432.349C493.445 465.453 518.705 508.488 523.966 553.728C527.004 579.84 516.718 614.408 507.477 638.971Z" fill="#95C3EB"/>
<path d="M570.285 499.2H510.789C507.109 499.2 504.123 496.215 504.123 492.534V462.832C504.123 459.151 507.109 456.166 510.789 456.166H570.285C573.967 456.166 576.952 459.151 576.952 462.832V492.534C576.952 496.215 573.967 499.2 570.285 499.2Z" fill="#599FDC"/>
<path d="M540.537 516.028L549.965 493.683H531.109L540.537 516.028Z" fill="#599FDC"/>
<path d="M540.312 470.293H557.343V472.785L565.692 467.971L557.343 463.157V465.649H540.312V470.293Z" fill="#293D8A"/>
<path d="M565.692 480.087H548.661V477.595L540.312 482.408L548.661 487.221V484.729H565.692V480.087Z" fill="white"/>
<path d="M529.859 484.467L529.048 484.763C529.048 484.763 526.521 481.877 525.209 478.735C523.897 475.593 523.852 471.756 523.852 471.756L524.445 471.508L520.843 462.889C520.201 463.391 519.589 464.036 519.095 464.872C517.057 468.316 517.259 473.601 519.309 478.765C521.359 483.928 523.551 488.533 527.551 491.429C529.911 493.139 531.933 493.437 533.504 493.189L529.859 484.467Z" fill="#293D8A"/>
<path d="M532.445 483.452L531.325 483.859L535.011 492.683C535.428 492.547 535.801 492.379 536.125 492.201C537.077 491.68 537.496 490.535 537.095 489.527L535.169 484.675C534.741 483.599 533.535 483.055 532.445 483.452Z" fill="#293D8A"/>
<path d="M523.658 461.379C523.205 461.542 522.712 461.763 522.216 462.055L525.893 470.857L527.13 470.34C528.205 469.892 528.725 468.668 528.301 467.584L526.368 462.621C525.949 461.544 524.746 460.986 523.658 461.379Z" fill="#293D8A"/>
<path d="M189.963 640.35V541.04C189.963 541.04 188.86 514.28 202.928 506.556C216.997 498.832 276.308 502.971 276.308 502.971V640.35H189.963Z" fill="#3A76C4"/>
<path d="M294.836 410.004C294.836 410.004 291.251 440.074 289.871 442.556C288.492 445.039 288.492 445.039 288.492 445.039L281.595 449.73C281.595 449.73 294.836 468.488 311.112 471.522C327.388 474.556 326.008 464.902 326.008 464.902L323.525 459.66L326.837 430.97C326.837 430.97 297.319 417.454 294.836 410.004Z" fill="#F57C83"/>
<path d="M273.042 452.212L283.801 447.522C283.801 447.522 290.698 458.832 306.698 465.454C322.698 472.074 322.974 468.212 323.801 465.454C324.629 462.695 323.525 459.66 323.525 459.66L324.709 450.002L331.108 452.134L353.318 631.798L296.216 634.556L273.042 452.212Z" fill="white"/>
<path d="M325.732 450.188C325.732 450.188 329.595 459.108 333.18 480.074C336.768 501.04 340.077 536.35 340.905 560.626C341.732 584.902 342.285 640.35 342.285 640.35C342.285 640.35 413.456 640.35 414.285 640.35C415.112 640.35 420.077 613.04 420.077 613.04C420.077 613.04 388.629 586.098 386.975 581.683C385.871 578.74 386.423 524.212 381.732 499.108C377.043 474.004 370.975 468.947 358.285 462.695C345.171 456.232 325.732 450.188 325.732 450.188Z" fill="#293D8A"/>
<path d="M363.249 608.74C362.881 608.74 362.583 608.442 362.583 608.074C362.583 606.102 362.232 578.079 361.895 550.979C361.555 523.875 361.204 495.848 361.204 493.867C361.204 493.498 361.503 493.2 361.871 493.2C362.239 493.2 362.537 493.498 362.537 493.867C362.537 495.839 362.888 523.862 363.227 550.962C363.565 578.066 363.916 606.092 363.916 608.074C363.916 608.442 363.619 608.74 363.249 608.74Z" fill="#788CBD"/>
<path d="M219.801 602.004L219.25 640.35H303.112C303.112 640.35 306.698 607.798 305.318 604.764C303.94 601.728 219.801 602.004 219.801 602.004Z" fill="#293D8A"/>
<path d="M324.868 448.031C321.227 446.695 316.552 444.484 313.135 441.729C307.148 436.903 303.313 431.154 300.828 425.514C303.595 428.659 306.656 431.38 309.732 434.004C313.628 437.327 319.473 439.936 325.691 440.903L324.868 448.031Z" fill="#945168"/>
<path d="M352.768 354.004C352.768 354.004 358.562 363.936 359.664 376.073C360.768 388.212 359.664 419.384 349.732 432.625C339.802 445.867 319.112 442.004 309.732 434.004C301.126 426.663 292.63 418.556 290.423 402.556C288.216 386.556 295.112 356.211 314.699 349.867C334.284 343.521 352.768 354.004 352.768 354.004Z" fill="#F57C83"/>
<path d="M377.653 623.007C377.653 623.007 376.68 623.007 375.2 622.967C374.853 622.954 374.467 622.967 374.065 622.954C372.64 622.914 370.907 622.875 369.16 622.822C368.773 622.807 368.373 622.794 367.987 622.78C366.253 622.74 364.773 622.954 363.387 622.875H363.347C363.053 622.86 362.627 622.9 362.28 622.914C362.107 622.928 361.947 622.94 361.84 622.928C361.04 622.78 360.88 622.595 360.013 622.208C358.893 621.7 343.732 618.315 331.399 618.394C319.08 618.447 308.027 619.287 306.227 617.78C304.413 616.247 303.32 600.768 313.84 599.754L326.773 604.66C326.773 604.66 356.307 601.155 367.133 609.14C377.987 617.127 377.653 623.007 377.653 623.007Z" fill="#F57C83"/>
<path d="M363.347 622.875C363.054 622.86 362.627 622.9 362.28 622.914C362.014 622.488 361.452 621.714 361.147 621.394C357.814 617.994 349.76 615.794 346.84 615.087C346.574 615.02 346.399 614.754 346.467 614.488C346.52 614.22 346.8 614.06 347.08 614.114C351.334 615.14 360.36 617.768 362.92 622.074C363 622.194 363.214 622.607 363.347 622.875Z" fill="#293D8A"/>
<path d="M369.164 622.82C368.777 622.811 368.377 622.8 367.99 622.778C364.35 616.14 358.396 614.235 351.037 611.868L350.601 611.723C350.349 611.638 350.196 611.354 350.284 611.09C350.369 610.838 350.64 610.684 350.917 610.771L351.34 610.915C359.121 613.412 365.382 615.419 369.164 622.82Z" fill="#293D8A"/>
<path d="M375.201 622.967C374.855 622.958 374.468 622.962 374.067 622.952C371.86 618.311 364.555 610.544 354.889 608.734C354.611 608.687 354.429 608.43 354.476 608.151C354.536 607.884 354.793 607.706 355.06 607.752C365.016 609.622 373.048 617.754 375.201 622.967Z" fill="#293D8A"/>
<path d="M297.042 388.902C297.042 388.902 303.112 386.004 307.388 377.867C311.664 369.73 311.112 362.419 311.112 362.419C311.112 362.419 318.836 361.178 330.422 364.626C342.008 368.074 355.801 372.764 367.388 366.143C378.974 359.522 378.974 348.902 373.318 344.488C366.985 339.544 354.422 342.556 354.422 342.556C354.422 342.556 359.249 337.867 356.629 335.108C354.008 332.35 344.492 335.936 344.492 335.936C344.492 335.936 332.905 326.695 310.974 327.798C289.042 328.902 278.56 344.212 277.318 361.315C276.077 378.419 282.285 395.522 282.285 395.522L297.042 388.902Z" fill="#293D8A"/>
<path d="M341.96 417.038C341.706 417.038 341.441 417.031 341.16 417.019C339.536 416.956 337.494 416.688 336.101 415.816C335.689 415.558 335.845 414.884 336.35 414.884C336.352 414.884 336.352 414.884 336.353 414.884C337.22 414.888 338.066 415.15 338.932 415.215C339.736 415.274 340.549 415.308 341.354 415.346C341.822 415.367 342.377 415.41 342.942 415.41C343.789 415.41 344.654 415.314 345.27 414.906C347.964 413.123 342.728 410.923 341.62 410.107C339.302 408.399 339.768 405.45 340.01 402.92C340.324 399.668 340.293 396.111 341.536 393.047C341.625 392.828 341.854 392.712 342.066 392.712C342.306 392.712 342.526 392.86 342.498 393.178C342.148 397.082 341.245 400.935 341 404.858C340.896 406.49 340.776 408.25 342.236 409.295C343.289 410.05 344.569 410.41 345.613 411.183C346.518 411.855 347.421 412.934 347.26 414.136C347.118 415.206 346.246 415.836 345.346 416.283C344.138 416.883 343.176 417.038 341.96 417.038Z" fill="#945168"/>
<path d="M352.812 402.22C352.4 404.545 350.709 406.189 349.033 405.893C347.359 405.597 346.335 403.471 346.745 401.147C347.157 398.821 348.848 397.176 350.524 397.472C352.199 397.768 353.224 399.895 352.812 402.22Z" fill="#293D8A"/>
<path d="M331.704 400.377C331.331 402.887 329.564 404.701 327.756 404.433C325.948 404.164 324.785 401.912 325.159 399.404C325.532 396.895 327.3 395.079 329.108 395.348C330.915 395.617 332.077 397.869 331.704 400.377Z" fill="#293D8A"/>
<path d="M347.897 392.635C349.187 392.852 350.488 392.629 351.788 392.721C352.101 392.743 352.409 392.789 352.723 392.82C352.944 392.84 352.308 392.753 352.617 392.804L352.816 392.837C352.979 392.867 353.141 392.9 353.301 392.939C353.579 393.007 353.847 393.111 354.124 393.172C354.376 393.227 354.656 393.285 354.909 393.273C355.052 393.255 355.192 393.236 355.335 393.216L355.067 393.265L355.595 393.208C356.335 393.035 356.79 392.179 356.584 391.464C356.524 391.259 356.433 391.072 356.303 390.903L356.133 390.688L356.289 390.867L356.118 390.64C356.045 390.517 355.948 390.419 355.824 390.345L355.512 390.108C355.171 389.871 354.721 389.732 354.316 389.628C353.547 389.429 352.739 389.328 351.947 389.324C351.157 389.32 350.379 389.403 349.599 389.511C348.911 389.605 348.145 389.84 347.586 390.255C347.156 390.576 346.891 390.988 346.965 391.552C347.028 392.019 347.396 392.549 347.897 392.635Z" fill="#293D8A"/>
<path d="M333.184 388.944C333.009 388.84 332.831 388.749 332.645 388.665C332.489 388.595 332.063 388.371 332.385 388.547L332.031 388.357C331.496 388.088 330.941 387.908 330.364 387.761C329.105 387.44 327.78 387.359 326.489 387.495C325.112 387.64 323.855 387.973 322.661 388.692C322.493 388.795 322.32 388.893 322.18 389.033C322.085 389.153 321.992 389.275 321.901 389.397L321.98 389.277C321.612 389.535 321.397 389.956 321.401 390.401C321.404 390.829 321.627 391.187 321.999 391.393C322.448 391.644 322.875 391.524 323.339 391.405C323.105 391.405 322.872 391.405 322.64 391.405C323.023 391.464 323.292 391.48 323.679 391.395C323.693 391.392 324.051 391.303 323.815 391.352C323.593 391.4 324.191 391.307 324.256 391.297C324.332 391.287 324.747 391.245 324.308 391.288L324.551 391.26C324.757 391.235 324.967 391.208 325.175 391.192C326.085 391.119 326.993 391.077 327.905 391.048C328.752 391.02 329.615 391.013 330.46 391.049C330.824 391.065 331.184 391.077 331.548 391.088C331.751 391.093 331.665 391.125 331.525 391.081L331.752 391.14C331.903 391.181 332.051 391.231 332.196 391.287C332.785 391.511 333.491 391.085 333.708 390.544C333.945 389.955 333.744 389.277 333.184 388.944Z" fill="#293D8A"/>
<path d="M339.733 427.292C341 424.747 343.303 422.882 345.965 421.682C343.655 421.447 332.741 420.436 329.988 422C326.903 423.751 330.559 430.784 336.937 431.138C337.608 431.175 338.217 431.12 338.797 431.03C338.849 429.746 339.145 428.475 339.733 427.292Z" fill="#293D8A"/>
<path d="M289.319 412.488C289.319 412.488 290.423 416.764 296.767 421.729C303.112 426.695 312.308 430.327 312.308 430.327L313.043 427.108C313.043 427.108 303.526 422.969 299.112 418.419C294.699 413.867 294.147 411.384 294.147 411.384L289.319 412.488Z" fill="#D6DCEB"/>
<path d="M314.147 424.727C319.253 424.489 322.103 428.527 322.459 431.139C322.815 433.752 320.361 436.681 314.621 434.108C307.492 430.912 309.041 424.964 314.147 424.727Z" fill="#293D8A"/>
<path d="M293.319 380.902C293.319 380.902 295.524 365.048 306.147 354.28C326.423 333.73 343.664 334.97 343.664 334.97C343.664 334.97 343.525 332.074 337.043 329.867C330.956 327.795 328.216 328.902 328.216 328.902C328.216 328.902 311.525 330.28 297.457 345.867C283.388 361.454 281.871 381.315 281.871 381.315L293.319 380.902Z" fill="#D6DCEB"/>
<path d="M291.801 378.969C278.519 376.719 271.112 387.108 270.56 397.591C270.008 408.073 277.625 416.043 287.801 415.245C310.699 413.453 308.077 381.729 291.801 378.969Z" fill="white"/>
<path d="M285.188 405.059C281.681 405.059 278.717 403.296 277.024 400.193C275.209 396.869 275.361 392.777 277.412 389.768C277.568 389.543 277.877 389.483 278.106 389.637C278.334 389.793 278.394 390.104 278.238 390.332C276.397 393.033 276.265 396.716 277.901 399.713C279.454 402.559 282.196 404.171 285.442 404.055C288.477 403.973 291.049 402.585 292.685 400.145C294.552 397.36 294.981 393.515 293.778 390.349C292.585 387.208 289.313 385.067 286.338 385.456C286.069 385.491 285.813 385.3 285.777 385.025C285.74 384.752 285.932 384.501 286.206 384.464C289.686 384 293.341 386.379 294.713 389.993C296.028 393.453 295.557 397.656 293.516 400.701C291.694 403.419 288.837 404.964 285.469 405.055L285.188 405.059Z" fill="#7588BB"/>
<path d="M275.525 448.349C275.525 448.349 235.251 458.28 221.181 474.28C207.112 490.28 200.492 569.177 200.216 583.797C199.94 598.419 210.147 604.488 216.216 608.625C222.285 612.764 249.043 620.212 270.56 621.316C292.077 622.419 312.492 621.316 312.492 621.316C312.492 621.316 312.423 616.625 315.732 609.728C318.803 603.332 322.699 602.004 322.699 602.004L304.216 595.384C304.216 595.384 300.98 537.392 295.94 509.316C290.147 477.039 275.525 448.349 275.525 448.349Z" fill="#293D8A"/>
<path d="M342.285 586.119L342.015 586.061C341.677 585.912 341.525 585.519 341.675 585.183C345.449 576.668 349.359 559.953 351.561 548.227L351.741 547.279C352.408 543.829 353.237 539.54 351.583 536.579C350.739 535.068 348.833 531.791 347 528.64C345.097 525.369 343.3 522.279 342.801 521.357C341.831 519.556 344.889 514.745 349.317 508.147C350.512 506.363 351.547 504.823 352.149 503.78C353.728 501.049 352.676 498.548 351.46 495.652L351.047 494.655C349.944 491.947 348.689 489.235 347.479 486.612C346.984 485.541 346.488 484.468 346 483.389C345.352 481.964 344.703 480.513 344.044 479.047C340.145 470.356 336.115 461.371 330.952 452.689C330.764 452.373 330.868 451.964 331.184 451.776C331.501 451.589 331.909 451.692 332.099 452.009C337.299 460.755 341.345 469.776 345.26 478.5C345.917 479.967 346.567 481.415 347.213 482.84C347.701 483.915 348.195 484.985 348.688 486.053C349.907 488.689 351.167 491.416 352.281 494.152L352.689 495.136C353.931 498.089 355.213 501.144 353.303 504.447C352.677 505.529 351.633 507.087 350.424 508.888C348.116 512.329 343.311 519.492 343.975 520.723C344.463 521.627 346.255 524.708 348.152 527.969C349.989 531.128 351.9 534.413 352.747 535.928C354.64 539.315 353.759 543.871 353.052 547.532L352.871 548.472C352.068 552.743 347.82 574.608 342.895 585.721C342.784 585.972 342.54 586.119 342.285 586.119Z" fill="#788CBD"/>
<path d="M302.974 588.464C302.802 588.464 302.63 588.399 302.501 588.268C299.366 585.108 284.249 558.933 283.124 554.011C282.508 551.316 284.054 544.481 285.55 537.871C286.709 532.749 287.908 527.453 287.566 526.02C287.057 523.877 283.192 520.719 279.453 517.665C274.937 513.977 270.268 510.161 269.364 506.725C268.336 502.82 269.214 478.371 269.796 462.193C270.005 456.376 270.17 451.781 270.169 450.143C270.169 449.775 270.468 449.476 270.836 449.476C271.204 449.476 271.502 449.773 271.502 450.141C271.504 451.805 271.338 456.411 271.128 462.241C270.585 477.363 269.676 502.669 270.653 506.387C271.448 509.403 276.149 513.244 280.297 516.633C284.388 519.975 288.25 523.131 288.864 525.712C289.276 527.445 288.152 532.413 286.85 538.164C285.456 544.328 283.876 551.313 284.424 553.713C285.528 558.54 300.369 584.225 303.448 587.327C303.706 587.589 303.705 588.011 303.444 588.269C303.313 588.399 303.144 588.464 302.974 588.464Z" fill="#788CBD"/>
<path d="M248.768 577.016L248.675 577.01C248.309 576.958 248.056 576.62 248.107 576.256C248.596 572.788 256.249 503.722 256.6 498.432C256.625 498.063 256.943 497.775 257.311 497.811C257.677 497.835 257.955 498.153 257.931 498.52C257.579 503.819 249.917 572.971 249.427 576.443C249.38 576.775 249.095 577.016 248.768 577.016Z" fill="#788CBD"/>
<path d="M303.664 595.773L303.413 595.725C301.717 595.039 294.225 592.511 284.74 589.313C265.596 582.856 239.376 574.015 234.391 571.424C234.064 571.255 233.937 570.852 234.107 570.525C234.276 570.197 234.676 570.067 235.005 570.242C239.9 572.784 267.141 581.971 285.167 588.048C294.673 591.256 302.181 593.787 303.915 594.489C304.256 594.628 304.42 595.016 304.281 595.357C304.176 595.616 303.927 595.773 303.664 595.773Z" fill="#788CBD"/>
<path d="M294.457 623.275C277.609 623.275 244.945 620.238 220.132 611.462C219.784 611.338 219.603 610.958 219.725 610.61C219.847 610.264 220.232 610.082 220.576 610.204C251.923 621.292 295.773 623.186 303.932 621.354C304.291 621.276 304.647 621.5 304.728 621.859C304.809 622.218 304.583 622.575 304.224 622.656C302.457 623.051 299.043 623.275 294.457 623.275Z" fill="#788CBD"/>
<path d="M101.613 457.652C106.844 462.252 113.468 465.201 118.059 470.521C119.864 472.615 121.487 474.843 123.164 477.037C124.384 478.635 127.641 481.284 128.169 483.292C128.403 484.176 128.353 482.979 128.119 482.092L128.08 481.981C127.621 477.916 127.293 473.835 127.151 469.745C127.008 465.667 127.263 461.572 127.007 457.5C126.647 451.755 124.853 446.192 120.157 442.593C117.862 440.833 114.913 439.763 112.802 437.811C110.8 435.957 111.603 433.835 112.781 431.768C113.882 429.833 115.218 427.933 115.647 425.707C116.136 423.176 115.185 420.565 113.901 418.411C111.169 413.824 105.111 408.711 99.3736 409.396C94.5881 409.968 94.046 415.488 94.1141 419.333C94.1808 423.072 94.5506 426.799 94.5861 430.54C94.6236 434.383 93.9698 438.153 93.9152 441.979C93.8225 448.487 96.8293 453.445 101.613 457.652Z" fill="#60A6DF"/>
<path d="M150.212 517.362C151.668 513.888 153.338 510.642 155.393 507.483C158.212 503.15 161.338 498.927 163.23 494.074C165.164 489.119 164.88 483.82 165.07 478.602C165.209 474.768 166.349 470.944 166.041 467.1C165.894 465.256 164.832 462.274 162.446 462.579C160.59 462.816 159.488 465.118 158.774 466.586C157.529 469.148 156.666 471.882 155.741 474.57C155.381 475.622 155.036 476.692 154.58 477.707C154.314 478.298 153.47 479.738 152.674 479.542C151.318 479.207 152.549 473.672 152.75 472.692C153.762 467.77 155.286 463.195 155.498 458.13C155.805 450.786 155.234 442.043 148.052 438.027C146.173 436.978 143.794 436.352 142.01 437.923C140.25 439.471 139.753 442.156 139.492 444.366C138.69 451.148 140.286 457.571 142.46 463.952C144.254 469.222 146.393 474.659 146.549 480.294C146.7 485.718 143.877 490.524 142.553 495.648C140.442 503.814 140.878 508.143 140.869 510.787C140.854 514.1 140.976 517.378 141.217 520.68C141.441 523.716 141.704 526.754 142.074 529.775C142.15 530.387 142.22 531.026 142.301 531.664C141.134 528.855 140.726 525.638 139.76 522.815C138.044 517.796 136.049 512.882 134.401 507.839C133.04 503.672 131.754 499.478 129.956 495.472C128.27 491.714 126.234 487.742 123.089 484.984C121.188 483.318 118.884 482.343 116.341 482.363C114.715 482.375 113.253 482.938 111.7 483.348C109.789 483.854 108.285 483.679 106.713 482.471C101.565 478.514 99.9992 471.419 96.1883 466.408C93.3456 462.671 86.6014 456.3 81.6419 460.376C79.0112 462.538 78.2858 466.715 78.4238 469.918C78.5971 473.935 80.3528 477.61 82.444 480.97C84.668 484.542 87.5388 487.74 89.5826 491.414C90.791 493.583 90.98 495.662 90.7878 498.11C90.6076 500.415 90.406 502.648 91.1919 504.872C93.5519 511.551 100.921 510.619 106.652 510.794C110.663 510.915 114.965 511.512 118.773 512.795C123.173 514.276 126.036 517.14 127.609 521.492C128.746 524.643 129.356 528.219 131.5 530.895C132.508 532.154 133.842 533.083 135.31 533.732C137.545 534.719 144.36 535.151 144.41 534.528C144.578 532.444 145.566 530.246 146.185 528.268C147.345 524.56 148.709 520.943 150.212 517.362Z" fill="#60A6DF"/>
<path d="M181.853 516.103C181.26 512.284 181.373 508.076 179.565 504.57C179.436 504.319 179.095 504.255 178.861 504.384C177.565 505.103 177.512 507.196 177.405 508.479C177.231 510.607 177.361 512.74 177.099 514.863C176.64 518.591 175.779 522.434 174.435 525.947C172.916 529.923 170.152 532.176 166.139 533.418C163.56 534.214 161.031 534.908 158.879 536.619C156.951 538.152 155.612 540.266 154.619 542.491C151.94 548.5 150.664 555.218 149.421 561.638C148.585 565.96 147.903 570.303 146.853 574.583C145.804 578.859 144.677 583.114 144.076 587.483C143.975 587.703 143.867 587.922 143.773 588.144C143.499 588.798 144.52 589.151 144.872 588.607C149.016 582.23 154.063 576.506 160.948 572.994C164.057 571.408 168.188 571.079 170.781 568.587C172.755 566.691 173.025 563.798 172.731 561.219C172.343 557.831 170.72 555.043 169.028 552.156C168.1 550.57 167.003 548.871 167.377 546.943C167.731 545.124 169.243 543.788 170.743 542.856C173.605 541.079 176.952 540.279 179.296 537.718C181.473 535.339 182.68 532.379 182.921 529.174C183.243 524.902 182.507 520.322 181.853 516.103Z" fill="#60A6DF"/>
<path d="M125.366 538.12C121.71 533.411 117.297 529.35 112.333 526.052C109.684 524.294 103.435 520.823 102.174 526.012C101.434 529.054 104.411 532.046 106.37 533.952C109.314 536.818 112.719 539.29 115.203 542.592C112.127 543.572 108.914 543.764 106.241 545.89C103.078 548.408 101.659 553.27 104.796 556.354C106.324 557.856 108.351 558.779 110.255 559.702C112.729 560.899 115.25 561.986 117.786 563.046C123.263 565.332 128.81 567.654 133.48 571.402C138.24 575.22 142.716 581.678 143.094 587.908C143.131 588.503 142.904 587.962 143.259 587.69C143.454 587.864 144.107 587.551 144.103 587.204C144.006 577.958 142.344 569.155 138.566 560.686C135.064 552.834 130.646 544.923 125.366 538.12Z" fill="#60A6DF"/>
<path d="M112.739 452.048C114.755 456.235 116.864 460.324 119.103 464.405C121.258 468.335 123.411 472.235 125.023 476.427C127.008 481.588 129.089 486.672 131.188 491.788C133.369 497.105 135.319 502.524 136.883 508.055C139.936 518.853 142.204 529.968 143.325 541.136C143.896 546.816 144.155 552.529 143.999 558.235C143.876 562.695 143.373 567.105 142.955 571.543C142.519 576.157 142.204 580.828 142.591 585.46C142.913 589.332 143.529 593.935 146.535 596.697C147.121 597.239 147.955 596.564 147.613 595.865C144.043 588.543 144.243 580.559 144.925 572.619C145.303 568.235 145.825 563.875 145.973 559.475C146.161 553.876 145.941 548.267 145.415 542.691C144.379 531.729 142.193 520.899 139.359 510.269C137.904 504.82 136.105 499.476 134.033 494.228C131.955 488.971 129.556 483.857 127.543 478.573C123.903 469.017 118.354 460.544 113.44 451.639C113.185 451.176 112.514 451.583 112.739 452.048Z" fill="#3E579E"/>
<path d="M143.489 530.188C144.067 523.229 144.683 516.528 147.029 509.889C148.123 506.793 149.449 503.783 150.505 500.675C151.377 498.105 152.683 494.583 152.011 491.852C151.936 491.547 151.492 491.563 151.408 491.852C150.959 493.412 151.008 495.123 150.685 496.721C150.369 498.277 149.949 499.808 149.465 501.32C148.436 504.536 147.091 507.617 145.925 510.783C143.675 516.897 142.519 523.671 143.011 530.188C143.033 530.496 143.464 530.496 143.489 530.188Z" fill="#3E579E"/>
<path d="M103.164 490.196C105.927 496.869 114.23 497.255 120.278 498.749C124.597 499.816 127.785 502.697 130.075 506.437C132.581 510.529 134.276 515.333 135.669 519.9L135.751 519.879C134.059 511.88 131.635 502.249 123.39 498.528C116.782 495.545 108.076 497.044 103.85 489.907C103.642 489.556 102.997 489.792 103.164 490.196Z" fill="#3E579E"/>
<path d="M139.123 529.132C139.452 529.576 139.753 530.04 140.092 530.475C140.26 530.691 140.431 530.894 140.643 531.067C140.86 531.244 141.113 531.464 141.411 531.459C141.535 531.456 141.621 531.319 141.555 531.208C141.419 530.986 141.172 530.851 140.98 530.682C140.781 530.507 140.58 530.335 140.388 530.155C140.001 529.79 139.648 529.392 139.271 529.019L139.123 529.132Z" fill="#3E579E"/>
<path d="M121.849 550.301C126.615 554.212 131.011 558.84 134.503 563.911C136.172 566.335 137.713 568.9 139.111 571.489C140.637 574.319 141.639 577.308 142.835 580.275C142.925 580.5 143.337 580.505 143.305 580.212C142.644 573.936 138.669 568.556 135.485 563.335C133.832 560.623 131.776 558.436 129.565 556.175C127.283 553.839 124.956 551.629 122.28 549.745C121.954 549.516 121.539 550.045 121.849 550.301Z" fill="#3E579E"/>
<path d="M159.79 542.914C157.496 544.214 157.421 547.839 157.376 550.154C157.289 554.6 158.39 558.776 156.438 563.014C154.676 566.842 151.86 570.038 149.646 573.592C147.573 576.919 145.529 581.172 145.574 585.178C145.577 585.408 145.932 585.54 146.04 585.304C146.874 583.486 147.174 581.42 147.773 579.515C148.445 577.372 149.384 575.427 150.6 573.543C152.73 570.242 155.345 567.236 157.074 563.686C158.896 559.943 158.629 556.236 158.508 552.182C158.432 549.596 158.173 545.442 160.257 543.519C160.585 543.218 160.166 542.702 159.79 542.914Z" fill="#3E579E"/>
<path d="M144.447 585.591C135.203 585.463 117.595 585.362 117.595 585.362L121.952 617.711C122.932 624.988 129.144 630.419 136.487 630.419H144.079H144.813H152.404C159.748 630.419 165.96 624.988 166.94 617.711L171.297 585.362C171.297 585.362 153.689 585.463 144.447 585.591Z" fill="white"/>
<path d="M591.251 526.143L538.513 630.601L384.768 631.707L432.216 524.671L591.251 526.143Z" fill="#F5F6F9"/>
<path d="M282.728 631.055L282.757 622.695H382.285L428.077 522.28H587.249L591.251 526.143H435.756L388.169 630.971C388.169 630.971 282.728 630.78 282.728 631.055Z" fill="#D1D8E8"/>
<path d="M511.413 583.785C509.676 588.996 500.249 593.02 490.357 592.772C480.465 592.525 473.855 588.101 475.591 582.889C477.328 577.68 486.755 573.656 496.647 573.904C506.539 574.152 513.151 578.576 511.413 583.785Z" fill="#D1D8E8"/>
<path d="M388.17 631.637L387.894 631.577C387.56 631.425 387.41 631.031 387.562 630.695L435.326 525.476H591.25C591.62 525.476 591.917 525.773 591.917 526.143C591.917 526.511 591.62 526.809 591.25 526.809H436.185L388.777 631.247C388.666 631.491 388.422 631.637 388.17 631.637Z" fill="white"/>
<path d="M92.9053 679.522H275.801V638.971H92.9053V679.522Z" fill="#4F68A9"/>
<path d="M274.756 679.522H603.823V638.971H274.756V679.522Z" fill="#6F83B8"/>
<path d="M92.9053 646.419H274.756V638.971H92.9053V646.419Z" fill="#3D5192"/>
<path d="M603.823 646.419H274.756V638.971H603.823V646.419Z" fill="#5165A1"/>
<path d="M283.801 640.901H84.0776V630.971H283.801V640.901Z" fill="#647AB4"/>
<path d="M611.823 640.901H282.757V630.971H611.823V640.901Z" fill="#8E9EC7"/>
<path d="M229.625 418.21H165.06C161.064 418.21 157.825 414.971 157.825 410.975V378.742C157.825 374.747 161.064 371.507 165.06 371.507H229.625C233.62 371.507 236.86 374.747 236.86 378.742V410.975C236.86 414.971 233.62 418.21 229.625 418.21Z" fill="white"/>
<path d="M255.26 394.859L231.011 384.627V405.091L255.26 394.859Z" fill="white"/>
<path d="M186.492 394.859C186.492 397.326 184.492 399.324 182.025 399.324C179.559 399.324 177.559 397.326 177.559 394.859C177.559 392.391 179.559 390.392 182.025 390.392C184.492 390.392 186.492 392.391 186.492 394.859Z" fill="#293D8A"/>
<path d="M201.809 394.859C201.809 397.326 199.809 399.324 197.343 399.324C194.876 399.324 192.876 397.326 192.876 394.859C192.876 392.391 194.876 390.392 197.343 390.392C199.809 390.392 201.809 392.391 201.809 394.859Z" fill="#293D8A"/>
<path d="M217.127 394.859C217.127 397.326 215.127 399.324 212.66 399.324C210.193 399.324 208.193 397.326 208.193 394.859C208.193 392.391 210.193 390.392 212.66 390.392C215.127 390.392 217.127 392.391 217.127 394.859Z" fill="#293D8A"/>
<path d="M558.331 272.349H409.273C399.7 272.349 391.94 280.109 391.94 289.683V360.396C391.94 369.968 399.7 377.729 409.273 377.729H422.633C423.009 384.139 422.091 393.675 416.737 405.867C433.959 397.923 443.876 385.995 449.056 377.729H558.331C567.903 377.729 575.664 369.968 575.664 360.396V289.683C575.664 280.109 567.903 272.349 558.331 272.349Z" fill="#599FDC"/>
<path d="M494.744 306.051H420.813C418.783 306.051 417.135 304.404 417.135 302.374C417.135 300.342 418.783 298.695 420.813 298.695H494.744C496.776 298.695 498.423 300.342 498.423 302.374C498.423 304.404 496.776 306.051 494.744 306.051Z" fill="white"/>
<path d="M547.756 327.476H419.388C418.144 327.476 417.135 326.468 417.135 325.224C417.135 323.98 418.144 322.971 419.388 322.971H547.756C549 322.971 550.009 323.98 550.009 325.224C550.009 326.468 549 327.476 547.756 327.476Z" fill="#C3E4F7"/>
<path d="M547.756 339.983H419.388C418.144 339.983 417.135 338.974 417.135 337.73C417.135 336.486 418.144 335.476 419.388 335.476H547.756C549 335.476 550.009 336.486 550.009 337.73C550.009 338.974 549 339.983 547.756 339.983Z" fill="#C3E4F7"/>
<path d="M519.753 353.316H419.388C418.144 353.316 417.135 352.307 417.135 351.063C417.135 349.819 418.144 348.809 419.388 348.809H519.753C520.999 348.809 522.008 349.819 522.008 351.063C522.008 352.307 520.999 353.316 519.753 353.316Z" fill="#C3E4F7"/>
<path d="M546.748 306.051H511.48C509.449 306.051 507.801 304.404 507.801 302.374C507.801 300.342 509.449 298.695 511.48 298.695H546.748C548.78 298.695 550.425 300.342 550.425 302.374C550.425 304.404 548.78 306.051 546.748 306.051Z" fill="white"/>
<path d="M457.858 468.672H417.813C416.34 468.672 415.146 467.477 415.146 466.005V438.648C415.146 437.176 416.34 435.981 417.813 435.981H457.858C459.332 435.981 460.525 437.176 460.525 438.648V466.005C460.525 467.477 459.332 468.672 457.858 468.672Z" fill="white"/>
<path d="M438.114 457.212C437.888 457.212 437.662 457.135 437.476 456.983L415.682 438.981C415.256 438.629 415.196 438 415.548 437.573C415.902 437.148 416.532 437.089 416.955 437.44L438.096 454.9L458.697 436.973C459.113 436.612 459.746 436.656 460.108 437.072C460.471 437.489 460.427 438.12 460.01 438.483L438.769 456.965C438.581 457.129 438.347 457.212 438.114 457.212Z" fill="#647AB4"/>
<path d="M416.319 467.925C416.071 467.925 415.823 467.833 415.629 467.649C415.229 467.268 415.213 466.636 415.595 466.236L430.837 450.212C431.215 449.811 431.851 449.795 432.25 450.176C432.651 450.557 432.667 451.189 432.285 451.591L417.043 467.615C416.847 467.821 416.583 467.925 416.319 467.925Z" fill="#647AB4"/>
<path d="M459.353 467.339C459.097 467.339 458.841 467.242 458.645 467.046L443.464 451.823C443.075 451.432 443.075 450.798 443.467 450.408C443.859 450.018 444.492 450.019 444.881 450.41L460.063 465.632C460.452 466.024 460.452 466.658 460.06 467.047C459.864 467.242 459.609 467.339 459.353 467.339Z" fill="#647AB4"/>
<path d="M475.985 434.97C475.985 442.359 469.996 448.35 462.607 448.35C455.217 448.35 449.228 442.359 449.228 434.97C449.228 427.582 455.217 421.591 462.607 421.591C469.996 421.591 475.985 427.582 475.985 434.97Z" fill="#F1494A"/>
<path d="M459.379 434.936L459.347 434.568C459.752 434.75 460.104 434.984 460.403 435.272C460.701 435.56 460.931 435.875 461.091 436.216C461.251 436.558 461.331 436.91 461.331 437.272C461.331 437.88 461.16 438.44 460.819 438.952C460.488 439.454 460.04 439.859 459.475 440.168C458.909 440.467 458.28 440.616 457.587 440.616C456.893 440.616 456.264 440.467 455.699 440.168C455.133 439.859 454.68 439.454 454.339 438.952C454.008 438.44 453.843 437.88 453.843 437.272C453.843 436.782 453.944 436.36 454.147 436.008C454.36 435.646 454.621 435.342 454.931 435.096C455.251 434.851 455.565 434.648 455.875 434.488L455.747 434.936C455.48 434.83 455.219 434.68 454.963 434.488C454.717 434.286 454.515 434.03 454.355 433.72C454.195 433.411 454.115 433.048 454.115 432.632C454.115 432.035 454.269 431.496 454.579 431.016C454.888 430.526 455.304 430.136 455.827 429.848C456.36 429.56 456.947 429.416 457.587 429.416C458.237 429.416 458.819 429.56 459.331 429.848C459.853 430.136 460.269 430.526 460.579 431.016C460.888 431.496 461.043 432.035 461.043 432.632C461.043 433.091 460.952 433.475 460.771 433.784C460.589 434.094 460.371 434.339 460.115 434.52C459.859 434.702 459.613 434.84 459.379 434.936ZM456.035 432.664C456.035 432.952 456.099 433.208 456.227 433.432C456.365 433.656 456.552 433.838 456.787 433.976C457.021 434.104 457.288 434.168 457.587 434.168C457.885 434.168 458.147 434.104 458.371 433.976C458.605 433.838 458.787 433.656 458.915 433.432C459.053 433.208 459.123 432.952 459.123 432.664C459.123 432.238 458.973 431.886 458.675 431.608C458.387 431.32 458.024 431.176 457.587 431.176C457.139 431.176 456.765 431.32 456.467 431.608C456.179 431.886 456.035 432.238 456.035 432.664ZM457.587 438.856C458.099 438.856 458.531 438.702 458.883 438.392C459.235 438.072 459.411 437.688 459.411 437.24C459.411 436.931 459.331 436.654 459.171 436.408C459.011 436.163 458.792 435.971 458.515 435.832C458.237 435.683 457.928 435.608 457.587 435.608C457.245 435.608 456.936 435.683 456.659 435.832C456.381 435.971 456.163 436.163 456.003 436.408C455.843 436.654 455.763 436.931 455.763 437.24C455.763 437.688 455.939 438.072 456.291 438.392C456.643 438.702 457.075 438.856 457.587 438.856ZM465.824 440.776C465.43 440.776 465.008 440.718 464.56 440.6C464.112 440.472 463.744 440.291 463.456 440.056C463.318 439.939 463.206 439.79 463.12 439.608C463.046 439.416 463.008 439.235 463.008 439.064C463.008 438.883 463.083 438.712 463.232 438.552C463.392 438.392 463.616 438.312 463.904 438.312C464.096 438.312 464.336 438.414 464.624 438.616C464.795 438.723 464.982 438.819 465.184 438.904C465.387 438.99 465.595 439.032 465.808 439.032C466.32 439.032 466.763 438.942 467.136 438.76C467.51 438.568 467.798 438.307 468 437.976C468.203 437.646 468.304 437.256 468.304 436.808C468.304 436.403 468.208 436.056 468.016 435.768C467.835 435.48 467.59 435.256 467.28 435.096C466.982 434.936 466.656 434.856 466.304 434.856C465.974 434.856 465.686 434.91 465.44 435.016C465.195 435.123 464.971 435.235 464.768 435.352C464.566 435.459 464.363 435.512 464.16 435.512C463.808 435.512 463.547 435.438 463.376 435.288C463.206 435.128 463.099 434.942 463.056 434.728C463.014 434.515 463.003 434.323 463.024 434.152L463.52 430.264C463.563 430.04 463.67 429.859 463.84 429.72C464.022 429.571 464.235 429.496 464.48 429.496H469.104C469.36 429.496 469.574 429.582 469.744 429.752C469.915 429.923 470 430.136 470 430.392C470 430.638 469.915 430.846 469.744 431.016C469.574 431.176 469.36 431.256 469.104 431.256H464.976L465.152 431.112L464.72 434.36L464.512 433.752C464.576 433.646 464.715 433.544 464.928 433.448C465.142 433.352 465.387 433.272 465.664 433.208C465.942 433.134 466.214 433.096 466.48 433.096C467.195 433.096 467.835 433.262 468.4 433.592C468.966 433.912 469.408 434.355 469.728 434.92C470.059 435.475 470.224 436.104 470.224 436.808C470.224 437.608 470.043 438.307 469.68 438.904C469.318 439.502 468.806 439.966 468.144 440.296C467.494 440.616 466.72 440.776 465.824 440.776Z" fill="white"/>
<path d="M596.984 430.045H518.823C515.877 430.045 513.489 427.657 513.489 424.712V412.483C513.489 409.537 515.877 407.149 518.823 407.149H596.984C599.929 407.149 602.317 409.537 602.317 412.483V424.712C602.317 427.657 599.929 430.045 596.984 430.045Z" fill="#293D8A"/>
<path d="M524.465 424.602C524.115 424.602 523.833 424.478 523.62 424.227C523.407 423.978 523.313 423.664 523.34 423.29L523.676 420.324L523.64 420.175L523.452 420.212L521.012 421.975C520.712 422.2 520.399 422.283 520.073 422.219C519.749 422.158 519.487 421.963 519.287 421.638C519.061 421.238 519.017 420.887 519.155 420.587C519.291 420.287 519.524 420.075 519.848 419.95L522.588 418.711L522.701 418.599L522.588 418.486L519.848 417.247C519.499 417.098 519.273 416.86 519.175 416.535C519.073 416.21 519.112 415.884 519.287 415.559C519.487 415.234 519.749 415.04 520.073 414.976C520.399 414.915 520.712 414.984 521.012 415.184L523.452 416.986L523.64 417.022L523.676 416.872L523.34 413.907C523.313 413.532 523.413 413.219 523.64 412.97C523.865 412.719 524.165 412.595 524.54 412.595C524.891 412.595 525.177 412.719 525.403 412.97C525.628 413.219 525.716 413.532 525.665 413.907L525.328 416.872L525.365 417.022L525.555 416.986L527.993 415.222C528.292 414.995 528.612 414.915 528.951 414.976C529.287 415.04 529.543 415.234 529.719 415.559C529.944 415.959 529.988 416.31 529.848 416.61C529.712 416.91 529.48 417.123 529.155 417.247L526.416 418.486L526.304 418.599L526.416 418.711L529.155 419.95C529.507 420.099 529.737 420.338 529.848 420.662C529.961 420.988 529.919 421.314 529.719 421.638C529.543 421.963 529.287 422.158 528.951 422.219C528.612 422.283 528.292 422.212 527.993 422.014L525.555 420.212L525.365 420.175L525.328 420.324L525.665 423.29C525.716 423.664 525.621 423.978 525.385 424.227C525.145 424.478 524.84 424.602 524.465 424.602Z" fill="white"/>
<path d="M540.631 424.602C540.281 424.602 540 424.478 539.787 424.227C539.573 423.978 539.48 423.664 539.505 423.29L539.842 420.324L539.805 420.175L539.619 420.212L537.178 421.975C536.878 422.2 536.565 422.283 536.24 422.219C535.916 422.158 535.653 421.963 535.453 421.638C535.228 421.238 535.184 420.887 535.321 420.587C535.457 420.287 535.689 420.075 536.015 419.95L538.755 418.711L538.868 418.599L538.755 418.486L536.015 417.247C535.665 417.098 535.44 416.86 535.34 416.535C535.24 416.21 535.279 415.884 535.453 415.559C535.653 415.234 535.916 415.04 536.24 414.976C536.565 414.915 536.878 414.984 537.178 415.184L539.619 416.986L539.805 417.022L539.842 416.872L539.505 413.907C539.48 413.532 539.58 413.219 539.805 412.97C540.031 412.719 540.33 412.595 540.706 412.595C541.057 412.595 541.344 412.719 541.569 412.97C541.795 413.219 541.883 413.532 541.832 413.907L541.495 416.872L541.532 417.022L541.72 416.986L544.159 415.222C544.457 414.995 544.779 414.915 545.116 414.976C545.453 415.04 545.709 415.234 545.885 415.559C546.109 415.959 546.153 416.31 546.014 416.61C545.878 416.91 545.647 417.123 545.321 417.247L542.583 418.486L542.47 418.599L542.583 418.711L545.321 419.95C545.672 420.099 545.904 420.338 546.014 420.662C546.128 420.988 546.085 421.314 545.885 421.638C545.709 421.963 545.453 422.158 545.116 422.219C544.779 422.283 544.457 422.212 544.159 422.014L541.72 420.212L541.532 420.175L541.495 420.324L541.832 423.29C541.883 423.664 541.788 423.978 541.551 424.227C541.312 424.478 541.007 424.602 540.631 424.602Z" fill="white"/>
<path d="M556.797 424.602C556.448 424.602 556.165 424.478 555.953 424.227C555.739 423.978 555.645 423.664 555.672 423.29L556.009 420.324L555.972 420.175L555.785 420.212L553.344 421.975C553.044 422.2 552.731 422.283 552.407 422.219C552.081 422.158 551.819 421.963 551.62 421.638C551.393 421.238 551.349 420.887 551.488 420.587C551.624 420.287 551.856 420.075 552.181 419.95L554.921 418.711L555.033 418.599L554.921 418.486L552.181 417.247C551.832 417.098 551.605 416.86 551.507 416.535C551.407 416.21 551.445 415.884 551.62 415.559C551.819 415.234 552.081 415.04 552.407 414.976C552.731 414.915 553.044 414.984 553.344 415.184L555.785 416.986L555.972 417.022L556.009 416.872L555.672 413.907C555.645 413.532 555.747 413.219 555.972 412.97C556.197 412.719 556.497 412.595 556.873 412.595C557.224 412.595 557.509 412.719 557.735 412.97C557.961 413.219 558.049 413.532 557.997 413.907L557.661 416.872L557.699 417.022L557.887 416.986L560.325 415.222C560.624 414.995 560.944 414.915 561.283 414.976C561.62 415.04 561.876 415.234 562.052 415.559C562.276 415.959 562.32 416.31 562.181 416.61C562.045 416.91 561.812 417.123 561.488 417.247L558.749 418.486L558.636 418.599L558.749 418.711L561.488 419.95C561.839 420.099 562.069 420.338 562.181 420.662C562.293 420.988 562.251 421.314 562.052 421.638C561.876 421.963 561.62 422.158 561.283 422.219C560.944 422.283 560.624 422.212 560.325 422.014L557.887 420.212L557.699 420.175L557.661 420.324L557.997 423.29C558.049 423.664 557.953 423.978 557.717 424.227C557.479 424.478 557.172 424.602 556.797 424.602Z" fill="white"/>
<path d="M572.963 424.602C572.613 424.602 572.332 424.478 572.12 424.227C571.905 423.978 571.812 423.664 571.839 423.29L572.176 420.324L572.137 420.175L571.951 420.212L569.511 421.975C569.211 422.2 568.897 422.283 568.572 422.219C568.248 422.158 567.985 421.963 567.785 421.638C567.56 421.238 567.516 420.887 567.653 420.587C567.789 420.287 568.023 420.075 568.347 419.95L571.087 418.711L571.2 418.599L571.087 418.486L568.347 417.247C567.997 417.098 567.772 416.86 567.673 416.535C567.572 416.21 567.611 415.884 567.785 415.559C567.985 415.234 568.248 415.04 568.572 414.976C568.897 414.915 569.211 414.984 569.511 415.184L571.951 416.986L572.137 417.022L572.176 416.872L571.839 413.907C571.812 413.532 571.912 413.219 572.137 412.97C572.364 412.719 572.664 412.595 573.039 412.595C573.389 412.595 573.676 412.719 573.901 412.97C574.127 413.219 574.215 413.532 574.164 413.907L573.827 416.872L573.864 417.022L574.053 416.986L576.492 415.222C576.791 414.995 577.111 414.915 577.449 414.976C577.785 415.04 578.041 415.234 578.217 415.559C578.443 415.959 578.487 416.31 578.347 416.61C578.211 416.91 577.979 417.123 577.653 417.247L574.915 418.486L574.803 418.599L574.915 418.711L577.653 419.95C578.005 420.099 578.236 420.338 578.347 420.662C578.46 420.988 578.417 421.314 578.217 421.638C578.041 421.963 577.785 422.158 577.449 422.219C577.111 422.283 576.791 422.212 576.492 422.014L574.053 420.212L573.864 420.175L573.827 420.324L574.164 423.29C574.215 423.664 574.12 423.978 573.884 424.227C573.644 424.478 573.339 424.602 572.963 424.602Z" fill="white"/>
<path d="M589.13 424.602C588.78 424.602 588.499 424.478 588.287 424.227C588.072 423.978 587.979 423.664 588.004 423.29L588.343 420.324L588.304 420.175L588.118 420.212L585.678 421.975C585.378 422.2 585.064 422.283 584.739 422.219C584.415 422.158 584.152 421.963 583.952 421.638C583.727 421.238 583.683 420.887 583.82 420.587C583.956 420.287 584.188 420.075 584.514 419.95L587.254 418.711L587.367 418.599L587.254 418.486L584.514 417.247C584.164 417.098 583.939 416.86 583.839 416.535C583.739 416.21 583.778 415.884 583.952 415.559C584.152 415.234 584.415 415.04 584.739 414.976C585.064 414.915 585.378 414.984 585.678 415.184L588.118 416.986L588.304 417.022L588.343 416.872L588.004 413.907C587.979 413.532 588.079 413.219 588.304 412.97C588.53 412.719 588.83 412.595 589.206 412.595C589.556 412.595 589.843 412.719 590.068 412.97C590.293 413.219 590.382 413.532 590.331 413.907L589.994 416.872L590.031 417.022L590.219 416.986L592.658 415.222C592.956 414.995 593.278 414.915 593.615 414.976C593.952 415.04 594.208 415.234 594.384 415.559C594.608 415.959 594.652 416.31 594.514 416.61C594.378 416.91 594.146 417.123 593.82 417.247L591.082 418.486L590.968 418.599L591.082 418.711L593.82 419.95C594.171 420.099 594.403 420.338 594.514 420.662C594.627 420.988 594.584 421.314 594.384 421.638C594.208 421.963 593.952 422.158 593.615 422.219C593.278 422.283 592.956 422.212 592.658 422.014L590.219 420.212L590.031 420.175L589.994 420.324L590.331 423.29C590.382 423.664 590.287 423.978 590.05 424.227C589.811 424.478 589.506 424.602 589.13 424.602Z" fill="#5DA4DE"/>
</g>
<path d="M204.5 122V117.31L231.52 79.02H205.2V73.7H238.8V78.39L211.78 116.68H239.5V122H204.5ZM248.293 78.81V72.23H254.453V78.81H248.293ZM248.573 122V85.6H254.173V122H248.573ZM265.109 112.06V70.2H270.709V112.62C270.709 115.84 272.342 117.543 275.609 117.73V122.56C268.609 122.56 265.109 119.06 265.109 112.06ZM283.293 78.81V72.23H289.453V78.81H283.293ZM283.573 122V85.6H289.173V122H283.573ZM300.389 122V85.6H319.989C326.989 85.6 330.489 89.1 330.489 96.1V122H324.889V95.4C324.889 92.1333 323.256 90.5 319.989 90.5H305.989V122H300.389ZM340.845 111.5V96.1C340.845 89.1 344.345 85.6 351.345 85.6H370.945V125.5C370.945 132.5 367.445 136 360.445 136H346.445L343.645 133.9V131.1H360.445C363.711 131.1 365.345 129.467 365.345 126.2V122H351.345C344.345 122 340.845 118.5 340.845 111.5ZM346.445 112.2C346.445 115.467 348.078 117.1 351.345 117.1H365.345V90.5H351.345C348.078 90.5 346.445 92.1333 346.445 95.4V112.2ZM381.867 78.81V72.23H388.027V78.81H381.867ZM382.147 122V85.6H387.747V122H382.147ZM407.573 122C400.527 122 397.003 118.477 397.003 111.43C397.003 104.383 400.527 100.86 407.573 100.86H420.383V95.4C420.383 92.1333 418.75 90.5 415.483 90.5H400.503V87.7L403.303 85.6H415.483C422.483 85.6 425.983 89.1 425.983 96.1V122H407.573ZM402.603 112.2C402.603 115.467 404.237 117.1 407.503 117.1H420.383V105.41H407.503C404.237 105.41 402.603 107.043 402.603 110.31V112.2ZM436.623 112.06V70.2H442.223V112.62C442.223 115.84 443.856 117.543 447.123 117.73V122.56C440.123 122.56 436.623 119.06 436.623 112.06Z" fill="url(#paint3_linear_2648_141)"/>
<defs>
<linearGradient id="paint0_linear_2648_141" x1="53.1951" y1="449.732" x2="608.012" y2="452.294" gradientUnits="userSpaceOnUse">
<stop stop-color="#8F52F3"/>
<stop offset="1" stop-color="#00AAE1"/>
</linearGradient>
<linearGradient id="paint1_linear_2648_141" x1="54.278" y1="453.572" x2="607.477" y2="456.111" gradientUnits="userSpaceOnUse">
<stop stop-color="#8F52F3"/>
<stop offset="1" stop-color="#00AAE1"/>
</linearGradient>
<linearGradient id="paint2_linear_2648_141" x1="60.4389" y1="463.06" x2="606.944" y2="466.026" gradientUnits="userSpaceOnUse">
<stop stop-color="#8F52F3"/>
<stop offset="1" stop-color="#00AAE1"/>
</linearGradient>
<linearGradient id="paint3_linear_2648_141" x1="209.145" y1="102" x2="445.346" y2="99.6791" gradientUnits="userSpaceOnUse">
<stop stop-color="#8F52F3"/>
<stop offset="1" stop-color="#00AAE1"/>
</linearGradient>
<clipPath id="clip0_2648_141">
<rect width="650" height="459" fill="white" transform="translate(0 220)"/>
</clipPath>
</defs>
</svg>
