<svg width="275" height="210" viewBox="0 0 275 210" fill="none" xmlns="http://www.w3.org/2000/svg">
<g clip-path="url(#clip0_2382_17461)">
<path d="M19.6517 199.707C19.6517 199.707 -5.80156 181.822 5.90075 159.344C17.6057 136.866 41.0128 102.354 29.2992 84.7565C17.6057 67.1656 16.4138 10.8025 83.712 2.16245C137.387 -4.72417 153.703 23.6245 162.022 42.9722C172.995 68.494 163.189 115.086 214.509 121.233C265.843 127.376 295.164 152.759 258.394 194.127C242.326 212.206 19.6517 199.707 19.6517 199.707Z" fill="#25253A"/>
<path d="M111.556 185.641C73.6779 193.919 42.8286 182.425 53.3556 162.867C63.877 143.308 57.4292 140.843 49.3129 134.69C41.1958 128.541 22.9606 111.41 40.7246 92.5934C58.5107 73.789 45.0005 68.332 39.4488 57.2658C23.229 24.9804 89.0095 11.7252 71.2097 41.438C57.8477 63.7379 58.552 80.8149 75.1569 92.1611C91.7764 103.51 95.0906 109.495 94.3572 123.52C93.6197 137.545 87.8834 167.354 104.818 166.113C121.739 164.872 130.983 181.393 111.556 185.641Z" fill="#7585F8"/>
<path d="M42.7517 52.8637C40.9934 49.522 40.5798 33.1356 56.478 33.9848C66.1534 34.502 61.1295 47.7167 58.9357 57.8843C56.7468 68.0528 58.2428 84.0166 62.2855 90.5915C69.755 102.718 68.1586 107.821 58.9106 118.225C58.9106 118.225 54.1085 125.952 62.968 134.244C71.8241 142.535 68.4023 165.37 78.6913 169.071C88.9796 172.769 94.792 180.658 87.7418 181.393C80.707 182.132 51.5253 184.967 59.2069 165.754C70.4018 137.784 48.5754 129.492 43.1379 123.285C38.1528 117.595 33.8876 104.882 48.3479 88.9393C59.5356 76.5989 48.1456 63.1576 42.7517 52.8637Z" fill="#8B9CF9"/>
<path d="M82.1091 198.414L81.5287 200.978C80.9782 200.838 67.7862 197.521 53.5694 188.399C34.644 176.248 23.1415 159.569 20.3256 140.128L22.7772 139.706C29.3214 184.852 81.5813 198.28 82.1091 198.414Z" fill="#7585F8"/>
<path d="M22.1087 142.722C22.1087 142.722 8.36323 135.43 14.0581 118.633C14.0581 118.633 26.256 128.544 22.1087 142.722Z" fill="#7585F8"/>
<path d="M26.5111 156.455C26.5111 156.455 7.77162 162.716 0.151001 141.561C0.151001 141.561 10.1468 137.891 26.5111 156.455Z" fill="#7585F8"/>
<path d="M25.8727 156.539C25.8727 156.539 43.2723 146.834 34.5998 126.155C34.5998 126.155 25.1002 131.077 25.8727 156.539Z" fill="#7585F8"/>
<path d="M36.2628 172.199C36.2628 172.199 18.1974 180.461 8.5603 160.267C8.5603 160.267 18.1477 155.525 36.2628 172.199Z" fill="#7585F8"/>
<path d="M35.6271 172.344C35.6271 172.344 52.0054 160.812 41.3521 141.191C41.3521 141.191 32.3701 147.127 35.6271 172.344Z" fill="#7585F8"/>
<path d="M51.8159 185.879C51.8159 185.879 35.3258 197.267 22.5555 179.146C22.5555 179.146 31.2389 172.736 51.8159 185.879Z" fill="#7585F8"/>
<path d="M51.2055 186.136C51.2055 186.136 65.488 171.818 51.8135 154.441C51.8135 154.441 43.9158 161.908 51.2055 186.136Z" fill="#7585F8"/>
<path d="M67.8024 194.462C67.8024 194.462 54.6817 209.976 37.8403 196.031C37.8403 196.031 44.6695 187.471 67.8024 194.462Z" fill="#7585F8"/>
<path d="M67.2932 194.878C67.2932 194.878 77.5927 177.157 60.069 164.184C60.069 164.184 54.2728 173.544 67.2932 194.878Z" fill="#7585F8"/>
<path d="M179.756 198.472C216.029 208.371 246.468 198.767 237.248 179.302C228.024 159.842 234.39 157.777 242.559 152.219C250.73 146.664 269.228 130.982 252.957 111.884C236.675 92.7829 250.023 88.1727 255.949 77.7306C273.247 47.2675 210.208 31.1685 225.973 60.8294C237.809 83.0889 236.283 99.5845 219.629 109.75C202.982 119.921 199.481 125.552 199.493 139.169C199.506 152.789 203.587 181.937 187.25 179.9C170.922 177.856 161.153 193.393 179.756 198.472Z" fill="#7585F8"/>
<path d="M215.708 196.68C210.463 196.68 205.416 195.915 203.023 195.541C196.235 194.48 202.256 187.126 212.408 184.058C222.551 180.984 220.369 158.7 229.35 151.11C238.343 143.522 234.083 135.795 234.083 135.795C225.644 125.262 224.348 120.241 232.183 108.871C236.425 102.702 238.661 87.3179 237.048 77.3632C235.431 67.406 231.219 54.3589 240.608 54.3371C240.624 54.3371 240.637 54.3371 240.653 54.3371C256.043 54.3371 254.835 70.1544 252.962 73.3034C247.241 83.0039 235.538 95.4568 245.761 107.962C258.97 124.117 254.215 136.216 249.103 141.478C243.526 147.22 221.982 154.169 231.432 181.811C235.64 194.105 225.339 196.68 215.708 196.68Z" fill="#8B9CF9"/>
<path d="M174.475 197.833L173.924 194.472C227.307 185.748 250.399 143.944 250.631 143.511L253.631 145.132C253.395 145.557 229.564 188.835 174.475 197.833Z" fill="#EBF2FF"/>
<path d="M250.409 146.371C250.409 146.371 257.381 128.344 266.473 134.098C270.337 136.54 268.25 145.289 250.409 146.371Z" fill="#EBF2FF"/>
<path d="M246.364 152.266C246.364 152.266 264.133 141.996 265.988 152.375C266.769 156.805 258.98 162.603 246.364 152.266Z" fill="#EBF2FF"/>
<path d="M246.4 154.18C246.4 154.18 257.277 137.586 246.079 135.986C241.307 135.293 235.124 142.574 246.4 154.18Z" fill="#EBF2FF"/>
<path d="M234.563 166.208C234.563 166.208 246.273 150.019 235.21 147.911C230.498 147.006 223.984 154.022 234.563 166.208Z" fill="#EBF2FF"/>
<path d="M224.189 175.374C224.189 175.374 235.815 159.169 224.748 157.082C220.031 156.18 213.539 163.225 224.189 175.374Z" fill="#EBF2FF"/>
<path d="M209.688 184.394C209.688 184.394 224.039 170.079 213.775 166.145C209.395 164.472 201.779 170.449 209.688 184.394Z" fill="#EBF2FF"/>
<path d="M197.128 190.117C197.128 190.117 211.071 175.454 200.637 171.818C196.213 170.284 188.748 176.44 197.128 190.117Z" fill="#EBF2FF"/>
<path d="M179.931 195.05C179.931 195.05 197.306 184.104 188.699 177.814C185.026 175.13 176.236 179.313 179.931 195.05Z" fill="#EBF2FF"/>
<path d="M237.678 163.124C237.678 163.124 255.478 152.85 257.313 163.245C258.096 167.663 250.325 173.449 237.678 163.124Z" fill="#EBF2FF"/>
<path d="M227.06 172.701C227.06 172.701 244.857 162.447 246.693 172.832C247.484 177.248 239.696 183.042 227.06 172.701Z" fill="#EBF2FF"/>
<path d="M215.399 180.494C215.399 180.494 234.806 174.027 233.985 184.786C233.654 189.366 224.825 193.505 215.399 180.494Z" fill="#EBF2FF"/>
<path d="M201.615 187.797C201.615 187.797 221.436 183.187 219.404 193.93C218.536 198.502 209.414 201.802 201.615 187.797Z" fill="#EBF2FF"/>
<path d="M187.004 192.919C187.004 192.919 207.009 190.936 203.357 201.487C201.777 205.969 192.384 208.061 187.004 192.919Z" fill="#EBF2FF"/>
<path d="M257.501 202.772C257.501 207.012 202.875 210.45 135.484 210.45C68.0979 210.45 13.4667 207.012 13.4667 202.772C13.4667 198.532 68.0979 195.096 135.484 195.096C202.875 195.096 257.501 198.532 257.501 202.772Z" fill="#39394E"/>
<path d="M227.778 116.346C227.778 163.571 189.494 201.852 142.269 201.852C95.0412 201.852 56.7605 163.571 56.7605 116.346C56.7605 69.118 95.0412 30.834 142.269 30.834C189.494 30.834 227.778 69.118 227.778 116.346Z" fill="url(#paint0_linear_2382_17461)"/>
<path d="M149.898 148.127C152.38 152.169 149.876 158.229 144.294 161.655C138.719 165.08 132.178 164.579 129.696 160.533L101.148 114.037C98.6631 109.991 101.167 103.937 106.752 100.51C112.326 97.083 118.867 97.5873 121.349 101.63L149.898 148.127Z" fill="#F6F5F7"/>
<path d="M148.857 158.276C145.433 163.85 138.133 165.6 132.559 162.176C126.973 158.753 125.231 151.452 128.655 145.869L167.999 81.749C171.423 76.169 178.723 74.4212 184.306 77.8455C189.883 81.2698 191.633 88.5669 188.209 94.1469L148.857 158.276Z" fill="#F6F5F7"/>
<path d="M79.513 104.493C80.6989 103.945 84.5944 103.641 86.6263 106.717C89.3681 110.834 90.3136 120.863 96.4272 123.884C102.561 126.898 106.382 124.325 109.165 122.925C111.946 121.54 112.406 119.669 114.129 119.038C115.832 118.412 116.498 120.479 112.57 123.783C110.675 125.36 102.336 134.288 94.3815 132.058C83.9419 129.116 72.4976 107.695 79.513 104.493Z" fill="#E28C71"/>
<path d="M88.5934 169.219C86.8813 179.675 85.501 201.852 90.0894 201.676C94.6907 201.499 97.1509 199.808 94.4527 199.162C91.7384 198.512 91.6421 198.206 91.6696 197.376C91.8801 192.144 95.9212 182.187 97.4464 174.566C99.2217 165.723 90.1056 160.078 88.5934 169.219Z" fill="#F27851"/>
<path d="M87.9993 199.575C87.9993 199.575 92.1157 201.066 94.4528 199.162C94.4528 199.162 99.0023 199.543 96.241 200.929C93.4967 202.32 88.0924 203.665 87.9993 199.575Z" fill="#6E86CC"/>
<path d="M71.7497 126.227C71.7497 126.227 95.4201 142.845 98.8274 151.342C101.884 158.988 94.7871 189.78 94.7871 189.78C94.7871 189.78 89.7988 191.768 85.2185 188.961L85.8184 165.014L65.8409 146.743L71.7497 126.227Z" fill="#296DD8"/>
<path d="M56.4812 170.517C47.7375 177.735 31.0087 194.628 34.8409 197.721C38.67 200.802 41.8507 201.178 40.1191 198.77C38.3989 196.332 38.5276 196 39.1412 195.365C42.9986 191.303 53.2463 186.114 59.8286 181.058C67.4899 175.196 64.1207 164.217 56.4812 170.517Z" fill="#F27851"/>
<path d="M34.6272 194.56C34.6272 194.56 36.9012 198.653 40.1191 198.77C40.1191 198.77 43.511 202.265 40.3223 201.444C37.1336 200.622 31.8441 197.916 34.6272 194.56Z" fill="#6E86CC"/>
<path d="M68.2436 126.109C68.2436 126.109 80.5265 154.087 77.286 163.324C74.3798 171.64 47.0001 191.445 47.0001 191.445C47.0001 191.445 41.5763 189.533 39.8593 184.047L57.196 165.179C57.196 165.179 50.2657 143.369 53.6681 135.282C53.7887 135.011 53.1937 137.208 53.1937 137.208L68.2436 126.109Z" fill="#3377E2"/>
<path d="M83.0166 138.49C87.5523 132.505 90.1161 123.227 90.2942 116.025C90.5435 106.038 81.7181 103.461 76.1105 102.932C70.5005 102.392 61.3319 101.305 61.7075 113.752C61.9568 122.438 58.8037 126.974 54.3991 134.318C54.2809 134.512 54.1611 134.672 54.0429 134.855C47.8331 142.481 77.864 145.278 83.0166 138.49Z" fill="#FCDCDA"/>
<path d="M54.3991 134.318C54.2809 134.512 54.1611 134.672 54.0429 134.855C49.236 140.753 66.1073 143.75 76.3793 141.684C77.9733 139.298 70.2545 138.663 67.3968 136.345C60.8089 131.004 84.3013 130.549 80.2553 128.585C75.8863 126.481 69.3826 127.319 72.2451 120.924C75.097 114.516 72.6426 106.863 69.9339 104.271C67.1095 101.562 62.381 104.737 61.8662 110.631C61.7375 111.571 61.6614 112.59 61.7075 113.752C61.9568 122.438 58.8037 126.974 54.3991 134.318Z" fill="#EFBEBD"/>
<path d="M76.9079 95.6097C76.9079 95.6097 78.1457 100.345 74.651 102.093C71.0672 103.873 82.0605 112.632 82.233 110.035C82.4572 106.684 81.1344 104.427 83.4432 100.962L76.9079 95.6097Z" fill="#E67052"/>
<path d="M85.3634 88.6575C87.673 91.8049 88.5197 103.929 85.1173 105.937C83.627 106.796 78.6063 104.573 76.2287 98.8664C75.2395 96.5301 74.2859 92.3003 77.1265 88.7611C78.4144 87.151 82.679 84.9863 85.3634 88.6575Z" fill="#EE9D7F"/>
<path d="M75.3682 88.5944C72.3689 92.3636 73.6812 96.004 73.8941 96.6727C74.6752 99.1158 76.661 101.392 77.2665 100.685C77.987 99.8419 75.2589 98.9595 76.5104 96.5407C77.7676 94.117 76.168 93.2621 77.001 91.095C77.8113 88.9369 79.4085 89.6759 84.4624 89.8354C86.5331 89.901 87.0537 89.1967 86.98 88.337C84.4163 84.6609 78.5237 84.6277 75.3682 88.5944Z" fill="#062440"/>
<path d="M87.3913 91.2821C88.6234 88.3565 93.0143 89.0576 91.6146 86.9892C90.678 85.6033 90.6666 86.6468 80.206 84.5129C75.3213 83.5188 74.3604 85.6033 73.4286 88.3565C72.5657 90.8984 72.8344 97.1439 76.1794 100.822C79.513 104.493 76.075 98.376 77.354 95.6098C78.6339 92.8461 79.4774 94.0159 81.3183 94.4733C83.1591 94.925 85.4047 95.9936 87.3913 91.2821Z" fill="#353A66"/>
<path d="M52.9226 142.604L61.7845 155.309L133.106 105.515L142.269 89.6678L124.231 92.8128L52.9226 142.604Z" fill="#494C7F"/>
<path d="M57.834 149.649L61.7845 155.309L133.106 105.515L129.151 99.8557L57.834 149.649Z" fill="#373C66"/>
<path d="M142.269 89.6678L139.79 93.9607L137.399 90.5226L142.269 89.6678Z" fill="#1F1440"/>
<path d="M67.8761 103.507C69.2054 103.614 71.5198 105.619 71.8185 109.344C72.237 114.33 69.4134 123.298 73.3493 128.969C77.3022 134.65 81.9505 134.244 85.0899 134.375C88.2486 134.512 89.5689 133.085 91.3847 133.359C93.2094 133.636 92.782 135.803 87.6787 136.8C85.238 137.274 73.47 141.084 67.5208 135.195C59.7242 127.481 60.1023 102.891 67.8761 103.507Z" fill="#E28C71"/>
</g>
<defs>
<linearGradient id="paint0_linear_2382_17461" x1="106.839" y1="116.1" x2="224.632" y2="118.035" gradientUnits="userSpaceOnUse">
<stop stop-color="#8F52F3"/>
<stop offset="1" stop-color="#00AAE1"/>
</linearGradient>
<clipPath id="clip0_2382_17461">
<rect width="275" height="210" fill="white"/>
</clipPath>
</defs>
</svg>
