<svg width="1310" height="938" viewBox="0 0 1310 938" fill="none" xmlns="http://www.w3.org/2000/svg">
<path d="M310 123C310 117.477 314.477 113 320 113H960V793H320C314.477 793 310 788.523 310 783V123Z" fill="#18182D"/>
<g opacity="0.2" filter="url(#filter0_f_2380_10410)">
<ellipse cx="455" cy="477" rx="183" ry="177" fill="#940DFF"/>
</g>
<g opacity="0.2" filter="url(#filter1_f_2380_10410)">
<ellipse cx="827" cy="477" rx="183" ry="177" fill="#1D7BBC"/>
</g>
<g clip-path="url(#clip0_2380_10410)">
<g opacity="0.5">
<path d="M444.285 769.349C444.285 769.349 371.457 717.488 350.492 629.212C329.525 540.936 361.525 433.901 422.216 379.832C482.905 325.764 592.147 362.177 640.699 407.419C689.249 452.66 689.249 452.66 689.249 452.66C689.249 452.66 735.595 478.039 796.285 475.832C856.975 473.625 911.043 556.384 925.388 621.488C939.732 686.591 905.525 772.659 905.525 772.659L444.285 769.349Z" fill="#D1EBFA"/>
<path d="M444.285 769.349C444.285 769.349 371.457 717.488 350.492 629.212C329.525 540.936 361.525 433.901 422.216 379.832C482.905 325.764 592.147 362.177 640.699 407.419C689.249 452.66 689.249 452.66 689.249 452.66C689.249 452.66 735.595 478.039 796.285 475.832C856.975 473.625 911.043 556.384 925.388 621.488C939.732 686.591 905.525 772.659 905.525 772.659L444.285 769.349Z" fill="url(#paint0_linear_2380_10410)"/>
</g>
<g opacity="0.5">
<path d="M402.905 777.18C387.956 766.351 357.082 738.856 347.181 691.004C343.072 671.146 345.764 651.815 351.595 633.644C366.18 689.626 401.348 730.438 423.929 751.971H402.905V777.18ZM913.732 751.971H912.633C918.004 734.662 924.908 708.371 927.675 680.419C929.308 694.988 927.944 710.099 923.18 727.419C920.529 737.06 917.245 745.176 913.732 751.971ZM893.252 544.628C869.147 506.26 835.192 475.79 798.665 475.79C797.875 475.79 797.077 475.804 796.285 475.832C793.755 475.924 791.255 475.968 788.777 475.968C731.816 475.968 689.249 452.66 689.249 452.66C689.249 452.66 689.249 452.66 640.699 407.419C638.067 404.967 635.253 402.536 632.283 400.15C659.492 386.075 691.733 355.964 738.695 355.964C745.104 355.964 751.785 356.524 758.768 357.764C827.18 369.902 893.388 406.315 896.699 485.764C897.823 512.759 895.636 530.836 893.252 544.628Z" fill="#D1EAF9"/>
<path d="M402.905 777.18C387.956 766.351 357.082 738.856 347.181 691.004C343.072 671.146 345.764 651.815 351.595 633.644C366.18 689.626 401.348 730.438 423.929 751.971H402.905V777.18ZM913.732 751.971H912.633C918.004 734.662 924.908 708.371 927.675 680.419C929.308 694.988 927.944 710.099 923.18 727.419C920.529 737.06 917.245 745.176 913.732 751.971ZM893.252 544.628C869.147 506.26 835.192 475.79 798.665 475.79C797.875 475.79 797.077 475.804 796.285 475.832C793.755 475.924 791.255 475.968 788.777 475.968C731.816 475.968 689.249 452.66 689.249 452.66C689.249 452.66 689.249 452.66 640.699 407.419C638.067 404.967 635.253 402.536 632.283 400.15C659.492 386.075 691.733 355.964 738.695 355.964C745.104 355.964 751.785 356.524 758.768 357.764C827.18 369.902 893.388 406.315 896.699 485.764C897.823 512.759 895.636 530.836 893.252 544.628Z" fill="url(#paint1_linear_2380_10410)"/>
</g>
<g opacity="0.5">
<path d="M912.633 751.971H817.477C826.719 727.408 837.004 692.84 833.967 666.728C828.705 621.488 803.445 578.453 751.872 545.349C732.328 532.804 701.6 523.587 668.163 521.601C670.204 509.141 670.295 496.004 669.664 489.073C668.561 476.936 662.768 467.004 662.768 467.004C662.768 467.004 651.876 460.827 637.953 460.827C633.74 460.827 629.248 461.393 624.699 462.867C605.112 469.211 598.216 499.556 600.423 515.556C601.052 520.116 602.191 524.035 603.699 527.477C569.987 536.247 538.953 554.853 519.271 587.28C490.372 634.892 492.207 684.924 499.963 720.3V751.971H423.929C401.348 730.437 366.18 689.625 351.595 633.644C364.557 593.257 393.031 558.592 396.836 536.521C402.353 504.521 390.215 464.797 440.975 433.901C491.732 403.004 582.216 414.039 616.423 406.315C621.559 405.155 626.819 402.976 632.283 400.149C635.253 402.536 638.067 404.967 640.699 407.419C689.249 452.66 689.249 452.66 689.249 452.66C689.249 452.66 731.816 475.968 788.777 475.968C791.255 475.968 793.754 475.924 796.285 475.832C797.077 475.804 797.875 475.789 798.665 475.789C835.192 475.789 869.147 506.26 893.252 544.628C888.621 571.425 883.253 582.041 900.008 610.453C915.429 636.601 925.147 657.86 927.675 680.419C924.908 708.371 918.004 734.661 912.633 751.971Z" fill="#B0D6F2"/>
<path d="M912.633 751.971H817.477C826.719 727.408 837.004 692.84 833.967 666.728C828.705 621.488 803.445 578.453 751.872 545.349C732.328 532.804 701.6 523.587 668.163 521.601C670.204 509.141 670.295 496.004 669.664 489.073C668.561 476.936 662.768 467.004 662.768 467.004C662.768 467.004 651.876 460.827 637.953 460.827C633.74 460.827 629.248 461.393 624.699 462.867C605.112 469.211 598.216 499.556 600.423 515.556C601.052 520.116 602.191 524.035 603.699 527.477C569.987 536.247 538.953 554.853 519.271 587.28C490.372 634.892 492.207 684.924 499.963 720.3V751.971H423.929C401.348 730.437 366.18 689.625 351.595 633.644C364.557 593.257 393.031 558.592 396.836 536.521C402.353 504.521 390.215 464.797 440.975 433.901C491.732 403.004 582.216 414.039 616.423 406.315C621.559 405.155 626.819 402.976 632.283 400.149C635.253 402.536 638.067 404.967 640.699 407.419C689.249 452.66 689.249 452.66 689.249 452.66C689.249 452.66 731.816 475.968 788.777 475.968C791.255 475.968 793.754 475.924 796.285 475.832C797.077 475.804 797.875 475.789 798.665 475.789C835.192 475.789 869.147 506.26 893.252 544.628C888.621 571.425 883.253 582.041 900.008 610.453C915.429 636.601 925.147 657.86 927.675 680.419C924.908 708.371 918.004 734.661 912.633 751.971Z" fill="url(#paint2_linear_2380_10410)"/>
</g>
<path d="M817.477 751.971H724.829C726.37 746.424 730.077 726.04 730.077 726.04C730.077 726.04 698.629 699.097 696.974 694.683C695.87 691.74 696.422 637.212 691.732 612.108C687.042 587.004 680.974 581.947 668.285 575.695C655.17 569.232 635.732 563.188 635.732 563.188C635.732 563.188 639.594 572.108 643.18 593.073C646.768 614.04 650.077 649.349 650.905 673.625C651.656 695.636 652.178 743.271 652.27 751.971H613.261C613.924 745.743 616.528 720.421 615.318 717.764C614.786 716.591 601.912 715.913 586.308 715.521V615.971C586.308 615.971 570.44 614.863 553.172 614.863C537.056 614.863 519.72 615.828 512.928 619.556C498.86 627.28 499.962 654.04 499.962 654.04V720.3C492.206 684.924 490.372 634.892 519.27 587.28C538.953 554.853 569.986 536.247 603.698 527.477C603.849 527.82 604.002 528.159 604.16 528.492C603.053 537.289 600.876 553.747 599.87 555.556C598.492 558.039 598.492 558.039 598.492 558.039L591.594 562.729C591.594 562.729 604.836 581.488 621.112 584.521C623.322 584.935 625.206 585.112 626.813 585.112C637.038 585.112 636.008 577.901 636.008 577.901L633.525 572.66L635.69 553.903C637.388 554.165 639.113 554.308 640.833 554.308C647.982 554.308 655.052 551.865 659.732 545.625C663.993 539.944 666.629 530.964 668.162 521.601C701.6 523.587 732.328 532.804 751.872 545.349C803.445 578.453 828.705 621.488 833.966 666.728C837.004 692.84 826.718 727.408 817.477 751.971Z" fill="#95C3EB"/>
<path d="M880.285 612.2H820.789C817.109 612.2 814.123 609.215 814.123 605.534V575.832C814.123 572.151 817.109 569.166 820.789 569.166H880.285C883.967 569.166 886.952 572.151 886.952 575.832V605.534C886.952 609.215 883.967 612.2 880.285 612.2Z" fill="#599FDC"/>
<path d="M850.537 629.028L859.965 606.683H841.109L850.537 629.028Z" fill="#599FDC"/>
<path d="M850.312 583.293H867.343V585.785L875.692 580.971L867.343 576.157V578.649H850.312V583.293Z" fill="#293D8A"/>
<path d="M875.692 593.087H858.661V590.595L850.312 595.408L858.661 600.221V597.729H875.692V593.087Z" fill="white"/>
<path d="M839.859 597.467L839.048 597.763C839.048 597.763 836.521 594.877 835.209 591.735C833.897 588.593 833.852 584.756 833.852 584.756L834.445 584.508L830.843 575.889C830.201 576.391 829.589 577.036 829.095 577.872C827.057 581.316 827.259 586.601 829.309 591.765C831.359 596.928 833.551 601.533 837.551 604.429C839.911 606.139 841.933 606.437 843.504 606.189L839.859 597.467Z" fill="#293D8A"/>
<path d="M842.445 596.452L841.325 596.859L845.011 605.683C845.428 605.547 845.801 605.379 846.125 605.201C847.077 604.68 847.496 603.535 847.095 602.527L845.169 597.675C844.741 596.599 843.535 596.055 842.445 596.452Z" fill="#293D8A"/>
<path d="M833.658 574.379C833.205 574.542 832.712 574.763 832.216 575.055L835.893 583.857L837.13 583.34C838.205 582.892 838.725 581.668 838.301 580.584L836.368 575.621C835.949 574.544 834.746 573.986 833.658 574.379Z" fill="#293D8A"/>
<path d="M499.963 753.35V654.04C499.963 654.04 498.86 627.28 512.928 619.556C526.997 611.832 586.308 615.971 586.308 615.971V753.35H499.963Z" fill="#3A76C4"/>
<path d="M604.836 523.004C604.836 523.004 601.251 553.074 599.871 555.556C598.492 558.039 598.492 558.039 598.492 558.039L591.595 562.73C591.595 562.73 604.836 581.488 621.112 584.522C637.388 587.556 636.008 577.902 636.008 577.902L633.525 572.66L636.837 543.97C636.837 543.97 607.319 530.454 604.836 523.004Z" fill="#F57C83"/>
<path d="M583.042 565.212L593.801 560.522C593.801 560.522 600.698 571.832 616.698 578.454C632.698 585.074 632.974 581.212 633.801 578.454C634.629 575.695 633.525 572.66 633.525 572.66L634.709 563.002L641.108 565.134L663.318 744.798L606.216 747.556L583.042 565.212Z" fill="white"/>
<path d="M635.732 563.188C635.732 563.188 639.595 572.108 643.18 593.074C646.768 614.04 650.077 649.35 650.905 673.626C651.732 697.902 652.285 753.35 652.285 753.35C652.285 753.35 723.456 753.35 724.285 753.35C725.112 753.35 730.077 726.04 730.077 726.04C730.077 726.04 698.629 699.098 696.975 694.683C695.871 691.74 696.423 637.212 691.732 612.108C687.043 587.004 680.975 581.947 668.285 575.695C655.171 569.232 635.732 563.188 635.732 563.188Z" fill="#293D8A"/>
<path d="M673.249 721.74C672.881 721.74 672.583 721.442 672.583 721.074C672.583 719.102 672.232 691.079 671.895 663.979C671.555 636.875 671.204 608.848 671.204 606.867C671.204 606.498 671.503 606.2 671.871 606.2C672.239 606.2 672.537 606.498 672.537 606.867C672.537 608.839 672.888 636.862 673.227 663.962C673.565 691.066 673.916 719.092 673.916 721.074C673.916 721.442 673.619 721.74 673.249 721.74Z" fill="#788CBD"/>
<path d="M529.801 715.004L529.25 753.35H613.112C613.112 753.35 616.698 720.798 615.318 717.764C613.94 714.728 529.801 715.004 529.801 715.004Z" fill="#293D8A"/>
<path d="M634.868 561.031C631.227 559.695 626.552 557.484 623.135 554.729C617.148 549.903 613.313 544.154 610.828 538.514C613.595 541.659 616.656 544.38 619.732 547.004C623.628 550.327 629.473 552.936 635.691 553.903L634.868 561.031Z" fill="#945168"/>
<path d="M662.768 467.004C662.768 467.004 668.562 476.936 669.664 489.073C670.768 501.212 669.664 532.384 659.732 545.625C649.802 558.867 629.112 555.004 619.732 547.004C611.126 539.663 602.63 531.556 600.423 515.556C598.216 499.556 605.112 469.211 624.699 462.867C644.284 456.521 662.768 467.004 662.768 467.004Z" fill="#F57C83"/>
<path d="M687.653 736.007C687.653 736.007 686.68 736.007 685.2 735.967C684.853 735.954 684.467 735.967 684.065 735.954C682.64 735.914 680.907 735.875 679.16 735.822C678.773 735.807 678.373 735.794 677.987 735.78C676.253 735.74 674.773 735.954 673.387 735.875H673.347C673.053 735.86 672.627 735.9 672.28 735.914C672.107 735.928 671.947 735.94 671.84 735.928C671.04 735.78 670.88 735.595 670.013 735.208C668.893 734.7 653.732 731.315 641.399 731.394C629.08 731.447 618.027 732.287 616.227 730.78C614.413 729.247 613.32 713.768 623.84 712.754L636.773 717.66C636.773 717.66 666.307 714.155 677.133 722.14C687.987 730.127 687.653 736.007 687.653 736.007Z" fill="#F57C83"/>
<path d="M673.347 735.875C673.054 735.86 672.627 735.9 672.28 735.914C672.014 735.488 671.452 734.714 671.147 734.394C667.814 730.994 659.76 728.794 656.84 728.087C656.574 728.02 656.399 727.754 656.467 727.488C656.52 727.22 656.8 727.06 657.08 727.114C661.334 728.14 670.36 730.768 672.92 735.074C673 735.194 673.214 735.607 673.347 735.875Z" fill="#293D8A"/>
<path d="M679.164 735.82C678.777 735.811 678.377 735.8 677.99 735.778C674.35 729.14 668.396 727.235 661.037 724.868L660.601 724.723C660.349 724.638 660.196 724.354 660.284 724.09C660.369 723.838 660.64 723.684 660.917 723.771L661.34 723.915C669.121 726.412 675.382 728.419 679.164 735.82Z" fill="#293D8A"/>
<path d="M685.201 735.967C684.855 735.958 684.468 735.962 684.067 735.952C681.86 731.311 674.555 723.544 664.889 721.734C664.611 721.687 664.429 721.43 664.476 721.151C664.536 720.884 664.793 720.706 665.06 720.752C675.016 722.622 683.048 730.754 685.201 735.967Z" fill="#293D8A"/>
<path d="M607.042 501.902C607.042 501.902 613.112 499.004 617.388 490.867C621.664 482.73 621.112 475.419 621.112 475.419C621.112 475.419 628.836 474.178 640.422 477.626C652.008 481.074 665.801 485.764 677.388 479.143C688.974 472.522 688.974 461.902 683.318 457.488C676.985 452.544 664.422 455.556 664.422 455.556C664.422 455.556 669.249 450.867 666.629 448.108C664.008 445.35 654.492 448.936 654.492 448.936C654.492 448.936 642.905 439.695 620.974 440.798C599.042 441.902 588.56 457.212 587.318 474.315C586.077 491.419 592.285 508.522 592.285 508.522L607.042 501.902Z" fill="#293D8A"/>
<path d="M651.96 530.038C651.706 530.038 651.441 530.031 651.16 530.019C649.536 529.956 647.494 529.688 646.101 528.816C645.689 528.558 645.845 527.884 646.35 527.884C646.352 527.884 646.352 527.884 646.353 527.884C647.22 527.888 648.066 528.15 648.932 528.215C649.736 528.274 650.549 528.308 651.354 528.346C651.822 528.367 652.377 528.41 652.942 528.41C653.789 528.41 654.654 528.314 655.27 527.906C657.964 526.123 652.728 523.923 651.62 523.107C649.302 521.399 649.768 518.45 650.01 515.92C650.324 512.668 650.293 509.111 651.536 506.047C651.625 505.828 651.854 505.712 652.066 505.712C652.306 505.712 652.526 505.86 652.498 506.178C652.148 510.082 651.245 513.935 651 517.858C650.896 519.49 650.776 521.25 652.236 522.295C653.289 523.05 654.569 523.41 655.613 524.183C656.518 524.855 657.421 525.934 657.26 527.136C657.118 528.206 656.246 528.836 655.346 529.283C654.138 529.883 653.176 530.038 651.96 530.038Z" fill="#945168"/>
<path d="M662.812 515.22C662.4 517.545 660.709 519.189 659.033 518.893C657.359 518.597 656.335 516.471 656.745 514.147C657.157 511.821 658.848 510.176 660.524 510.472C662.199 510.768 663.224 512.895 662.812 515.22Z" fill="#293D8A"/>
<path d="M641.704 513.377C641.331 515.887 639.564 517.701 637.756 517.433C635.948 517.164 634.785 514.912 635.159 512.404C635.532 509.895 637.3 508.079 639.108 508.348C640.915 508.617 642.077 510.869 641.704 513.377Z" fill="#293D8A"/>
<path d="M657.897 505.635C659.187 505.852 660.488 505.629 661.788 505.721C662.101 505.743 662.409 505.789 662.723 505.82C662.944 505.84 662.308 505.753 662.617 505.804L662.816 505.837C662.979 505.867 663.141 505.9 663.301 505.939C663.579 506.007 663.847 506.111 664.124 506.172C664.376 506.227 664.656 506.285 664.909 506.273C665.052 506.255 665.192 506.236 665.335 506.216L665.067 506.265L665.595 506.208C666.335 506.035 666.79 505.179 666.584 504.464C666.524 504.259 666.433 504.072 666.303 503.903L666.133 503.688L666.289 503.867L666.118 503.64C666.045 503.517 665.948 503.419 665.824 503.345L665.512 503.108C665.171 502.871 664.721 502.732 664.316 502.628C663.547 502.429 662.739 502.328 661.947 502.324C661.157 502.32 660.379 502.403 659.599 502.511C658.911 502.605 658.145 502.84 657.586 503.255C657.156 503.576 656.891 503.988 656.965 504.552C657.028 505.019 657.396 505.549 657.897 505.635Z" fill="#293D8A"/>
<path d="M643.184 501.944C643.009 501.84 642.831 501.749 642.645 501.665C642.489 501.595 642.063 501.371 642.385 501.547L642.031 501.357C641.496 501.088 640.941 500.908 640.364 500.761C639.105 500.44 637.78 500.359 636.489 500.495C635.112 500.64 633.855 500.973 632.661 501.692C632.493 501.795 632.32 501.893 632.18 502.033C632.085 502.153 631.992 502.275 631.901 502.397L631.98 502.277C631.612 502.535 631.397 502.956 631.401 503.401C631.404 503.829 631.627 504.187 631.999 504.393C632.448 504.644 632.875 504.524 633.339 504.405C633.105 504.405 632.872 504.405 632.64 504.405C633.023 504.464 633.292 504.48 633.679 504.395C633.693 504.392 634.051 504.303 633.815 504.352C633.593 504.4 634.191 504.307 634.256 504.297C634.332 504.287 634.747 504.245 634.308 504.288L634.551 504.26C634.757 504.235 634.967 504.208 635.175 504.192C636.085 504.119 636.993 504.077 637.905 504.048C638.752 504.02 639.615 504.013 640.46 504.049C640.824 504.065 641.184 504.077 641.548 504.088C641.751 504.093 641.665 504.125 641.525 504.081L641.752 504.14C641.903 504.181 642.051 504.231 642.196 504.287C642.785 504.511 643.491 504.085 643.708 503.544C643.945 502.955 643.744 502.277 643.184 501.944Z" fill="#293D8A"/>
<path d="M649.733 540.292C651 537.747 653.303 535.882 655.965 534.682C653.655 534.447 642.741 533.436 639.988 535C636.903 536.751 640.559 543.784 646.937 544.138C647.608 544.175 648.217 544.12 648.797 544.03C648.849 542.746 649.145 541.475 649.733 540.292Z" fill="#293D8A"/>
<path d="M599.319 525.488C599.319 525.488 600.423 529.764 606.767 534.729C613.112 539.695 622.308 543.327 622.308 543.327L623.043 540.108C623.043 540.108 613.526 535.969 609.112 531.419C604.699 526.867 604.147 524.384 604.147 524.384L599.319 525.488Z" fill="#D6DCEB"/>
<path d="M624.147 537.727C629.253 537.489 632.103 541.527 632.459 544.139C632.815 546.752 630.361 549.681 624.621 547.108C617.492 543.912 619.041 537.964 624.147 537.727Z" fill="#293D8A"/>
<path d="M603.319 493.902C603.319 493.902 605.524 478.048 616.147 467.28C636.423 446.73 653.664 447.97 653.664 447.97C653.664 447.97 653.525 445.074 647.043 442.867C640.956 440.795 638.216 441.902 638.216 441.902C638.216 441.902 621.525 443.28 607.457 458.867C593.388 474.454 591.871 494.315 591.871 494.315L603.319 493.902Z" fill="#D6DCEB"/>
<path d="M601.801 491.969C588.519 489.719 581.112 500.108 580.56 510.591C580.008 521.073 587.625 529.043 597.801 528.245C620.699 526.453 618.077 494.729 601.801 491.969Z" fill="white"/>
<path d="M595.188 518.059C591.681 518.059 588.717 516.296 587.024 513.193C585.209 509.869 585.361 505.777 587.412 502.768C587.568 502.543 587.877 502.483 588.106 502.637C588.334 502.793 588.394 503.104 588.238 503.332C586.397 506.033 586.265 509.716 587.901 512.713C589.454 515.559 592.196 517.171 595.442 517.055C598.477 516.973 601.049 515.585 602.685 513.145C604.552 510.36 604.981 506.515 603.778 503.349C602.585 500.208 599.313 498.067 596.338 498.456C596.069 498.491 595.813 498.3 595.777 498.025C595.74 497.752 595.932 497.501 596.206 497.464C599.686 497 603.341 499.379 604.713 502.993C606.028 506.453 605.557 510.656 603.516 513.701C601.694 516.419 598.837 517.964 595.469 518.055L595.188 518.059Z" fill="#7588BB"/>
<path d="M585.525 561.349C585.525 561.349 545.251 571.28 531.181 587.28C517.112 603.28 510.492 682.177 510.216 696.797C509.94 711.419 520.147 717.488 526.216 721.625C532.285 725.764 559.043 733.212 580.56 734.316C602.077 735.419 622.492 734.316 622.492 734.316C622.492 734.316 622.423 729.625 625.732 722.728C628.803 716.332 632.699 715.004 632.699 715.004L614.216 708.384C614.216 708.384 610.98 650.392 605.94 622.316C600.147 590.039 585.525 561.349 585.525 561.349Z" fill="#293D8A"/>
<path d="M652.285 699.119L652.015 699.061C651.677 698.912 651.525 698.519 651.675 698.183C655.449 689.668 659.359 672.953 661.561 661.227L661.741 660.279C662.408 656.829 663.237 652.54 661.583 649.579C660.739 648.068 658.833 644.791 657 641.64C655.097 638.369 653.3 635.279 652.801 634.357C651.831 632.556 654.889 627.745 659.317 621.147C660.512 619.363 661.547 617.823 662.149 616.78C663.728 614.049 662.676 611.548 661.46 608.652L661.047 607.655C659.944 604.947 658.689 602.235 657.479 599.612C656.984 598.541 656.488 597.468 656 596.389C655.352 594.964 654.703 593.513 654.044 592.047C650.145 583.356 646.115 574.371 640.952 565.689C640.764 565.373 640.868 564.964 641.184 564.776C641.501 564.589 641.909 564.692 642.099 565.009C647.299 573.755 651.345 582.776 655.26 591.5C655.917 592.967 656.567 594.415 657.213 595.84C657.701 596.915 658.195 597.985 658.688 599.053C659.907 601.689 661.167 604.416 662.281 607.152L662.689 608.136C663.931 611.089 665.213 614.144 663.303 617.447C662.677 618.529 661.633 620.087 660.424 621.888C658.116 625.329 653.311 632.492 653.975 633.723C654.463 634.627 656.255 637.708 658.152 640.969C659.989 644.128 661.9 647.413 662.747 648.928C664.64 652.315 663.759 656.871 663.052 660.532L662.871 661.472C662.068 665.743 657.82 687.608 652.895 698.721C652.784 698.972 652.54 699.119 652.285 699.119Z" fill="#788CBD"/>
<path d="M612.974 701.464C612.802 701.464 612.63 701.399 612.501 701.268C609.366 698.108 594.249 671.933 593.124 667.011C592.508 664.316 594.054 657.481 595.55 650.871C596.709 645.749 597.908 640.453 597.566 639.02C597.057 636.877 593.192 633.719 589.453 630.665C584.937 626.977 580.268 623.161 579.364 619.725C578.336 615.82 579.214 591.371 579.796 575.193C580.005 569.376 580.17 564.781 580.169 563.143C580.169 562.775 580.468 562.476 580.836 562.476C581.204 562.476 581.502 562.773 581.502 563.141C581.504 564.805 581.338 569.411 581.128 575.241C580.585 590.363 579.676 615.669 580.653 619.387C581.448 622.403 586.149 626.244 590.297 629.633C594.388 632.975 598.25 636.131 598.864 638.712C599.276 640.445 598.152 645.413 596.85 651.164C595.456 657.328 593.876 664.313 594.424 666.713C595.528 671.54 610.369 697.225 613.448 700.327C613.706 700.589 613.705 701.011 613.444 701.269C613.313 701.399 613.144 701.464 612.974 701.464Z" fill="#788CBD"/>
<path d="M558.768 690.016L558.675 690.01C558.309 689.958 558.056 689.62 558.107 689.256C558.596 685.788 566.249 616.722 566.6 611.432C566.625 611.063 566.943 610.775 567.311 610.811C567.677 610.835 567.955 611.154 567.931 611.52C567.579 616.819 559.917 685.971 559.427 689.443C559.38 689.775 559.095 690.016 558.768 690.016Z" fill="#788CBD"/>
<path d="M613.664 708.773L613.413 708.725C611.717 708.039 604.225 705.511 594.74 702.313C575.596 695.856 549.376 687.015 544.391 684.424C544.064 684.255 543.937 683.852 544.107 683.525C544.276 683.197 544.676 683.067 545.005 683.242C549.9 685.784 577.141 694.971 595.167 701.048C604.673 704.256 612.181 706.787 613.915 707.489C614.256 707.628 614.42 708.016 614.281 708.357C614.176 708.616 613.927 708.773 613.664 708.773Z" fill="#788CBD"/>
<path d="M604.457 736.275C587.609 736.275 554.945 733.238 530.132 724.462C529.784 724.338 529.603 723.958 529.725 723.61C529.847 723.264 530.232 723.082 530.576 723.204C561.923 734.292 605.773 736.186 613.932 734.354C614.291 734.276 614.647 734.5 614.728 734.859C614.809 735.218 614.583 735.575 614.224 735.656C612.457 736.051 609.043 736.275 604.457 736.275Z" fill="#788CBD"/>
<path d="M411.613 570.652C416.844 575.252 423.468 578.201 428.059 583.521C429.864 585.615 431.487 587.843 433.164 590.037C434.384 591.635 437.641 594.284 438.169 596.292C438.403 597.176 438.353 595.979 438.119 595.092L438.08 594.981C437.621 590.916 437.293 586.835 437.151 582.745C437.008 578.667 437.263 574.572 437.007 570.5C436.647 564.755 434.853 559.192 430.157 555.593C427.862 553.833 424.913 552.763 422.802 550.811C420.8 548.957 421.603 546.835 422.781 544.768C423.882 542.833 425.218 540.933 425.647 538.707C426.136 536.176 425.185 533.565 423.901 531.411C421.169 526.824 415.111 521.711 409.374 522.396C404.588 522.968 404.046 528.488 404.114 532.333C404.181 536.072 404.551 539.799 404.586 543.54C404.624 547.383 403.97 551.153 403.915 554.979C403.823 561.487 406.829 566.445 411.613 570.652Z" fill="#60A6DF"/>
<path d="M460.212 630.362C461.668 626.888 463.338 623.642 465.393 620.483C468.212 616.15 471.338 611.927 473.23 607.074C475.164 602.119 474.88 596.82 475.07 591.602C475.209 587.768 476.349 583.944 476.041 580.1C475.894 578.256 474.832 575.274 472.446 575.579C470.59 575.816 469.488 578.118 468.774 579.586C467.529 582.148 466.666 584.882 465.741 587.57C465.381 588.622 465.036 589.692 464.58 590.707C464.314 591.298 463.47 592.738 462.674 592.542C461.318 592.207 462.549 586.672 462.75 585.692C463.762 580.77 465.286 576.195 465.498 571.13C465.805 563.786 465.234 555.043 458.052 551.027C456.173 549.978 453.794 549.352 452.01 550.923C450.25 552.471 449.753 555.156 449.492 557.366C448.69 564.148 450.286 570.571 452.46 576.952C454.254 582.222 456.393 587.659 456.549 593.294C456.7 598.718 453.877 603.524 452.553 608.648C450.442 616.814 450.878 621.143 450.869 623.787C450.854 627.1 450.976 630.378 451.217 633.68C451.441 636.716 451.704 639.754 452.074 642.775C452.15 643.387 452.22 644.026 452.301 644.664C451.134 641.855 450.726 638.638 449.76 635.815C448.044 630.796 446.049 625.882 444.401 620.839C443.04 616.672 441.754 612.478 439.956 608.472C438.27 604.714 436.234 600.742 433.089 597.984C431.188 596.318 428.884 595.343 426.341 595.363C424.715 595.375 423.253 595.938 421.7 596.348C419.789 596.854 418.285 596.679 416.713 595.471C411.565 591.514 409.999 584.419 406.188 579.408C403.346 575.671 396.601 569.3 391.642 573.376C389.011 575.538 388.286 579.715 388.424 582.918C388.597 586.935 390.353 590.61 392.444 593.97C394.668 597.542 397.539 600.74 399.583 604.414C400.791 606.583 400.98 608.662 400.788 611.11C400.608 613.415 400.406 615.648 401.192 617.872C403.552 624.551 410.921 623.619 416.652 623.794C420.663 623.915 424.965 624.512 428.773 625.795C433.173 627.276 436.036 630.14 437.609 634.492C438.746 637.643 439.356 641.219 441.5 643.895C442.508 645.154 443.842 646.083 445.31 646.732C447.545 647.719 454.36 648.151 454.41 647.528C454.578 645.444 455.566 643.246 456.185 641.268C457.345 637.56 458.709 633.943 460.212 630.362Z" fill="#60A6DF"/>
<path d="M491.853 629.103C491.26 625.284 491.373 621.076 489.565 617.57C489.436 617.319 489.095 617.255 488.861 617.384C487.565 618.103 487.512 620.196 487.405 621.479C487.231 623.607 487.361 625.74 487.099 627.863C486.64 631.591 485.779 635.434 484.435 638.947C482.916 642.923 480.152 645.176 476.139 646.418C473.56 647.214 471.031 647.908 468.879 649.619C466.951 651.152 465.612 653.266 464.619 655.491C461.94 661.5 460.664 668.218 459.421 674.638C458.585 678.96 457.903 683.303 456.853 687.583C455.804 691.859 454.677 696.114 454.076 700.483C453.975 700.703 453.867 700.922 453.773 701.144C453.499 701.798 454.52 702.151 454.872 701.607C459.016 695.23 464.063 689.506 470.948 685.994C474.057 684.408 478.188 684.079 480.781 681.587C482.755 679.691 483.025 676.798 482.731 674.219C482.343 670.831 480.72 668.043 479.028 665.156C478.1 663.57 477.003 661.871 477.377 659.943C477.731 658.124 479.243 656.788 480.743 655.856C483.605 654.079 486.952 653.279 489.296 650.718C491.473 648.339 492.68 645.379 492.921 642.174C493.243 637.902 492.507 633.322 491.853 629.103Z" fill="#60A6DF"/>
<path d="M435.366 651.12C431.71 646.411 427.297 642.35 422.333 639.052C419.684 637.294 413.435 633.823 412.174 639.012C411.434 642.054 414.411 645.046 416.37 646.952C419.314 649.818 422.719 652.29 425.203 655.592C422.127 656.572 418.914 656.764 416.241 658.89C413.078 661.408 411.659 666.27 414.796 669.354C416.324 670.856 418.351 671.779 420.255 672.702C422.729 673.899 425.25 674.986 427.786 676.046C433.263 678.332 438.81 680.654 443.48 684.402C448.24 688.22 452.716 694.678 453.094 700.908C453.131 701.503 452.904 700.962 453.259 700.69C453.454 700.864 454.107 700.551 454.103 700.204C454.006 690.958 452.344 682.155 448.566 673.686C445.064 665.834 440.646 657.923 435.366 651.12Z" fill="#60A6DF"/>
<path d="M422.739 565.048C424.755 569.235 426.864 573.324 429.103 577.405C431.258 581.335 433.411 585.235 435.023 589.427C437.008 594.588 439.089 599.672 441.188 604.788C443.369 610.105 445.319 615.524 446.883 621.055C449.936 631.853 452.204 642.968 453.325 654.136C453.896 659.816 454.155 665.529 453.999 671.235C453.876 675.695 453.373 680.105 452.955 684.543C452.519 689.157 452.204 693.828 452.591 698.46C452.913 702.332 453.529 706.935 456.535 709.697C457.121 710.239 457.955 709.564 457.613 708.865C454.043 701.543 454.243 693.559 454.925 685.619C455.303 681.235 455.825 676.875 455.973 672.475C456.161 666.876 455.941 661.267 455.415 655.691C454.379 644.729 452.193 633.899 449.359 623.269C447.904 617.82 446.105 612.476 444.033 607.228C441.955 601.971 439.556 596.857 437.543 591.573C433.903 582.017 428.354 573.544 423.44 564.639C423.185 564.176 422.514 564.583 422.739 565.048Z" fill="#3E579E"/>
<path d="M453.489 643.188C454.067 636.229 454.683 629.528 457.029 622.889C458.123 619.793 459.449 616.783 460.505 613.675C461.377 611.105 462.683 607.583 462.011 604.852C461.936 604.547 461.492 604.563 461.408 604.852C460.959 606.412 461.008 608.123 460.685 609.721C460.369 611.277 459.949 612.808 459.465 614.32C458.436 617.536 457.091 620.617 455.925 623.783C453.675 629.897 452.519 636.671 453.011 643.188C453.033 643.496 453.464 643.496 453.489 643.188Z" fill="#3E579E"/>
<path d="M413.164 603.196C415.927 609.869 424.23 610.255 430.278 611.749C434.597 612.816 437.785 615.697 440.075 619.437C442.581 623.529 444.276 628.333 445.669 632.9L445.751 632.879C444.059 624.88 441.635 615.249 433.39 611.528C426.782 608.545 418.076 610.044 413.85 602.907C413.642 602.556 412.997 602.792 413.164 603.196Z" fill="#3E579E"/>
<path d="M449.123 642.132C449.452 642.576 449.753 643.04 450.092 643.475C450.26 643.691 450.431 643.894 450.643 644.067C450.86 644.244 451.113 644.464 451.411 644.459C451.535 644.456 451.621 644.319 451.555 644.208C451.419 643.986 451.172 643.851 450.98 643.682C450.781 643.507 450.58 643.335 450.388 643.155C450.001 642.79 449.648 642.392 449.271 642.019L449.123 642.132Z" fill="#3E579E"/>
<path d="M431.849 663.301C436.615 667.212 441.011 671.84 444.503 676.911C446.172 679.335 447.713 681.9 449.111 684.489C450.637 687.319 451.639 690.308 452.835 693.275C452.925 693.5 453.337 693.505 453.305 693.212C452.644 686.936 448.669 681.556 445.485 676.335C443.832 673.623 441.776 671.436 439.565 669.175C437.283 666.839 434.956 664.629 432.28 662.745C431.954 662.516 431.539 663.045 431.849 663.301Z" fill="#3E579E"/>
<path d="M469.79 655.914C467.496 657.214 467.421 660.839 467.376 663.154C467.289 667.6 468.39 671.776 466.438 676.014C464.676 679.842 461.86 683.038 459.646 686.592C457.573 689.919 455.529 694.172 455.574 698.178C455.577 698.408 455.932 698.54 456.04 698.304C456.874 696.486 457.174 694.42 457.773 692.515C458.445 690.372 459.384 688.427 460.6 686.543C462.73 683.242 465.345 680.236 467.074 676.686C468.896 672.943 468.629 669.236 468.508 665.182C468.432 662.596 468.173 658.442 470.257 656.519C470.585 656.218 470.166 655.702 469.79 655.914Z" fill="#3E579E"/>
<path d="M454.447 698.591C445.203 698.463 427.595 698.362 427.595 698.362L431.952 730.711C432.932 737.988 439.144 743.419 446.487 743.419H454.079H454.813H462.404C469.748 743.419 475.96 737.988 476.94 730.711L481.297 698.362C481.297 698.362 463.689 698.463 454.447 698.591Z" fill="white"/>
<path d="M901.251 639.143L848.513 743.601L694.768 744.707L742.216 637.671L901.251 639.143Z" fill="#F5F6F9"/>
<path d="M592.728 744.055L592.757 735.695H692.285L738.077 635.28H897.249L901.251 639.143H745.756L698.169 743.971C698.169 743.971 592.728 743.78 592.728 744.055Z" fill="#D1D8E8"/>
<path d="M821.413 696.785C819.676 701.996 810.249 706.02 800.357 705.772C790.465 705.525 783.855 701.101 785.591 695.889C787.328 690.68 796.755 686.656 806.647 686.904C816.539 687.152 823.151 691.576 821.413 696.785Z" fill="#D1D8E8"/>
<path d="M698.17 744.637L697.894 744.577C697.56 744.425 697.41 744.031 697.562 743.695L745.326 638.476H901.25C901.62 638.476 901.917 638.773 901.917 639.143C901.917 639.511 901.62 639.809 901.25 639.809H746.185L698.777 744.247C698.666 744.491 698.422 744.637 698.17 744.637Z" fill="white"/>
<path d="M402.905 792.522H585.801V751.971H402.905V792.522Z" fill="#4F68A9"/>
<path d="M584.756 792.522H913.823V751.971H584.756V792.522Z" fill="#6F83B8"/>
<path d="M402.905 759.419H584.756V751.971H402.905V759.419Z" fill="#3D5192"/>
<path d="M913.823 759.419H584.756V751.971H913.823V759.419Z" fill="#5165A1"/>
<path d="M593.801 753.901H394.078V743.971H593.801V753.901Z" fill="#647AB4"/>
<path d="M921.823 753.901H592.757V743.971H921.823V753.901Z" fill="#8E9EC7"/>
<path d="M539.625 531.21H475.06C471.064 531.21 467.825 527.971 467.825 523.975V491.742C467.825 487.747 471.064 484.507 475.06 484.507H539.625C543.62 484.507 546.86 487.747 546.86 491.742V523.975C546.86 527.971 543.62 531.21 539.625 531.21Z" fill="white"/>
<path d="M565.26 507.859L541.011 497.627V518.091L565.26 507.859Z" fill="white"/>
<path d="M496.492 507.859C496.492 510.326 494.492 512.324 492.025 512.324C489.559 512.324 487.559 510.326 487.559 507.859C487.559 505.391 489.559 503.392 492.025 503.392C494.492 503.392 496.492 505.391 496.492 507.859Z" fill="#293D8A"/>
<path d="M511.809 507.859C511.809 510.326 509.809 512.324 507.343 512.324C504.876 512.324 502.876 510.326 502.876 507.859C502.876 505.391 504.876 503.392 507.343 503.392C509.809 503.392 511.809 505.391 511.809 507.859Z" fill="#293D8A"/>
<path d="M527.127 507.859C527.127 510.326 525.127 512.324 522.66 512.324C520.193 512.324 518.193 510.326 518.193 507.859C518.193 505.391 520.193 503.392 522.66 503.392C525.127 503.392 527.127 505.391 527.127 507.859Z" fill="#293D8A"/>
<path d="M868.331 385.349H719.273C709.7 385.349 701.94 393.109 701.94 402.683V473.396C701.94 482.968 709.7 490.729 719.273 490.729H732.633C733.009 497.139 732.091 506.675 726.737 518.867C743.959 510.923 753.876 498.995 759.056 490.729H868.331C877.903 490.729 885.664 482.968 885.664 473.396V402.683C885.664 393.109 877.903 385.349 868.331 385.349Z" fill="#599FDC"/>
<path d="M804.744 419.051H730.813C728.783 419.051 727.135 417.404 727.135 415.374C727.135 413.342 728.783 411.695 730.813 411.695H804.744C806.776 411.695 808.423 413.342 808.423 415.374C808.423 417.404 806.776 419.051 804.744 419.051Z" fill="white"/>
<path d="M857.756 440.476H729.388C728.144 440.476 727.135 439.468 727.135 438.224C727.135 436.98 728.144 435.971 729.388 435.971H857.756C859 435.971 860.009 436.98 860.009 438.224C860.009 439.468 859 440.476 857.756 440.476Z" fill="#C3E4F7"/>
<path d="M857.756 452.983H729.388C728.144 452.983 727.135 451.974 727.135 450.73C727.135 449.486 728.144 448.476 729.388 448.476H857.756C859 448.476 860.009 449.486 860.009 450.73C860.009 451.974 859 452.983 857.756 452.983Z" fill="#C3E4F7"/>
<path d="M829.753 466.316H729.388C728.144 466.316 727.135 465.307 727.135 464.063C727.135 462.819 728.144 461.809 729.388 461.809H829.753C830.999 461.809 832.008 462.819 832.008 464.063C832.008 465.307 830.999 466.316 829.753 466.316Z" fill="#C3E4F7"/>
<path d="M856.748 419.051H821.48C819.449 419.051 817.801 417.404 817.801 415.374C817.801 413.342 819.449 411.695 821.48 411.695H856.748C858.78 411.695 860.425 413.342 860.425 415.374C860.425 417.404 858.78 419.051 856.748 419.051Z" fill="white"/>
<path d="M767.858 581.672H727.813C726.34 581.672 725.146 580.477 725.146 579.005V551.648C725.146 550.176 726.34 548.981 727.813 548.981H767.858C769.332 548.981 770.525 550.176 770.525 551.648V579.005C770.525 580.477 769.332 581.672 767.858 581.672Z" fill="white"/>
<path d="M748.114 570.212C747.888 570.212 747.662 570.135 747.476 569.983L725.682 551.981C725.256 551.629 725.196 551 725.548 550.573C725.902 550.148 726.532 550.089 726.955 550.44L748.096 567.9L768.697 549.973C769.113 549.612 769.746 549.656 770.108 550.072C770.471 550.489 770.427 551.12 770.01 551.483L748.769 569.965C748.581 570.129 748.347 570.212 748.114 570.212Z" fill="#647AB4"/>
<path d="M726.319 580.925C726.071 580.925 725.823 580.833 725.629 580.649C725.229 580.268 725.213 579.636 725.595 579.236L740.837 563.212C741.215 562.811 741.851 562.795 742.25 563.176C742.651 563.557 742.667 564.189 742.285 564.591L727.043 580.615C726.847 580.821 726.583 580.925 726.319 580.925Z" fill="#647AB4"/>
<path d="M769.353 580.339C769.097 580.339 768.841 580.242 768.645 580.046L753.464 564.823C753.075 564.432 753.075 563.798 753.467 563.408C753.859 563.018 754.492 563.019 754.881 563.41L770.063 578.632C770.452 579.024 770.452 579.658 770.06 580.047C769.864 580.242 769.609 580.339 769.353 580.339Z" fill="#647AB4"/>
<path d="M785.985 547.97C785.985 555.359 779.996 561.35 772.607 561.35C765.217 561.35 759.228 555.359 759.228 547.97C759.228 540.582 765.217 534.591 772.607 534.591C779.996 534.591 785.985 540.582 785.985 547.97Z" fill="#F1494A"/>
<path d="M769.379 547.936L769.347 547.568C769.752 547.75 770.104 547.984 770.403 548.272C770.701 548.56 770.931 548.875 771.091 549.216C771.251 549.558 771.331 549.91 771.331 550.272C771.331 550.88 771.16 551.44 770.819 551.952C770.488 552.454 770.04 552.859 769.475 553.168C768.909 553.467 768.28 553.616 767.587 553.616C766.893 553.616 766.264 553.467 765.699 553.168C765.133 552.859 764.68 552.454 764.339 551.952C764.008 551.44 763.843 550.88 763.843 550.272C763.843 549.782 763.944 549.36 764.147 549.008C764.36 548.646 764.621 548.342 764.931 548.096C765.251 547.851 765.565 547.648 765.875 547.488L765.747 547.936C765.48 547.83 765.219 547.68 764.963 547.488C764.717 547.286 764.515 547.03 764.355 546.72C764.195 546.411 764.115 546.048 764.115 545.632C764.115 545.035 764.269 544.496 764.579 544.016C764.888 543.526 765.304 543.136 765.827 542.848C766.36 542.56 766.947 542.416 767.587 542.416C768.237 542.416 768.819 542.56 769.331 542.848C769.853 543.136 770.269 543.526 770.579 544.016C770.888 544.496 771.043 545.035 771.043 545.632C771.043 546.091 770.952 546.475 770.771 546.784C770.589 547.094 770.371 547.339 770.115 547.52C769.859 547.702 769.613 547.84 769.379 547.936ZM766.035 545.664C766.035 545.952 766.099 546.208 766.227 546.432C766.365 546.656 766.552 546.838 766.787 546.976C767.021 547.104 767.288 547.168 767.587 547.168C767.885 547.168 768.147 547.104 768.371 546.976C768.605 546.838 768.787 546.656 768.915 546.432C769.053 546.208 769.123 545.952 769.123 545.664C769.123 545.238 768.973 544.886 768.675 544.608C768.387 544.32 768.024 544.176 767.587 544.176C767.139 544.176 766.765 544.32 766.467 544.608C766.179 544.886 766.035 545.238 766.035 545.664ZM767.587 551.856C768.099 551.856 768.531 551.702 768.883 551.392C769.235 551.072 769.411 550.688 769.411 550.24C769.411 549.931 769.331 549.654 769.171 549.408C769.011 549.163 768.792 548.971 768.515 548.832C768.237 548.683 767.928 548.608 767.587 548.608C767.245 548.608 766.936 548.683 766.659 548.832C766.381 548.971 766.163 549.163 766.003 549.408C765.843 549.654 765.763 549.931 765.763 550.24C765.763 550.688 765.939 551.072 766.291 551.392C766.643 551.702 767.075 551.856 767.587 551.856ZM775.824 553.776C775.43 553.776 775.008 553.718 774.56 553.6C774.112 553.472 773.744 553.291 773.456 553.056C773.318 552.939 773.206 552.79 773.12 552.608C773.046 552.416 773.008 552.235 773.008 552.064C773.008 551.883 773.083 551.712 773.232 551.552C773.392 551.392 773.616 551.312 773.904 551.312C774.096 551.312 774.336 551.414 774.624 551.616C774.795 551.723 774.982 551.819 775.184 551.904C775.387 551.99 775.595 552.032 775.808 552.032C776.32 552.032 776.763 551.942 777.136 551.76C777.51 551.568 777.798 551.307 778 550.976C778.203 550.646 778.304 550.256 778.304 549.808C778.304 549.403 778.208 549.056 778.016 548.768C777.835 548.48 777.59 548.256 777.28 548.096C776.982 547.936 776.656 547.856 776.304 547.856C775.974 547.856 775.686 547.91 775.44 548.016C775.195 548.123 774.971 548.235 774.768 548.352C774.566 548.459 774.363 548.512 774.16 548.512C773.808 548.512 773.547 548.438 773.376 548.288C773.206 548.128 773.099 547.942 773.056 547.728C773.014 547.515 773.003 547.323 773.024 547.152L773.52 543.264C773.563 543.04 773.67 542.859 773.84 542.72C774.022 542.571 774.235 542.496 774.48 542.496H779.104C779.36 542.496 779.574 542.582 779.744 542.752C779.915 542.923 780 543.136 780 543.392C780 543.638 779.915 543.846 779.744 544.016C779.574 544.176 779.36 544.256 779.104 544.256H774.976L775.152 544.112L774.72 547.36L774.512 546.752C774.576 546.646 774.715 546.544 774.928 546.448C775.142 546.352 775.387 546.272 775.664 546.208C775.942 546.134 776.214 546.096 776.48 546.096C777.195 546.096 777.835 546.262 778.4 546.592C778.966 546.912 779.408 547.355 779.728 547.92C780.059 548.475 780.224 549.104 780.224 549.808C780.224 550.608 780.043 551.307 779.68 551.904C779.318 552.502 778.806 552.966 778.144 553.296C777.494 553.616 776.72 553.776 775.824 553.776Z" fill="white"/>
<path d="M906.984 543.045H828.823C825.877 543.045 823.489 540.657 823.489 537.712V525.483C823.489 522.537 825.877 520.149 828.823 520.149H906.984C909.929 520.149 912.317 522.537 912.317 525.483V537.712C912.317 540.657 909.929 543.045 906.984 543.045Z" fill="#293D8A"/>
<path d="M834.465 537.602C834.115 537.602 833.833 537.478 833.62 537.227C833.407 536.978 833.313 536.664 833.34 536.29L833.676 533.324L833.64 533.175L833.452 533.212L831.012 534.975C830.712 535.2 830.399 535.283 830.073 535.219C829.749 535.158 829.487 534.963 829.287 534.638C829.061 534.238 829.017 533.887 829.155 533.587C829.291 533.287 829.524 533.075 829.848 532.95L832.588 531.711L832.701 531.599L832.588 531.486L829.848 530.247C829.499 530.098 829.273 529.86 829.175 529.535C829.073 529.21 829.112 528.884 829.287 528.559C829.487 528.234 829.749 528.04 830.073 527.976C830.399 527.915 830.712 527.984 831.012 528.184L833.452 529.986L833.64 530.022L833.676 529.872L833.34 526.907C833.313 526.532 833.413 526.219 833.64 525.97C833.865 525.719 834.165 525.595 834.54 525.595C834.891 525.595 835.177 525.719 835.403 525.97C835.628 526.219 835.716 526.532 835.665 526.907L835.328 529.872L835.365 530.022L835.555 529.986L837.993 528.222C838.292 527.995 838.612 527.915 838.951 527.976C839.287 528.04 839.543 528.234 839.719 528.559C839.944 528.959 839.988 529.31 839.848 529.61C839.712 529.91 839.48 530.123 839.155 530.247L836.416 531.486L836.304 531.599L836.416 531.711L839.155 532.95C839.507 533.099 839.737 533.338 839.848 533.662C839.961 533.988 839.919 534.314 839.719 534.638C839.543 534.963 839.287 535.158 838.951 535.219C838.612 535.283 838.292 535.212 837.993 535.014L835.555 533.212L835.365 533.175L835.328 533.324L835.665 536.29C835.716 536.664 835.621 536.978 835.385 537.227C835.145 537.478 834.84 537.602 834.465 537.602Z" fill="white"/>
<path d="M850.631 537.602C850.281 537.602 850 537.478 849.787 537.227C849.573 536.978 849.48 536.664 849.505 536.29L849.842 533.324L849.805 533.175L849.619 533.212L847.178 534.975C846.878 535.2 846.565 535.283 846.24 535.219C845.916 535.158 845.653 534.963 845.453 534.638C845.228 534.238 845.184 533.887 845.321 533.587C845.457 533.287 845.689 533.075 846.015 532.95L848.755 531.711L848.868 531.599L848.755 531.486L846.015 530.247C845.665 530.098 845.44 529.86 845.34 529.535C845.24 529.21 845.279 528.884 845.453 528.559C845.653 528.234 845.916 528.04 846.24 527.976C846.565 527.915 846.878 527.984 847.178 528.184L849.619 529.986L849.805 530.022L849.842 529.872L849.505 526.907C849.48 526.532 849.58 526.219 849.805 525.97C850.031 525.719 850.33 525.595 850.706 525.595C851.057 525.595 851.344 525.719 851.569 525.97C851.795 526.219 851.883 526.532 851.832 526.907L851.495 529.872L851.532 530.022L851.72 529.986L854.159 528.222C854.457 527.995 854.779 527.915 855.116 527.976C855.453 528.04 855.709 528.234 855.885 528.559C856.109 528.959 856.153 529.31 856.014 529.61C855.878 529.91 855.647 530.123 855.321 530.247L852.583 531.486L852.47 531.599L852.583 531.711L855.321 532.95C855.672 533.099 855.904 533.338 856.014 533.662C856.128 533.988 856.085 534.314 855.885 534.638C855.709 534.963 855.453 535.158 855.116 535.219C854.779 535.283 854.457 535.212 854.159 535.014L851.72 533.212L851.532 533.175L851.495 533.324L851.832 536.29C851.883 536.664 851.788 536.978 851.551 537.227C851.312 537.478 851.007 537.602 850.631 537.602Z" fill="white"/>
<path d="M866.797 537.602C866.448 537.602 866.165 537.478 865.953 537.227C865.739 536.978 865.645 536.664 865.672 536.29L866.009 533.324L865.972 533.175L865.785 533.212L863.344 534.975C863.044 535.2 862.731 535.283 862.407 535.219C862.081 535.158 861.819 534.963 861.62 534.638C861.393 534.238 861.349 533.887 861.488 533.587C861.624 533.287 861.856 533.075 862.181 532.95L864.921 531.711L865.033 531.599L864.921 531.486L862.181 530.247C861.832 530.098 861.605 529.86 861.507 529.535C861.407 529.21 861.445 528.884 861.62 528.559C861.819 528.234 862.081 528.04 862.407 527.976C862.731 527.915 863.044 527.984 863.344 528.184L865.785 529.986L865.972 530.022L866.009 529.872L865.672 526.907C865.645 526.532 865.747 526.219 865.972 525.97C866.197 525.719 866.497 525.595 866.873 525.595C867.224 525.595 867.509 525.719 867.735 525.97C867.961 526.219 868.049 526.532 867.997 526.907L867.661 529.872L867.699 530.022L867.887 529.986L870.325 528.222C870.624 527.995 870.944 527.915 871.283 527.976C871.62 528.04 871.876 528.234 872.052 528.559C872.276 528.959 872.32 529.31 872.181 529.61C872.045 529.91 871.812 530.123 871.488 530.247L868.749 531.486L868.636 531.599L868.749 531.711L871.488 532.95C871.839 533.099 872.069 533.338 872.181 533.662C872.293 533.988 872.251 534.314 872.052 534.638C871.876 534.963 871.62 535.158 871.283 535.219C870.944 535.283 870.624 535.212 870.325 535.014L867.887 533.212L867.699 533.175L867.661 533.324L867.997 536.29C868.049 536.664 867.953 536.978 867.717 537.227C867.479 537.478 867.172 537.602 866.797 537.602Z" fill="white"/>
<path d="M882.963 537.602C882.613 537.602 882.332 537.478 882.12 537.227C881.905 536.978 881.812 536.664 881.839 536.29L882.176 533.324L882.137 533.175L881.951 533.212L879.511 534.975C879.211 535.2 878.897 535.283 878.572 535.219C878.248 535.158 877.985 534.963 877.785 534.638C877.56 534.238 877.516 533.887 877.653 533.587C877.789 533.287 878.023 533.075 878.347 532.95L881.087 531.711L881.2 531.599L881.087 531.486L878.347 530.247C877.997 530.098 877.772 529.86 877.673 529.535C877.572 529.21 877.611 528.884 877.785 528.559C877.985 528.234 878.248 528.04 878.572 527.976C878.897 527.915 879.211 527.984 879.511 528.184L881.951 529.986L882.137 530.022L882.176 529.872L881.839 526.907C881.812 526.532 881.912 526.219 882.137 525.97C882.364 525.719 882.664 525.595 883.039 525.595C883.389 525.595 883.676 525.719 883.901 525.97C884.127 526.219 884.215 526.532 884.164 526.907L883.827 529.872L883.864 530.022L884.053 529.986L886.492 528.222C886.791 527.995 887.111 527.915 887.449 527.976C887.785 528.04 888.041 528.234 888.217 528.559C888.443 528.959 888.487 529.31 888.347 529.61C888.211 529.91 887.979 530.123 887.653 530.247L884.915 531.486L884.803 531.599L884.915 531.711L887.653 532.95C888.005 533.099 888.236 533.338 888.347 533.662C888.46 533.988 888.417 534.314 888.217 534.638C888.041 534.963 887.785 535.158 887.449 535.219C887.111 535.283 886.791 535.212 886.492 535.014L884.053 533.212L883.864 533.175L883.827 533.324L884.164 536.29C884.215 536.664 884.12 536.978 883.884 537.227C883.644 537.478 883.339 537.602 882.963 537.602Z" fill="white"/>
<path d="M899.13 537.602C898.78 537.602 898.499 537.478 898.287 537.227C898.072 536.978 897.979 536.664 898.004 536.29L898.343 533.324L898.304 533.175L898.118 533.212L895.678 534.975C895.378 535.2 895.064 535.283 894.739 535.219C894.415 535.158 894.152 534.963 893.952 534.638C893.727 534.238 893.683 533.887 893.82 533.587C893.956 533.287 894.188 533.075 894.514 532.95L897.254 531.711L897.367 531.599L897.254 531.486L894.514 530.247C894.164 530.098 893.939 529.86 893.839 529.535C893.739 529.21 893.778 528.884 893.952 528.559C894.152 528.234 894.415 528.04 894.739 527.976C895.064 527.915 895.378 527.984 895.678 528.184L898.118 529.986L898.304 530.022L898.343 529.872L898.004 526.907C897.979 526.532 898.079 526.219 898.304 525.97C898.53 525.719 898.83 525.595 899.206 525.595C899.556 525.595 899.843 525.719 900.068 525.97C900.293 526.219 900.382 526.532 900.331 526.907L899.994 529.872L900.031 530.022L900.219 529.986L902.658 528.222C902.956 527.995 903.278 527.915 903.615 527.976C903.952 528.04 904.208 528.234 904.384 528.559C904.608 528.959 904.652 529.31 904.514 529.61C904.378 529.91 904.146 530.123 903.82 530.247L901.082 531.486L900.968 531.599L901.082 531.711L903.82 532.95C904.171 533.099 904.403 533.338 904.514 533.662C904.627 533.988 904.584 534.314 904.384 534.638C904.208 534.963 903.952 535.158 903.615 535.219C903.278 535.283 902.956 535.212 902.658 535.014L900.219 533.212L900.031 533.175L899.994 533.324L900.331 536.29C900.382 536.664 900.287 536.978 900.05 537.227C899.811 537.478 899.506 537.602 899.13 537.602Z" fill="#5DA4DE"/>
</g>
<path d="M514.5 235V230.31L541.52 192.02H515.2V186.7H548.8V191.39L521.78 229.68H549.5V235H514.5ZM558.293 191.81V185.23H564.453V191.81H558.293ZM558.573 235V198.6H564.173V235H558.573ZM575.109 225.06V183.2H580.709V225.62C580.709 228.84 582.342 230.543 585.609 230.73V235.56C578.609 235.56 575.109 232.06 575.109 225.06ZM593.293 191.81V185.23H599.453V191.81H593.293ZM593.573 235V198.6H599.173V235H593.573ZM610.389 235V198.6H629.989C636.989 198.6 640.489 202.1 640.489 209.1V235H634.889V208.4C634.889 205.133 633.256 203.5 629.989 203.5H615.989V235H610.389ZM650.845 224.5V209.1C650.845 202.1 654.345 198.6 661.345 198.6H680.945V238.5C680.945 245.5 677.445 249 670.445 249H656.445L653.645 246.9V244.1H670.445C673.711 244.1 675.345 242.467 675.345 239.2V235H661.345C654.345 235 650.845 231.5 650.845 224.5ZM656.445 225.2C656.445 228.467 658.078 230.1 661.345 230.1H675.345V203.5H661.345C658.078 203.5 656.445 205.133 656.445 208.4V225.2ZM691.867 191.81V185.23H698.027V191.81H691.867ZM692.147 235V198.6H697.747V235H692.147ZM717.573 235C710.527 235 707.003 231.477 707.003 224.43C707.003 217.383 710.527 213.86 717.573 213.86H730.383V208.4C730.383 205.133 728.75 203.5 725.483 203.5H710.503V200.7L713.303 198.6H725.483C732.483 198.6 735.983 202.1 735.983 209.1V235H717.573ZM712.603 225.2C712.603 228.467 714.237 230.1 717.503 230.1H730.383V218.41H717.503C714.237 218.41 712.603 220.043 712.603 223.31V225.2ZM746.623 225.06V183.2H752.223V225.62C752.223 228.84 753.856 230.543 757.123 230.73V235.56C750.123 235.56 746.623 232.06 746.623 225.06Z" fill="url(#paint3_linear_2380_10410)"/>
<defs>
<filter id="filter0_f_2380_10410" x="-28" y="0" width="966" height="954" filterUnits="userSpaceOnUse" color-interpolation-filters="sRGB">
<feFlood flood-opacity="0" result="BackgroundImageFix"/>
<feBlend mode="normal" in="SourceGraphic" in2="BackgroundImageFix" result="shape"/>
<feGaussianBlur stdDeviation="150" result="effect1_foregroundBlur_2380_10410"/>
</filter>
<filter id="filter1_f_2380_10410" x="344" y="0" width="966" height="954" filterUnits="userSpaceOnUse" color-interpolation-filters="sRGB">
<feFlood flood-opacity="0" result="BackgroundImageFix"/>
<feBlend mode="normal" in="SourceGraphic" in2="BackgroundImageFix" result="shape"/>
<feGaussianBlur stdDeviation="150" result="effect1_foregroundBlur_2380_10410"/>
</filter>
<linearGradient id="paint0_linear_2380_10410" x1="363.195" y1="562.732" x2="918.012" y2="565.294" gradientUnits="userSpaceOnUse">
<stop stop-color="#8F52F3"/>
<stop offset="1" stop-color="#00AAE1"/>
</linearGradient>
<linearGradient id="paint1_linear_2380_10410" x1="364.278" y1="566.572" x2="917.477" y2="569.111" gradientUnits="userSpaceOnUse">
<stop stop-color="#8F52F3"/>
<stop offset="1" stop-color="#00AAE1"/>
</linearGradient>
<linearGradient id="paint2_linear_2380_10410" x1="370.439" y1="576.06" x2="916.944" y2="579.026" gradientUnits="userSpaceOnUse">
<stop stop-color="#8F52F3"/>
<stop offset="1" stop-color="#00AAE1"/>
</linearGradient>
<linearGradient id="paint3_linear_2380_10410" x1="519.145" y1="215" x2="755.346" y2="212.679" gradientUnits="userSpaceOnUse">
<stop stop-color="#8F52F3"/>
<stop offset="1" stop-color="#00AAE1"/>
</linearGradient>
<clipPath id="clip0_2380_10410">
<rect width="650" height="459" fill="white" transform="translate(310 333)"/>
</clipPath>
</defs>
</svg>
